<?xml version="1.0" encoding="utf-8"?>
<!-- Generator: Adobe Illustrator 28.0.0, SVG Export Plug-In . SVG Version: 6.00 Build 0)  -->
<svg version="1.1" id="Layer_1" xmlns="http://www.w3.org/2000/svg" xmlns:xlink="http://www.w3.org/1999/xlink" x="0px" y="0px"
	 viewBox="0 0 500 182.1" style="enable-background:new 0 0 500 182.1;" xml:space="preserve">
<style type="text/css">
	.st0{fill:#0B0B0B;}
</style>
<g>
	<g>
		<g>
			<g>
				<path class="st0" d="M69.7,64.8c4.7,0,8.1,1.5,11.2,4.3c0.4,0.4,0.4,0.9,0,1.3l-2.8,2.9c-0.3,0.4-0.8,0.4-1.2,0
					c-1.9-1.7-4.5-2.7-7.1-2.7c-5.9,0-10.3,5-10.3,10.8c0,5.8,4.4,10.7,10.4,10.7c2.8,0,5.1-1.1,7.1-2.6c0.4-0.3,0.9-0.3,1.2,0
					l2.9,3c0.4,0.3,0.3,0.9,0,1.3c-3.2,3.1-7.1,4.5-11.3,4.5c-9.3,0-16.7-7.4-16.7-16.6S60.4,64.8,69.7,64.8z"/>
				<path class="st0" d="M96.8,66.1c0-0.5,0.4-0.9,0.9-0.9h4.4c0.5,0,0.9,0.4,0.9,0.9v18.9c0,3.9,2.7,7,6.7,7s6.8-3.1,6.8-7v-19
					c0-0.5,0.4-0.9,0.9-0.9h4.4c0.5,0,0.9,0.4,0.9,0.9v19.3c0,7-5.6,12.7-12.9,12.7c-7.3,0-12.9-5.7-12.9-12.7V66.1z"/>
				<path class="st0" d="M140.8,66.1c0-0.5,0.4-0.9,0.9-0.9h13.2c5.6,0,10.1,4.4,10.1,10c0,4.3-2.8,7.7-6.9,9.4l6.3,11.8
					c0.3,0.6,0,1.3-0.8,1.3h-4.9c-0.4,0-0.6-0.2-0.7-0.4L152,85h-5.1v11.8c0,0.5-0.4,0.9-0.9,0.9h-4.3c-0.5,0-0.9-0.4-0.9-0.9V66.1z
					 M154.4,80c2.5,0,4.6-2.1,4.6-4.7c0-2.5-2.1-4.5-4.6-4.5h-7.6V80H154.4z"/>
				<path class="st0" d="M181.9,66.1c0-0.5,0.4-0.9,0.9-0.9h4.3c0.5,0,0.9,0.4,0.9,0.9v26h11.8c0.5,0,0.9,0.4,0.9,0.9v3.8
					c0,0.5-0.4,0.9-0.9,0.9h-17c-0.5,0-0.9-0.4-0.9-0.9V66.1z"/>
				<path class="st0" d="M221.8,82l-10.6-15.5c-0.4-0.6,0-1.3,0.7-1.3h4.7c0.4,0,0.6,0.2,0.7,0.4l7.4,10.7l7.4-10.7
					c0.1-0.2,0.4-0.4,0.7-0.4h4.8c0.7,0,1.1,0.7,0.7,1.3L227.8,82v14.8c0,0.5-0.4,0.9-0.9,0.9h-4.3c-0.5,0-0.9-0.4-0.9-0.9V82z"/>
				<path class="st0" d="M263,66.1c0-0.5,0.4-0.9,0.9-0.9h10.6c5.5,0,9.8,3.7,9.8,8.6c0,3.6-2.9,6.3-5.1,7.4c2.5,0.8,6,3.3,6,7.6
					c0,5.2-4.4,8.9-10.1,8.9h-11.2c-0.5,0-0.9-0.4-0.9-0.9V66.1z M274,78.8c2.4,0,4-1.9,4-4.2s-1.6-3.9-4-3.9h-5v8.1H274z
					 M274.6,92.2c2.3,0,4.2-1.8,4.2-4.2c0-2.3-2.3-4-4.7-4h-5v8.2H274.6z"/>
				<path class="st0" d="M301.9,66.1c0-0.5,0.4-0.9,0.9-0.9H316c5.6,0,10.1,4.4,10.1,10c0,4.3-2.8,7.7-6.9,9.4l6.3,11.8
					c0.3,0.6,0,1.3-0.8,1.3h-4.9c-0.4,0-0.6-0.2-0.7-0.4L313,85h-5.1v11.8c0,0.5-0.4,0.9-0.9,0.9h-4.3c-0.5,0-0.9-0.4-0.9-0.9V66.1z
					 M315.5,80c2.5,0,4.6-2.1,4.6-4.7c0-2.5-2.1-4.5-4.6-4.5h-7.6V80H315.5z"/>
				<path class="st0" d="M338.7,96.5l14.4-31.2c0.1-0.3,0.4-0.5,0.8-0.5h0.5c0.5,0,0.6,0.2,0.8,0.5l14.3,31.2
					c0.3,0.6-0.1,1.2-0.8,1.2h-4c-0.7,0-1-0.3-1.3-0.9l-2.3-5h-13.9l-2.3,5c-0.2,0.5-0.6,0.9-1.3,0.9h-4
					C338.8,97.7,338.5,97.1,338.7,96.5z M358.8,86.6l-4.6-10.2H354l-4.5,10.2H358.8z"/>
				<path class="st0" d="M398.3,64.8c4.7,0,8.1,1.5,11.2,4.3c0.4,0.4,0.4,0.9,0,1.3l-2.8,2.9c-0.3,0.4-0.8,0.4-1.2,0
					c-1.9-1.7-4.5-2.7-7.1-2.7c-5.9,0-10.3,5-10.3,10.8c0,5.8,4.4,10.7,10.4,10.7c2.8,0,5.1-1.1,7.1-2.6c0.4-0.3,0.9-0.3,1.2,0
					l2.9,3c0.4,0.3,0.3,0.9,0,1.3c-3.2,3.1-7.1,4.5-11.3,4.5c-9.3,0-16.7-7.4-16.7-16.6S389,64.8,398.3,64.8z"/>
				<path class="st0" d="M425.9,66.1c0-0.5,0.4-0.9,0.9-0.9h18.9c0.5,0,0.9,0.4,0.9,0.9v3.8c0,0.5-0.4,0.9-0.9,0.9h-13.7v7.6h11.4
					c0.5,0,0.9,0.4,0.9,0.9v3.8c0,0.5-0.4,0.9-0.9,0.9h-11.4v8.1h13.7c0.5,0,0.9,0.4,0.9,0.9v3.8c0,0.5-0.4,0.9-0.9,0.9h-18.9
					c-0.5,0-0.9-0.4-0.9-0.9V66.1z"/>
			</g>
		</g>
		<g>
			<g>
				<path class="st0" d="M20.1,86.6c2.4,1.8,4.1,3.6,4.9,5.2c1.1,2.2,1.7,4.8,1.7,7.8v26c0,2.8,0.8,5,2.4,6.8c1.6,1.8,3.6,2.8,5.9,3
					c1.5,0.1,2.5,0.4,3,0.9c0.6,0.6,0.9,1.3,0.9,2.2c0,0.9-0.3,1.7-0.9,2.2c-0.6,0.6-1.5,0.8-2.8,0.8c-3.8,0-7-1.2-9.6-3.6
					c-3.4-3.3-5.1-7.4-5.1-12.2V99.6c0-2.7-0.8-4.9-2.4-6.7c-1.6-1.8-3.6-2.8-6.1-3c-1.4-0.1-2.3-0.5-2.8-1
					c-0.5-0.5-0.8-1.3-0.8-2.2c0-0.9,0.3-1.6,0.8-2.2c0.5-0.5,1.5-0.9,2.8-1c2.5-0.2,4.6-1.2,6.1-3c1.6-1.8,2.4-4,2.4-6.7V47.6
					c0-4.5,1.4-8.3,4.3-11.3c2.9-3,6.4-4.5,10.4-4.5c1.2,0,2.1,0.3,2.7,0.9c0.6,0.6,0.9,1.3,0.9,2.2s-0.3,1.6-0.9,2.2
					c-0.4,0.5-1.4,0.8-3,0.9c-2.4,0.2-4.4,1.3-6,3c-1.6,1.8-2.4,4-2.4,6.7v26.1c0,3-0.5,5.5-1.4,7.4C24.3,82.9,22.6,84.8,20.1,86.6z
					"/>
			</g>
			<g>
				<path class="st0" d="M479.9,86.6c-2.5-1.8-4.1-3.6-4.9-5.2c-1.1-2.1-1.7-4.7-1.7-7.7V47.6c0-2.7-0.8-5-2.4-6.7
					c-1.6-1.8-3.6-2.8-5.9-3c-1.5-0.1-2.5-0.4-3-0.9c-0.6-0.6-0.9-1.4-0.9-2.2s0.3-1.6,0.9-2.2c0.6-0.6,1.5-0.9,2.7-0.9
					c3.9,0,7.1,1.2,9.6,3.7c3.4,3.3,5.1,7.3,5.1,12.2v26.1c0,2.7,0.8,4.9,2.4,6.7c1.6,1.8,3.7,2.8,6.1,3c1.3,0.1,2.2,0.5,2.8,1
					c0.6,0.5,0.8,1.3,0.8,2.2c0,1-0.3,1.7-0.8,2.2c-0.6,0.5-1.5,0.9-2.8,1c-2.5,0.2-4.6,1.2-6.2,3c-1.6,1.8-2.4,4-2.4,6.7v26.1
					c0,4.5-1.4,8.3-4.3,11.3c-2.9,3-6.4,4.5-10.4,4.5c-1.2,0-2.1-0.3-2.7-0.9c-0.6-0.6-0.9-1.3-0.9-2.2c0-0.9,0.3-1.6,0.9-2.2
					c0.5-0.4,1.5-0.7,3-0.9c2.4-0.2,4.4-1.3,6-3.1c1.6-1.8,2.4-4,2.4-6.7v-26c0-3,0.5-5.5,1.4-7.4C475.7,90.3,477.4,88.4,479.9,86.6
					z"/>
			</g>
		</g>
	</g>
	<g>
		<path class="st0" d="M193.2,138l9.4-20.8c0.1-0.2,0.2-0.3,0.5-0.3h0.3c0.3,0,0.4,0.2,0.5,0.3l9.3,20.8c0.2,0.4-0.1,0.8-0.5,0.8
			h-1.2c-0.3,0-0.5-0.2-0.5-0.3l-2.3-5.1h-11l-2.3,5.1c-0.1,0.2-0.2,0.3-0.5,0.3h-1.2C193.2,138.8,193,138.4,193.2,138z
			 M207.9,131.5c-1.5-3.4-3-6.8-4.5-10.1h-0.2l-4.5,10.1H207.9z"/>
		<path class="st0" d="M221.1,126.2c1.9,0,3.3,0.7,4.4,2.2c0.2,0.3,0.2,0.6-0.1,0.9l-0.6,0.5c-0.5,0.4-0.6,0.1-0.9-0.1
			c-0.6-0.7-1.6-1.3-2.8-1.3c-2.3,0-4.1,1.9-4.1,4.4c0,2.5,1.8,4.4,4.1,4.4c1.9,0,2.6-0.9,3.3-1.6c0.4-0.4,0.6-0.3,0.9-0.1l0.3,0.2
			c0.3,0.2,0.4,0.6,0.2,0.9c-0.9,1.5-2.6,2.6-4.7,2.6c-3.4,0-6.3-2.8-6.3-6.5C214.7,129,217.7,126.2,221.1,126.2z"/>
		<path class="st0" d="M233.3,131c1.3,0,2.6,0.4,2.6,0.4c0-2.3-0.2-3.3-2-3.3c-1.7,0-3.2,0.5-3.7,0.7c-0.3,0.1-0.5,0-0.6-0.3
			l-0.2-0.8c-0.1-0.4,0.1-0.6,0.3-0.7c0.2-0.1,2-0.8,4.3-0.8c3.2,0,3.9,1.6,3.9,5.2v6.9c0,0.3-0.3,0.6-0.6,0.6h-0.6
			c-0.3,0-0.4-0.2-0.5-0.5l-0.2-0.8c-0.6,0.6-1.9,1.6-3.8,1.6c-2.2,0-3.8-1.6-3.8-4C228.4,132.8,230.2,131,233.3,131z M232.5,137.3
			c1.5,0,2.9-1,3.4-1.7v-2.4c-0.4-0.2-1.2-0.5-2.6-0.5c-1.7,0-3,0.9-3,2.5C230.4,136.3,231.2,137.3,232.5,137.3z"/>
		<path class="st0" d="M247.3,126.2c2,0,3.3,0.8,3.3,0.8v-9.2c0-0.3,0.3-0.6,0.6-0.6h1c0.3,0,0.6,0.3,0.6,0.6v20.5
			c0,0.3-0.3,0.6-0.6,0.6h-0.6c-0.3,0-0.5-0.2-0.5-0.5l-0.2-0.8c0,0-1.5,1.6-3.8,1.6c-3.2,0-5.6-3-5.6-6.5
			C241.4,129,243.6,126.2,247.3,126.2z M247.2,137.2c2.2,0,3.4-2,3.4-2V129c0,0-1.3-0.7-3-0.7c-2.7,0-4,1.9-4,4.4
			C243.5,135.1,245,137.2,247.2,137.2z"/>
		<path class="st0" d="M262.3,126.2c3.2,0,5.6,2.4,5.6,5.7c0,0.2,0,0.6-0.1,0.8c0,0.3-0.3,0.5-0.6,0.5h-8.9c0.1,2.1,1.9,4,4.1,4
			c1.3,0,2.3-0.5,3.1-0.9c0.4-0.2,0.6-0.4,0.9-0.1c0.2,0.2,0.3,0.5,0.5,0.7c0.2,0.3,0.3,0.5-0.1,0.8c-0.7,0.6-2.4,1.4-4.5,1.4
			c-3.7,0-6.1-2.9-6.1-6.5C256.3,129.2,258.6,126.2,262.3,126.2z M265.8,131.5c-0.1-1.8-1.6-3.4-3.5-3.4c-2.1,0-3.7,1.5-3.9,3.4
			H265.8z"/>
		<path class="st0" d="M271.3,127.1c0-0.3,0.3-0.6,0.6-0.6h0.6c0.3,0,0.4,0.1,0.5,0.4l0.3,1c0,0,1.5-1.6,4-1.6c1.8,0,3.2,0.7,4,2
			c0.2-0.1,2.1-2,4.6-2c3.6,0,4.8,2.3,4.8,5.6v6.5c0,0.3-0.3,0.6-0.6,0.6h-1c-0.3,0-0.6-0.3-0.6-0.6v-6.5c0-2.3-1-3.5-2.8-3.5
			c-2,0-3.3,1.3-3.8,1.7c0.1,0.5,0.2,1.1,0.2,1.8v6.5c0,0.3-0.3,0.6-0.6,0.6h-1c-0.3,0-0.6-0.3-0.6-0.6v-6.5c0-2.3-1.1-3.5-2.9-3.5
			c-2.2,0-3.5,1.8-3.5,1.8v8.2c0,0.3-0.3,0.6-0.6,0.6h-1c-0.3,0-0.6-0.3-0.6-0.6V127.1z"/>
		<path class="st0" d="M293.1,127.2c-0.2-0.4,0-0.7,0.5-0.7h1.4c0.2,0,0.4,0.2,0.5,0.3l4.6,9.5h0l4.3-9.5c0.1-0.2,0.3-0.3,0.5-0.3
			h1.2c0.5,0,0.7,0.3,0.5,0.7l-9.5,20.5c-0.1,0.2-0.3,0.4-0.5,0.4h-1.1c-0.5,0-0.7-0.3-0.5-0.8l4-8.5L293.1,127.2z"/>
	</g>
</g>
</svg>
