<?xml version="1.0" encoding="utf-8"?>
<!-- Generator: Adobe Illustrator 28.0.0, SVG Export Plug-In . SVG Version: 6.00 Build 0)  -->
<svg version="1.1" id="Layer_1" xmlns="http://www.w3.org/2000/svg" xmlns:xlink="http://www.w3.org/1999/xlink" x="0px" y="0px"
	 viewBox="0 0 500 182.1" style="enable-background:new 0 0 500 182.1;" xml:space="preserve">
<style type="text/css">
	.st0{fill:#0B0B0B;}
	.st1{font-family:'HvDTrial_BrandonGrotesque-Bold';}
	.st2{font-size:46.3321px;}
</style>
<g>
	<g>
		<g>
			<text transform="matrix(1 0 0 1 51.1189 102.0868)" class="st0 st1 st2">C U R L Y  B R A C E</text>
		</g>
		<g>
			<g>
				<path class="st0" d="M20.1,91c2.4,1.8,4.1,3.6,4.9,5.2c1.1,2.2,1.7,4.8,1.7,7.8v26c0,2.8,0.8,5,2.4,6.8c1.6,1.8,3.6,2.8,5.9,3
					c1.5,0.1,2.5,0.4,3,0.9c0.6,0.6,0.9,1.3,0.9,2.2c0,0.9-0.3,1.7-0.9,2.2c-0.6,0.6-1.5,0.8-2.8,0.8c-3.8,0-7-1.2-9.6-3.6
					c-3.4-3.3-5.1-7.4-5.1-12.2V104c0-2.7-0.8-4.9-2.4-6.7c-1.6-1.8-3.6-2.8-6.1-3c-1.4-0.1-2.3-0.5-2.8-1C8.7,92.7,8.5,92,8.5,91
					c0-0.9,0.3-1.6,0.8-2.2c0.5-0.5,1.5-0.9,2.8-1c2.5-0.2,4.6-1.2,6.1-3c1.6-1.8,2.4-4,2.4-6.7V52c0-4.5,1.4-8.3,4.3-11.3
					c2.9-3,6.4-4.5,10.4-4.5c1.2,0,2.1,0.3,2.7,0.9c0.6,0.6,0.9,1.3,0.9,2.2s-0.3,1.6-0.9,2.2c-0.4,0.5-1.4,0.8-3,0.9
					c-2.4,0.2-4.4,1.3-6,3c-1.6,1.8-2.4,4-2.4,6.7v26.1c0,3-0.5,5.5-1.4,7.4C24.3,87.3,22.6,89.2,20.1,91z"/>
			</g>
			<g>
				<path class="st0" d="M479.9,91c-2.5-1.8-4.1-3.6-4.9-5.2c-1.1-2.1-1.7-4.7-1.7-7.7V52c0-2.7-0.8-5-2.4-6.7
					c-1.6-1.8-3.6-2.8-5.9-3c-1.5-0.1-2.5-0.4-3-0.9c-0.6-0.6-0.9-1.4-0.9-2.2s0.3-1.6,0.9-2.2c0.6-0.6,1.5-0.9,2.7-0.9
					c3.9,0,7.1,1.2,9.6,3.7c3.4,3.3,5.1,7.3,5.1,12.2v26.1c0,2.7,0.8,4.9,2.4,6.7c1.6,1.8,3.7,2.8,6.1,3c1.3,0.1,2.2,0.5,2.8,1
					c0.6,0.5,0.8,1.3,0.8,2.2c0,1-0.3,1.7-0.8,2.2c-0.6,0.5-1.5,0.9-2.8,1c-2.5,0.2-4.6,1.2-6.2,3c-1.6,1.8-2.4,4-2.4,6.7v26.1
					c0,4.5-1.4,8.3-4.3,11.3c-2.9,3-6.4,4.5-10.4,4.5c-1.2,0-2.1-0.3-2.7-0.9c-0.6-0.6-0.9-1.3-0.9-2.2c0-0.9,0.3-1.6,0.9-2.2
					c0.5-0.4,1.5-0.7,3-0.9c2.4-0.2,4.4-1.3,6-3.1c1.6-1.8,2.4-4,2.4-6.7v-26c0-3,0.5-5.5,1.4-7.4C475.7,94.7,477.4,92.9,479.9,91z"
					/>
			</g>
		</g>
	</g>
</g>
</svg>
