<?xml version="1.0" encoding="utf-8"?>
<!-- Generator: Adobe Illustrator 28.0.0, SVG Export Plug-In . SVG Version: 6.00 Build 0)  -->
<svg version="1.1" id="Layer_1" xmlns="http://www.w3.org/2000/svg" xmlns:xlink="http://www.w3.org/1999/xlink" x="0px" y="0px"
	 viewBox="0 0 500 182.1" style="enable-background:new 0 0 500 182.1;" xml:space="preserve">
<style type="text/css">
	.st0{enable-background:new    ;}
	.st1{fill:#FFFFFF;}
</style>
<g>
	<g>
		<g>
			<g class="st0">
				<path class="st1" d="M69.7,69.2c4.7,0,8.1,1.5,11.2,4.3c0.4,0.4,0.4,0.9,0,1.3l-2.8,2.9c-0.3,0.4-0.8,0.4-1.2,0
					C75,76,72.4,75,69.8,75c-5.9,0-10.3,5-10.3,10.8c0,5.8,4.4,10.7,10.4,10.7c2.8,0,5.1-1.1,7.1-2.6c0.4-0.3,0.9-0.3,1.2,0l2.9,3
					c0.4,0.3,0.3,0.9,0,1.3c-3.2,3.1-7.1,4.5-11.3,4.5c-9.3,0-16.7-7.4-16.7-16.6C53,76.7,60.4,69.2,69.7,69.2z"/>
				<path class="st1" d="M96.8,70.5c0-0.5,0.4-0.9,0.9-0.9h4.4c0.5,0,0.9,0.4,0.9,0.9v18.9c0,3.9,2.7,7,6.7,7s6.8-3.1,6.8-7v-19
					c0-0.5,0.4-0.9,0.9-0.9h4.4c0.5,0,0.9,0.4,0.9,0.9v19.3c0,7-5.6,12.7-12.9,12.7c-7.3,0-12.9-5.7-12.9-12.7V70.5z"/>
				<path class="st1" d="M140.8,70.5c0-0.5,0.4-0.9,0.9-0.9h13.2c5.6,0,10.1,4.4,10.1,10c0,4.3-2.8,7.7-6.9,9.4l6.3,11.8
					c0.3,0.6,0,1.3-0.8,1.3h-4.9c-0.4,0-0.6-0.2-0.7-0.4L152,89.4h-5.1v11.8c0,0.5-0.4,0.9-0.9,0.9h-4.3c-0.5,0-0.9-0.4-0.9-0.9
					V70.5z M154.4,84.4c2.5,0,4.6-2.1,4.6-4.7c0-2.5-2.1-4.5-4.6-4.5h-7.6v9.2H154.4z"/>
				<path class="st1" d="M181.9,70.5c0-0.5,0.4-0.9,0.9-0.9h4.3c0.5,0,0.9,0.4,0.9,0.9v26h11.8c0.5,0,0.9,0.4,0.9,0.9v3.8
					c0,0.5-0.4,0.9-0.9,0.9h-17c-0.5,0-0.9-0.4-0.9-0.9V70.5z"/>
				<path class="st1" d="M221.8,86.5L211.2,71c-0.4-0.6,0-1.3,0.7-1.3h4.7c0.4,0,0.6,0.2,0.7,0.4l7.4,10.7l7.4-10.7
					c0.1-0.2,0.4-0.4,0.7-0.4h4.8c0.7,0,1.1,0.7,0.7,1.3l-10.7,15.4v14.8c0,0.5-0.4,0.9-0.9,0.9h-4.3c-0.5,0-0.9-0.4-0.9-0.9V86.5z"
					/>
				<path class="st1" d="M263,70.5c0-0.5,0.4-0.9,0.9-0.9h10.6c5.5,0,9.8,3.7,9.8,8.6c0,3.6-2.9,6.3-5.1,7.4c2.5,0.8,6,3.3,6,7.6
					c0,5.2-4.4,8.9-10.1,8.9h-11.2c-0.5,0-0.9-0.4-0.9-0.9V70.5z M274,83.3c2.4,0,4-1.9,4-4.2s-1.6-3.9-4-3.9h-5v8.1H274z
					 M274.6,96.6c2.3,0,4.2-1.8,4.2-4.2c0-2.3-2.3-4-4.7-4h-5v8.2H274.6z"/>
				<path class="st1" d="M301.9,70.5c0-0.5,0.4-0.9,0.9-0.9H316c5.6,0,10.1,4.4,10.1,10c0,4.3-2.8,7.7-6.9,9.4l6.3,11.8
					c0.3,0.6,0,1.3-0.8,1.3h-4.9c-0.4,0-0.6-0.2-0.7-0.4L313,89.4h-5.1v11.8c0,0.5-0.4,0.9-0.9,0.9h-4.3c-0.5,0-0.9-0.4-0.9-0.9
					V70.5z M315.5,84.4c2.5,0,4.6-2.1,4.6-4.7c0-2.5-2.1-4.5-4.6-4.5h-7.6v9.2H315.5z"/>
				<path class="st1" d="M338.7,100.9l14.4-31.2c0.1-0.3,0.4-0.5,0.8-0.5h0.5c0.5,0,0.6,0.2,0.8,0.5l14.3,31.2
					c0.3,0.6-0.1,1.2-0.8,1.2h-4c-0.7,0-1-0.3-1.3-0.9l-2.3-5h-13.9l-2.3,5c-0.2,0.5-0.6,0.9-1.3,0.9h-4
					C338.8,102.1,338.5,101.5,338.7,100.9z M358.8,91l-4.6-10.2H354L349.4,91H358.8z"/>
				<path class="st1" d="M398.3,69.2c4.7,0,8.1,1.5,11.2,4.3c0.4,0.4,0.4,0.9,0,1.3l-2.8,2.9c-0.3,0.4-0.8,0.4-1.2,0
					c-1.9-1.7-4.5-2.7-7.1-2.7c-5.9,0-10.3,5-10.3,10.8c0,5.8,4.4,10.7,10.4,10.7c2.8,0,5.1-1.1,7.1-2.6c0.4-0.3,0.9-0.3,1.2,0
					l2.9,3c0.4,0.3,0.3,0.9,0,1.3c-3.2,3.1-7.1,4.5-11.3,4.5c-9.3,0-16.7-7.4-16.7-16.6C381.6,76.7,389,69.2,398.3,69.2z"/>
				<path class="st1" d="M425.8,70.5c0-0.5,0.4-0.9,0.9-0.9h18.9c0.5,0,0.9,0.4,0.9,0.9v3.8c0,0.5-0.4,0.9-0.9,0.9h-13.7v7.6h11.4
					c0.5,0,0.9,0.4,0.9,0.9v3.8c0,0.5-0.4,0.9-0.9,0.9h-11.4v8.1h13.7c0.5,0,0.9,0.4,0.9,0.9v3.8c0,0.5-0.4,0.9-0.9,0.9h-18.9
					c-0.5,0-0.9-0.4-0.9-0.9V70.5z"/>
			</g>
		</g>
		<g>
			<g>
				<path class="st1" d="M20.1,91c2.4,1.8,4.1,3.6,4.9,5.2c1.1,2.2,1.7,4.8,1.7,7.8v26c0,2.8,0.8,5,2.4,6.8s3.6,2.8,5.9,3
					c1.5,0.1,2.5,0.4,3,0.9c0.6,0.6,0.9,1.3,0.9,2.2s-0.3,1.7-0.9,2.2c-0.6,0.6-1.5,0.8-2.8,0.8c-3.8,0-7-1.2-9.6-3.6
					c-3.4-3.3-5.1-7.4-5.1-12.2V104c0-2.7-0.8-4.9-2.4-6.7c-1.6-1.8-3.6-2.8-6.1-3c-1.4-0.1-2.3-0.5-2.8-1C8.7,92.7,8.5,92,8.5,91
					c0-0.9,0.3-1.6,0.8-2.2c0.5-0.5,1.5-0.9,2.8-1c2.5-0.2,4.6-1.2,6.1-3c1.6-1.8,2.4-4,2.4-6.7V52c0-4.5,1.4-8.3,4.3-11.3
					s6.4-4.5,10.4-4.5c1.2,0,2.1,0.3,2.7,0.9c0.6,0.6,0.9,1.3,0.9,2.2s-0.3,1.6-0.9,2.2c-0.4,0.5-1.4,0.8-3,0.9
					c-2.4,0.2-4.4,1.3-6,3c-1.6,1.8-2.4,4-2.4,6.7v26.1c0,3-0.5,5.5-1.4,7.4C24.3,87.3,22.6,89.2,20.1,91z"/>
			</g>
			<g>
				<path class="st1" d="M479.9,91c-2.5-1.8-4.1-3.6-4.9-5.2c-1.1-2.1-1.7-4.7-1.7-7.7V52c0-2.7-0.8-5-2.4-6.7
					c-1.6-1.8-3.6-2.8-5.9-3c-1.5-0.1-2.5-0.4-3-0.9c-0.6-0.6-0.9-1.4-0.9-2.2s0.3-1.6,0.9-2.2c0.6-0.6,1.5-0.9,2.7-0.9
					c3.9,0,7.1,1.2,9.6,3.7c3.4,3.3,5.1,7.3,5.1,12.2v26.1c0,2.7,0.8,4.9,2.4,6.7c1.6,1.8,3.7,2.8,6.1,3c1.3,0.1,2.2,0.5,2.8,1
					c0.6,0.5,0.8,1.3,0.8,2.2c0,1-0.3,1.7-0.8,2.2c-0.6,0.5-1.5,0.9-2.8,1c-2.5,0.2-4.6,1.2-6.2,3s-2.4,4-2.4,6.7V130
					c0,4.5-1.4,8.3-4.3,11.3s-6.4,4.5-10.4,4.5c-1.2,0-2.1-0.3-2.7-0.9c-0.6-0.6-0.9-1.3-0.9-2.2s0.3-1.6,0.9-2.2
					c0.5-0.4,1.5-0.7,3-0.9c2.4-0.2,4.4-1.3,6-3.1s2.4-4,2.4-6.7v-26c0-3,0.5-5.5,1.4-7.4C475.7,94.7,477.4,92.9,479.9,91z"/>
			</g>
		</g>
	</g>
</g>
</svg>
