<?xml version="1.0" encoding="UTF-8"?>
<svg version="1.1" xmlns="http://www.w3.org/2000/svg" width="745" height="178">
<path d="M0 0 C0.75539062 -0.01675781 1.51078125 -0.03351562 2.2890625 -0.05078125 C4.92102628 0.40759447 5.78950141 1.19189563 7.375 3.3125 C7.75 6.375 7.75 6.375 7.375 9.3125 C4.49783687 11.23060876 2.72257263 11.81978671 -0.5625 12.625 C-5.01850683 13.90464044 -7.23996179 15.16460747 -9.625 19.3125 C-10.59215054 22.21395161 -10.75983896 24.09626142 -10.78271484 27.1159668 C-10.79810806 28.578451 -10.79810806 28.578451 -10.81381226 30.07048035 C-10.82111359 31.12358902 -10.82841492 32.17669769 -10.8359375 33.26171875 C-10.86401499 35.49414785 -10.89267951 37.72656962 -10.921875 39.95898438 C-10.96306403 43.47647833 -10.99995372 46.99383694 -11.02636719 50.51147461 C-11.05407763 53.90767652 -11.09995937 57.30325808 -11.1484375 60.69921875 C-11.15169037 61.74220627 -11.15494324 62.78519379 -11.15829468 63.85978699 C-11.27332396 70.73906263 -11.90228659 76.76171073 -16.23046875 82.40625 C-17.6953125 83.70833333 -19.16015625 85.01041667 -20.625 86.3125 C-20.14289062 86.80878906 -19.66078125 87.30507812 -19.1640625 87.81640625 C-18.53242188 88.49574219 -17.90078125 89.17507812 -17.25 89.875 C-16.31027344 90.86693359 -16.31027344 90.86693359 -15.3515625 91.87890625 C-10.90307117 98.14906485 -11.33162177 105.33732819 -11.31640625 112.72265625 C-11.29125871 114.95117463 -11.26586052 117.1796902 -11.24023438 119.40820312 C-11.21145396 122.89948877 -11.18741571 126.39072578 -11.16870117 129.88208008 C-11.14704008 133.26668464 -11.10761618 136.6507415 -11.06640625 140.03515625 C-11.06629044 141.07591812 -11.06617462 142.11667999 -11.0660553 143.1889801 C-10.99188572 148.62704641 -10.74807067 152.64566295 -7.625 157.3125 C-4.72376275 159.6334898 -1.99095037 160.53169928 1.5625 161.375 C5.375 162.3125 5.375 162.3125 7.375 164.3125 C7.6875 167.3125 7.6875 167.3125 7.375 170.3125 C3.30175356 173.02799762 0.15343474 172.82305062 -4.625 172.3125 C-11.87347419 169.9782456 -16.69369679 166.48905517 -20.26708984 159.84228516 C-23.03237564 154.12443152 -23.31065487 149.16957072 -23.2265625 142.8984375 C-23.23456879 141.84395416 -23.24257507 140.78947083 -23.25082397 139.70303345 C-23.27372647 136.36412187 -23.26449194 133.02644217 -23.25 129.6875 C-23.24613977 126.34164904 -23.249681 122.99633454 -23.27059937 119.65054321 C-23.28259561 117.57812668 -23.2801744 115.5055586 -23.26089478 113.43319702 C-23.28569348 107.00145105 -23.63292318 100.73627918 -28.07852173 95.64926147 C-30.13971065 93.86758889 -32.06249791 93.42654693 -34.6875 92.75 C-39.41666667 91.52083333 -39.41666667 91.52083333 -41.625 89.3125 C-41.875 86.3125 -41.875 86.3125 -41.625 83.3125 C-38.67561447 80.36311447 -35.24375988 80.12113246 -31.25390625 79.19140625 C-28.40309353 78.23831136 -27.32661472 77.76344964 -25.625 75.3125 C-23.38365195 69.18316226 -23.34530479 63.45289856 -23.3515625 56.97265625 C-23.33127752 54.75325013 -23.31042682 52.53384912 -23.2890625 50.31445312 C-23.26646681 46.84085755 -23.24998732 43.36746455 -23.24414062 39.89379883 C-23.2345921 36.52388582 -23.20079362 33.15486759 -23.1640625 29.78515625 C-23.16910797 28.75471695 -23.17415344 27.72427765 -23.17935181 26.66261292 C-23.07574361 19.0240454 -21.55477567 13.61439386 -16.44140625 7.8515625 C-15.69761719 7.21992187 -14.95382813 6.58828125 -14.1875 5.9375 C-13.44628906 5.29039062 -12.70507812 4.64328125 -11.94140625 3.9765625 C-8.11958269 1.23103664 -4.69957157 0.0242246 0 0 Z " fill="#FFFFFF" transform="translate(41.625,-0.3125)"/>
<path d="M0 0 C7.0117946 0.99191241 11.33911289 4.83944716 15.859375 10.046875 C20.46737124 16.89470738 20.83216355 22.63574433 20.80859375 30.71484375 C20.81942993 31.79813965 20.83026611 32.88143555 20.84143066 33.99755859 C20.88711311 38.609658 20.89874994 43.22169943 20.91357422 47.83398438 C20.9293063 51.21113869 20.96231356 54.58782944 20.99609375 57.96484375 C20.99307251 59.00044434 20.99005127 60.03604492 20.98693848 61.10302734 C21.05439062 67.62680545 21.483745 73.08448361 26.02734375 78.15234375 C29.0609855 79.66916463 32.04955166 80.23179862 35.37890625 80.8125 C37.40234375 81.33984375 37.40234375 81.33984375 39.40234375 83.33984375 C39.77734375 86.27734375 39.77734375 86.27734375 39.40234375 89.33984375 C37.0658042 92.082738 34.24676642 92.71757768 30.90234375 93.71484375 C26.71734915 95.02953778 24.67846459 96.45147065 22.40234375 100.33984375 C21.45003232 103.35665188 21.27333095 106.10257798 21.26049805 109.25683594 C21.25346359 110.23174988 21.24642914 111.20666382 21.23918152 112.21112061 C21.23501724 113.25906799 21.23085297 114.30701538 21.2265625 115.38671875 C21.20336131 117.61589483 21.17924385 119.84506152 21.15429688 122.07421875 C21.11922132 125.58079284 21.08985456 129.08702201 21.07641602 132.59375 C21.06089083 135.98349572 21.02064949 139.37223956 20.9765625 142.76171875 C20.97847092 143.80156921 20.98037933 144.84141968 20.98234558 145.91278076 C20.83725402 154.60126246 18.42689716 160.96090484 12.40234375 167.33984375 C7.4860229 171.02708439 3.91708863 172.47592882 -2.16015625 172.52734375 C-2.92457031 172.54152344 -3.68898438 172.55570313 -4.4765625 172.5703125 C-6.59765625 172.33984375 -6.59765625 172.33984375 -9.59765625 170.33984375 C-10.25384732 165.19968033 -10.25384732 165.19968033 -8.3515625 162.70703125 C-6.24896944 161.06803888 -4.78032346 160.79558976 -2.16015625 160.40234375 C1.84475602 159.61566455 3.90776962 158.73246457 6.40234375 155.33984375 C8.25132162 152.22756721 8.65249843 149.95194782 8.65771484 146.34692383 C8.66815323 144.85936333 8.66815323 144.85936333 8.67880249 143.3417511 C8.67780548 142.27506699 8.67680847 141.20838287 8.67578125 140.109375 C8.6960784 137.83918785 8.71692933 135.5690056 8.73828125 133.29882812 C8.7608319 129.72871777 8.77733313 126.15880122 8.78320312 122.58862305 C8.79276813 119.13685233 8.82660352 115.68594967 8.86328125 112.234375 C8.85823578 111.17781204 8.85319031 110.12124908 8.84799194 109.03266907 C8.95313879 101.04577994 10.39588537 94.13212653 16.15234375 88.27734375 C16.89484375 87.63796875 17.63734375 86.99859375 18.40234375 86.33984375 C17.67917969 85.57800781 17.67917969 85.57800781 16.94140625 84.80078125 C16.30976562 84.11242187 15.678125 83.4240625 15.02734375 82.71484375 C14.40085937 82.04195313 13.774375 81.3690625 13.12890625 80.67578125 C8.70457586 74.68992248 9.10835293 68.15055018 9.09375 61.02734375 C9.06859851 58.79557021 9.04320036 56.56379944 9.01757812 54.33203125 C8.98881052 50.82975939 8.96477792 47.3275354 8.94604492 43.82519531 C8.92437974 40.43399965 8.88495011 37.04335013 8.84375 33.65234375 C8.84363419 32.60844482 8.84351837 31.5645459 8.84339905 30.48901367 C8.7565057 24.09702255 7.98931864 19.7522921 4.03125 14.53125 C1.85612909 12.94033423 -0.00869609 12.67955347 -2.66015625 12.27734375 C-7.38932292 11.54817708 -7.38932292 11.54817708 -9.59765625 9.33984375 C-10.15720213 4.08011252 -10.15720213 4.08011252 -8.33984375 1.67578125 C-5.61026796 -0.41730153 -3.33762311 -0.13523594 0 0 Z " fill="#FFFFFF" transform="translate(705.59765625,-0.33984375)"/>
<path d="M0 0 C1.03382813 -0.02900391 2.06765625 -0.05800781 3.1328125 -0.08789062 C11.01948778 -0.1532776 15.48056168 1.00738901 21.25 6.625 C23.30742266 10.02766055 23.80639975 12.33368565 23.875 16.3125 C22.45402087 20.50438843 20.72224682 23.92292046 17.875 27.3125 C18.844375 28.09625 19.81375 28.88 20.8125 29.6875 C23.31124869 31.7077649 24.70896989 32.95159744 25.11328125 36.265625 C25.29213054 41.80053975 24.80613033 45.08653489 20.875 49.3125 C14.48799904 53.93373607 8.06486139 53.8311449 0.4375 53.625 C-0.66271484 53.61533203 -1.76292969 53.60566406 -2.89648438 53.59570312 C-10.95629699 53.48120301 -10.95629699 53.48120301 -12.125 52.3125 C-12.22354422 50.7218669 -12.25298694 49.12688523 -12.25439453 47.53320312 C-12.25754669 46.515448 -12.26069885 45.49769287 -12.26394653 44.44909668 C-12.2619223 43.34183228 -12.25989807 42.23456787 -12.2578125 41.09375 C-12.25876923 39.96553833 -12.25972595 38.83732666 -12.26071167 37.67492676 C-12.26139368 35.28409774 -12.25953797 32.89326689 -12.25537109 30.50244141 C-12.25002316 26.82840849 -12.25531543 23.15449783 -12.26171875 19.48046875 C-12.26105797 17.16406223 -12.25977682 14.84765578 -12.2578125 12.53125 C-12.26084885 10.87035339 -12.26084885 10.87035339 -12.26394653 9.17590332 C-12.26079437 8.15814819 -12.25764221 7.14039307 -12.25439453 6.09179688 C-12.25359894 5.19102417 -12.25280334 4.29025146 -12.25198364 3.36218262 C-11.92486112 -1.91800414 -3.99892096 0.0365755 0 0 Z M-1.125 10.3125 C-1.125 14.2725 -1.125 18.2325 -1.125 22.3125 C0.64875 22.35375 2.4225 22.395 4.25 22.4375 C5.24773437 22.46070313 6.24546875 22.48390625 7.2734375 22.5078125 C10.03762173 22.58466848 10.03762173 22.58466848 11.875 20.3125 C12.41012772 15.70894758 12.41012772 15.70894758 10.6796875 11.6015625 C8.2460717 9.8632655 6.645827 10.00974051 3.6875 10.125 C2.099375 10.186875 0.51125 10.24875 -1.125 10.3125 Z M-1.125 32.3125 C-1.125 35.9425 -1.125 39.5725 -1.125 43.3125 C1.5046875 43.374375 1.5046875 43.374375 4.1875 43.4375 C5.66669922 43.47230469 5.66669922 43.47230469 7.17578125 43.5078125 C10.09906527 43.51932639 10.09906527 43.51932639 12.875 41.3125 C13.29166667 37.8125 13.29166667 37.8125 12.875 34.3125 C11.0121051 32.01189466 11.0121051 32.01189466 8.0546875 32.1171875 C6.96414063 32.14039062 5.87359375 32.16359375 4.75 32.1875 C3.10644531 32.21457031 3.10644531 32.21457031 1.4296875 32.2421875 C0.58664062 32.26539062 -0.25640625 32.28859375 -1.125 32.3125 Z " fill="#FFFFFF" transform="translate(404.125,50.6875)"/>
<path d="M0 0 C4.37487331 -0.08738991 8.74952078 -0.140524 13.125 -0.1875 C14.3625 -0.21263672 15.6 -0.23777344 16.875 -0.26367188 C18.07382813 -0.27333984 19.27265625 -0.28300781 20.5078125 -0.29296875 C21.60754395 -0.3086792 22.70727539 -0.32438965 23.84033203 -0.34057617 C29.11457893 0.22792749 32.98564188 2.41092372 36.3125 6.5 C37.04919922 7.38171875 37.04919922 7.38171875 37.80078125 8.28125 C40.41211044 12.02387164 40.36815597 15.58212833 40 20 C37.50977541 25.55511639 34.70012086 28.22702627 30 32 C30.27263672 32.4940332 30.54527344 32.98806641 30.82617188 33.49707031 C32.05948803 35.7433923 33.27982136 37.99651692 34.5 40.25 C34.92925781 41.02730469 35.35851562 41.80460937 35.80078125 42.60546875 C36.20683594 43.35957031 36.61289063 44.11367187 37.03125 44.890625 C37.59682617 45.92751465 37.59682617 45.92751465 38.17382812 46.98535156 C39 49 39 49 39 53 C35.37 53 31.74 53 28 53 C26.32834044 49.87757874 24.66249811 46.75229374 23 43.625 C22.52304688 42.73554687 22.04609375 41.84609375 21.5546875 40.9296875 C21.10351562 40.07890625 20.65234375 39.228125 20.1875 38.3515625 C19.76855469 37.56604004 19.34960938 36.78051758 18.91796875 35.97119141 C18 34 18 34 18 32 C15.69 32 13.38 32 11 32 C11.00523682 32.60062256 11.01047363 33.20124512 11.01586914 33.82006836 C11.03658014 36.52586838 11.04964125 39.23165177 11.0625 41.9375 C11.07087891 42.88302734 11.07925781 43.82855469 11.08789062 44.80273438 C11.09111328 45.70185547 11.09433594 46.60097656 11.09765625 47.52734375 C11.10289307 48.35999756 11.10812988 49.19265137 11.11352539 50.05053711 C11 52 11 52 10 53 C8.50261876 53.0979057 7.00057108 53.12974864 5.5 53.125 C4.6853125 53.12757812 3.870625 53.13015625 3.03125 53.1328125 C1 53 1 53 0 52 C-0.09340434 50.37325222 -0.11745171 48.74245949 -0.11352539 47.11303711 C-0.11344986 46.07203354 -0.11337433 45.03102997 -0.11329651 43.95848083 C-0.10813522 42.8262056 -0.10297394 41.69393036 -0.09765625 40.52734375 C-0.0962413 39.37456436 -0.09482635 38.22178497 -0.09336853 37.03407288 C-0.08775005 33.33518936 -0.07519442 29.63636536 -0.0625 25.9375 C-0.05748738 23.43684983 -0.05292406 20.93619871 -0.04882812 18.43554688 C-0.03777462 12.29034412 -0.02101852 6.14517631 0 0 Z M11 10 C11 14.29 11 18.58 11 23 C13.24893954 23.10823773 15.49937575 23.18569645 17.75 23.25 C19.62945312 23.31960937 19.62945312 23.31960937 21.546875 23.390625 C25.04151015 23.28834584 25.04151015 23.28834584 27.453125 21.17578125 C29.29575451 19.02893777 29.29575451 19.02893777 29 15.9375 C27.82743004 12.49307575 27.12834736 11.76099024 24 10 C20.72283998 9.63791904 20.72283998 9.63791904 17.25 9.8125 C15.1875 9.874375 13.125 9.93625 11 10 Z " fill="#FFFFFF" transform="translate(198,51)"/>
<path d="M0 0 C1.16853516 -0.02900391 2.33707031 -0.05800781 3.54101562 -0.08789062 C10.67103715 -0.14016941 15.42564845 0.37076714 21.4375 4.3125 C25.62864521 9.57829782 26.89181666 13.61132928 26.4375 20.3125 C24.66387011 24.97994709 22.19240223 28.03899549 18.4375 31.3125 C17.7775 31.3125 17.1175 31.3125 16.4375 31.3125 C17.00339844 32.39789063 17.56929688 33.48328125 18.15234375 34.6015625 C18.89365759 36.0466553 19.63451918 37.49198017 20.375 38.9375 C20.74818359 39.65035156 21.12136719 40.36320312 21.50585938 41.09765625 C23.58533988 45.18168102 24.97744321 48.6827221 25.4375 53.3125 C21.8075 53.3125 18.1775 53.3125 14.4375 53.3125 C13.14256805 50.91838163 11.85147828 48.5223212 10.5625 46.125 C10.19769531 45.45146484 9.83289063 44.77792969 9.45703125 44.08398438 C7.56390594 40.5558872 5.82669466 37.07794867 4.4375 33.3125 C2.1275 32.9825 -0.1825 32.6525 -2.5625 32.3125 C-2.55726318 32.91312256 -2.55202637 33.51374512 -2.54663086 34.13256836 C-2.52591986 36.83836838 -2.51285875 39.54415177 -2.5 42.25 C-2.49162109 43.19552734 -2.48324219 44.14105469 -2.47460938 45.11523438 C-2.47138672 46.01435547 -2.46816406 46.91347656 -2.46484375 47.83984375 C-2.45960693 48.67249756 -2.45437012 49.50515137 -2.44897461 50.36303711 C-2.5625 52.3125 -2.5625 52.3125 -3.5625 53.3125 C-5.05988124 53.4104057 -6.56192892 53.44224864 -8.0625 53.4375 C-8.8771875 53.44007812 -9.691875 53.44265625 -10.53125 53.4453125 C-12.5625 53.3125 -12.5625 53.3125 -13.5625 52.3125 C-13.66104422 50.7218669 -13.69048694 49.12688523 -13.69189453 47.53320312 C-13.69504669 46.515448 -13.69819885 45.49769287 -13.70144653 44.44909668 C-13.6994223 43.34183228 -13.69739807 42.23456787 -13.6953125 41.09375 C-13.69626923 39.96553833 -13.69722595 38.83732666 -13.69821167 37.67492676 C-13.69889368 35.28409774 -13.69703797 32.89326689 -13.69287109 30.50244141 C-13.68752316 26.82840849 -13.69281543 23.15449783 -13.69921875 19.48046875 C-13.69855797 17.16406223 -13.69727682 14.84765578 -13.6953125 12.53125 C-13.69834885 10.87035339 -13.69834885 10.87035339 -13.70144653 9.17590332 C-13.69829437 8.15814819 -13.69514221 7.14039307 -13.69189453 6.09179688 C-13.69109894 5.19102417 -13.69030334 4.29025146 -13.68948364 3.36218262 C-13.34960167 -2.12395834 -4.10906909 0.03322697 0 0 Z M-2.5625 10.3125 C-2.5625 14.6025 -2.5625 18.8925 -2.5625 23.3125 C-0.31356046 23.42073773 1.93687575 23.49819645 4.1875 23.5625 C6.06695312 23.63210937 6.06695312 23.63210937 7.984375 23.703125 C11.48351214 23.60842411 11.48351214 23.60842411 13.85546875 21.453125 C15.59395452 19.40184728 15.59395452 19.40184728 16 16.8125 C15.18468558 13.18888034 13.51868851 12.29445369 10.4375 10.3125 C7.08755199 9.83170481 7.08755199 9.83170481 3.625 10.0625 C0.5621875 10.18625 0.5621875 10.18625 -2.5625 10.3125 Z " fill="#FFFFFF" transform="translate(465.5625,50.6875)"/>
<path d="M0 0 C0.8146875 0.00257812 1.629375 0.00515625 2.46875 0.0078125 C3.2834375 0.00523438 4.098125 0.00265625 4.9375 0 C6.96875 0.1328125 6.96875 0.1328125 7.96875 1.1328125 C8.10414966 3.58162299 8.17929871 6.00620694 8.21484375 8.45703125 C8.24780563 9.97591671 8.28101685 11.49479678 8.31445312 13.01367188 C8.36170936 15.41198697 8.40608496 17.81028397 8.44555664 20.20874023 C8.48550834 22.52091484 8.53702108 24.83261974 8.58984375 27.14453125 C8.5982579 27.85413498 8.60667206 28.56373871 8.61534119 29.29484558 C8.72092669 33.59024295 9.40684283 37.13215856 10.96875 41.1328125 C12.55004029 41.35612449 14.13396089 41.56085894 15.71875 41.7578125 C16.60046875 41.87382813 17.4821875 41.98984375 18.390625 42.109375 C21.28688317 42.13570462 22.61490817 41.80096997 24.96875 40.1328125 C27.51845447 36.43491189 27.29858797 32.44700163 27.34765625 28.12109375 C27.36465073 27.35226364 27.3816452 26.58343353 27.39915466 25.79130554 C27.45216665 23.34272393 27.49254731 20.89415882 27.53125 18.4453125 C27.57514777 15.98583788 27.62177782 13.52649555 27.67405701 11.06718445 C27.70607185 9.53816179 27.73294389 8.00902147 27.75428772 6.47981262 C27.85697527 1.24458723 27.85697527 1.24458723 28.96875 0.1328125 C30.46613124 0.0349068 31.96817892 0.00306386 33.46875 0.0078125 C34.2834375 0.00523438 35.098125 0.00265625 35.9375 0 C37.96875 0.1328125 37.96875 0.1328125 38.96875 1.1328125 C39.26220737 6.41987418 39.28297296 11.70972445 39.31884766 17.00415039 C39.33533449 18.78585946 39.36252752 20.5675044 39.40087891 22.34887695 C39.45603824 24.92433825 39.4775869 27.49824384 39.4921875 30.07421875 C39.51485687 30.86099503 39.53752625 31.6477713 39.56088257 32.45838928 C39.53568286 39.15131515 37.12657714 43.86368409 32.49032593 48.66334534 C27.13946058 53.39137936 22.51745943 54.61797678 15.52734375 54.44140625 C8.76826723 53.62618939 4.44009707 50.12205995 0.1953125 45.01171875 C-3.05720864 40.02935357 -3.31533321 35.40876047 -3.26171875 29.5859375 C-3.26126053 28.77413025 -3.26080231 27.962323 -3.2603302 27.12591553 C-3.25731946 25.41807586 -3.24946858 23.71023865 -3.23706055 22.00244141 C-3.21871519 19.3778318 -3.21655162 16.75357351 -3.21679688 14.12890625 C-3.21188463 12.46874693 -3.20605759 10.80859 -3.19921875 9.1484375 C-3.19754951 7.96571259 -3.19754951 7.96571259 -3.19584656 6.75909424 C-3.13813799 0.20518595 -3.13813799 0.20518595 0 0 Z " fill="#FFFFFF" transform="translate(134.03125,50.8671875)"/>
<path d="M0 0 C1.39120471 0.00015906 2.78241534 0.00585033 4.17358398 0.01586914 C4.90463852 0.01728409 5.63569305 0.01869904 6.38890076 0.02015686 C8.73253406 0.02577131 11.07607313 0.03832617 13.41967773 0.05102539 C15.00496282 0.05603853 16.59024939 0.06060176 18.17553711 0.06469727 C22.06945383 0.07574542 25.96329979 0.09301967 29.85717773 0.11352539 C29.85717773 3.41352539 29.85717773 6.71352539 29.85717773 10.11352539 C22.26717773 10.11352539 14.67717773 10.11352539 6.85717773 10.11352539 C6.85717773 14.07352539 6.85717773 18.03352539 6.85717773 22.11352539 C13.45717773 22.11352539 20.05717773 22.11352539 26.85717773 22.11352539 C26.85717773 25.08352539 26.85717773 28.05352539 26.85717773 31.11352539 C25.85717773 32.11352539 25.85717773 32.11352539 23.99951172 32.22705078 C23.20875244 32.22181396 22.41799316 32.21657715 21.60327148 32.21118164 C20.74926758 32.20795898 19.89526367 32.20473633 19.01538086 32.20141602 C18.11754883 32.19303711 17.2197168 32.1846582 16.29467773 32.17602539 C15.39297852 32.17151367 14.4912793 32.16700195 13.56225586 32.16235352 C11.32720184 32.15052783 9.09218171 32.13259178 6.85717773 32.11352539 C6.85717773 35.74352539 6.85717773 39.37352539 6.85717773 43.11352539 C14.44717773 43.11352539 22.03717773 43.11352539 29.85717773 43.11352539 C29.85717773 46.41352539 29.85717773 49.71352539 29.85717773 53.11352539 C25.1757852 53.13817827 20.49443014 53.15636278 15.81298828 53.16845703 C14.21923159 53.17349696 12.62547954 53.18032889 11.03173828 53.18896484 C8.74567521 53.20104538 6.45967306 53.20675694 4.17358398 53.21118164 C3.45691055 53.21634293 2.74023712 53.22150421 2.00184631 53.2268219 C0.28654101 53.22701802 -1.42863493 53.17544546 -3.14282227 53.11352539 C-4.78369971 51.47264794 -4.27021982 49.59521477 -4.2722168 47.33422852 C-4.27536896 46.31647339 -4.27852112 45.29871826 -4.2817688 44.25012207 C-4.27974457 43.14285767 -4.27772034 42.03559326 -4.27563477 40.89477539 C-4.27659149 39.76656372 -4.27754822 38.63835205 -4.27853394 37.47595215 C-4.27921594 35.08512313 -4.27736024 32.69429228 -4.27319336 30.3034668 C-4.26784542 26.62943388 -4.27313769 22.95552322 -4.27954102 19.28149414 C-4.27888024 16.96508762 -4.27759908 14.64868117 -4.27563477 12.33227539 C-4.27867111 10.67137878 -4.27867111 10.67137878 -4.2817688 8.97692871 C-4.27861664 7.95917358 -4.27546448 6.94141846 -4.2722168 5.89282227 C-4.2714212 4.99204956 -4.27062561 4.09127686 -4.26980591 3.16320801 C-4.06020151 -0.220082 -3.47323295 0.12546052 0 0 Z " fill="#FFFFFF" transform="translate(643.142822265625,50.886474609375)"/>
<path d="M0 0 C1.32 0 2.64 0 4 0 C4.48355957 1.05276123 4.96711914 2.10552246 5.46533203 3.19018555 C7.28796751 7.15817615 9.11075903 11.12609506 10.93359375 15.09399414 C11.71716387 16.79970426 12.50069366 18.5054329 13.28417969 20.21118164 C14.04532503 21.86827877 14.80669642 23.52527209 15.56829834 25.18215942 C16.31771934 26.81434681 17.06565247 28.4472182 17.81207275 30.08078003 C19.48119617 33.72847003 21.16533415 37.36408726 22.92871094 40.96728516 C23.4859082 42.11890137 24.04310547 43.27051758 24.6171875 44.45703125 C25.10558105 45.44292236 25.59397461 46.42881348 26.09716797 47.44458008 C27.0660197 50.18686538 27.04659566 51.33311046 26 54 C22.96693288 54.22891073 20.02741255 54.33937187 17 54 C14.03028701 51.41347579 13.51459496 48.78648739 12 45 C5.4 45 -1.2 45 -8 45 C-10.475 49.455 -10.475 49.455 -13 54 C-16.3 54 -19.6 54 -23 54 C-22.41598706 48.98527558 -20.78470093 44.79134622 -18.6875 40.25 C-18.3457373 39.4957373 -18.00397461 38.74147461 -17.65185547 37.96435547 C-16.44320673 35.30553963 -15.22212288 32.65264892 -14 30 C-13.49839355 28.90655273 -12.99678711 27.81310547 -12.47998047 26.68652344 C-2.49182034 4.9156688 -2.49182034 4.9156688 0 0 Z M1 21 C-1.97 27.93 -1.97 27.93 -5 35 C-0.71 35 3.58 35 8 35 C7.21625 33.06125 6.4325 31.1225 5.625 29.125 C5.18414063 28.03445312 4.74328125 26.94390625 4.2890625 25.8203125 C3.16948662 22.93670638 3.16948662 22.93670638 1 21 Z " fill="#FFFFFF" transform="translate(531,50)"/>
<path d="M0 0 C1.35575333 0.96938676 2.69652209 1.96138404 4 3 C3.82374165 5.37948772 3.30280227 6.70225849 1.59765625 8.37890625 C0.09350908 9.62115486 -1.45129851 10.81376056 -3 12 C-3.94875 11.34 -4.8975 10.68 -5.875 10 C-10.47969326 7.38475839 -14.82298768 7.15425046 -20 8 C-24.44407643 10.18163752 -27.03267217 12.44408293 -29 17 C-30.38618303 23.03979747 -30.22577866 27.58901644 -27 33 C-23.44379058 36.91473734 -20.00789732 38.84846058 -14.6875 39.25 C-10.69009994 38.97898983 -8.49225329 37.86253509 -5 36 C-1 36 -1 36 1.75 38.3125 C4 41 4 41 4 44 C1.953125 45.5703125 1.953125 45.5703125 -0.75 47.125 C-1.63171875 47.64320312 -2.5134375 48.16140625 -3.421875 48.6953125 C-9.91825059 51.98287227 -17.24524938 52.22356301 -24.140625 49.9765625 C-32.4671941 46.18985645 -37.30579883 41.27126316 -41.4375 33.1875 C-43.18548195 23.28226894 -42.4453376 14.32461265 -36.9375 5.8125 C-26.81520787 -5.23561153 -12.88029219 -6.75650415 0 0 Z " fill="#FFFFFF" transform="translate(106,54)"/>
<path d="M0 0 C3.0390625 1.546875 3.0390625 1.546875 5.375 3.25 C5.87 5.23 5.87 5.23 6.375 7.25 C2.91 10.22 2.91 10.22 -0.625 13.25 C-1.57375 12.59 -2.5225 11.93 -3.5 11.25 C-8.10877279 8.63244142 -12.44394159 8.41213907 -17.625 9.25 C-21.3542443 11.01291549 -23.11695941 12.53874317 -25.5 15.875 C-27.41641927 21.62425781 -27.45126691 26.90166247 -25.4375 32.625 C-22.75948157 36.50350945 -20.10125233 38.75791589 -15.625 40.25 C-10.14672065 40.78708621 -7.05684834 39.75742483 -2.51953125 36.9296875 C-0.625 36.25 -0.625 36.25 1.5 37.015625 C3.78874137 38.52237974 5.03645678 39.85471213 6.375 42.25 C6.28515625 44.1796875 6.28515625 44.1796875 5.375 46.25 C-1.66689308 51.38422305 -9.0223947 53.58877216 -17.625 52.25 C-26.09585744 50.17999844 -31.78933793 45.85083203 -36.3671875 38.46875 C-40.17317636 31.75508021 -40.98412869 24.31214398 -38.97265625 16.8203125 C-35.70990964 8.7264604 -30.42229326 2.5095928 -22.421875 -1.05859375 C-14.49793724 -4.10758719 -7.66523488 -3.63572073 0 0 Z " fill="#FFFFFF" transform="translate(611.625,52.75)"/>
<path d="M0 0 C6.7751815 2.54522193 10.43726597 11.08405674 13.921875 17.09765625 C16.0413996 14.5439559 17.96423836 12.0291164 19.7109375 9.203125 C24.59418971 1.44187095 24.59418971 1.44187095 28.6640625 0.38671875 C31.1725412 0.40803727 33.46594849 0.59942526 35.921875 1.09765625 C36.63671875 2.78515625 36.63671875 2.78515625 36.921875 5.09765625 C35.55078125 7.47265625 35.55078125 7.47265625 33.484375 10.09765625 C32.7521875 11.08507813 32.02 12.0725 31.265625 13.08984375 C28.921875 16.09765625 28.921875 16.09765625 26.640625 18.60546875 C18.79165524 28.13229799 19.8253899 39.03795618 20.00024414 50.87963867 C19.921875 53.09765625 19.921875 53.09765625 18.921875 54.09765625 C17.42449376 54.19556195 15.92244608 54.22740489 14.421875 54.22265625 C13.6071875 54.22523437 12.7925 54.2278125 11.953125 54.23046875 C9.921875 54.09765625 9.921875 54.09765625 8.921875 53.09765625 C8.94727703 51.49865529 9.0287717 49.90050229 9.1328125 48.3046875 C9.73379205 31.13169676 5.31678506 21.30431078 -5.60351562 8.17456055 C-7.08774588 6.08410579 -7.75535554 4.62912057 -8.078125 2.09765625 C-5.90928934 -0.07117941 -2.91196378 0.03787236 0 0 Z " fill="#FFFFFF" transform="translate(308.078125,49.90234375)"/>
<path d="M0 0 C0.8146875 0.00257812 1.629375 0.00515625 2.46875 0.0078125 C3.2834375 0.00523438 4.098125 0.00265625 4.9375 0 C6.96875 0.1328125 6.96875 0.1328125 7.96875 1.1328125 C8.05749135 4.23532451 8.08393455 7.3154937 8.06640625 10.41796875 C8.0649913 11.34878769 8.06357635 12.27960663 8.06211853 13.2386322 C8.05650172 16.22422441 8.0439464 19.20974279 8.03125 22.1953125 C8.02623716 24.21419163 8.02167388 26.23307193 8.01757812 28.25195312 C8.00737587 33.21229121 7.98780382 38.1724688 7.96875 43.1328125 C14.56875 43.1328125 21.16875 43.1328125 27.96875 43.1328125 C27.96875 46.4328125 27.96875 49.7328125 27.96875 53.1328125 C23.71460377 53.15746872 19.46049502 53.17565149 15.20629883 53.18774414 C13.75804927 53.19278351 12.30980483 53.19961503 10.86157227 53.20825195 C8.78400412 53.22033497 6.70650303 53.22604461 4.62890625 53.23046875 C3.37730713 53.23570557 2.12570801 53.24094238 0.83618164 53.24633789 C-2.03125 53.1328125 -2.03125 53.1328125 -3.03125 52.1328125 C-3.12979422 50.5421794 -3.15923694 48.94719773 -3.16064453 47.35351562 C-3.16379669 46.3357605 -3.16694885 45.31800537 -3.17019653 44.26940918 C-3.1681723 43.16214478 -3.16614807 42.05488037 -3.1640625 40.9140625 C-3.16501923 39.78585083 -3.16597595 38.65763916 -3.16696167 37.49523926 C-3.16764368 35.10441024 -3.16578797 32.71357939 -3.16162109 30.32275391 C-3.15627316 26.64872099 -3.16156543 22.97481033 -3.16796875 19.30078125 C-3.16730797 16.98437473 -3.16602682 14.66796828 -3.1640625 12.3515625 C-3.16709885 10.69066589 -3.16709885 10.69066589 -3.17019653 8.99621582 C-3.16704437 7.97846069 -3.16389221 6.96070557 -3.16064453 5.91210938 C-3.15984894 5.01133667 -3.15905334 4.11056396 -3.15823364 3.18249512 C-2.98694633 0.41769318 -2.76372081 0.18070482 0 0 Z " fill="#FFFFFF" transform="translate(263.03125,50.8671875)"/>
<path d="M0 0 C0.763125 0.28875 1.52625 0.5775 2.3125 0.875 C3.66335807 0.24459957 4.99502676 -0.42751417 6.3125 -1.125 C9.75 -1.625 9.75 -1.625 13.3125 -1.125 C16.25881526 1.50624686 18.02247868 3.22047543 18.71118164 7.14941406 C18.80381391 9.70071371 18.7497985 12.20027066 18.625 14.75 C18.60244141 15.62914062 18.57988281 16.50828125 18.55664062 17.4140625 C18.49809748 19.56845007 18.40842783 21.7219531 18.3125 23.875 C16.6625 23.875 15.0125 23.875 13.3125 23.875 C13.25191406 22.83859375 13.19132812 21.8021875 13.12890625 20.734375 C13.04446629 19.36457127 12.95982003 17.99478025 12.875 16.625 C12.83568359 15.94308594 12.79636719 15.26117188 12.75585938 14.55859375 C12.54583528 11.23051959 12.29315998 8.07244598 11.3125 4.875 C8.39597826 4.70818891 8.39597826 4.70818891 5.3125 4.875 C2.87414332 6.86603192 2.87414332 6.86603192 3.1171875 10.7890625 C3.13049624 12.35949351 3.15436398 13.92986221 3.1875 15.5 C3.19652344 16.30179688 3.20554687 17.10359375 3.21484375 17.9296875 C3.23843777 19.91158523 3.27430935 21.89332981 3.3125 23.875 C1.6625 23.875 0.0125 23.875 -1.6875 23.875 C-1.74808594 22.83859375 -1.80867188 21.8021875 -1.87109375 20.734375 C-1.95553371 19.36457127 -2.04017997 17.99478025 -2.125 16.625 C-2.16431641 15.94308594 -2.20363281 15.26117188 -2.24414062 14.55859375 C-2.45416472 11.23051959 -2.70684002 8.07244598 -3.6875 4.875 C-7.82843698 4.66529441 -7.82843698 4.66529441 -11.6875 5.875 C-11.6875 11.485 -11.6875 17.095 -11.6875 22.875 C-13.3375 23.205 -14.9875 23.535 -16.6875 23.875 C-17.6875 22.875 -17.6875 22.875 -17.80102539 20.74194336 C-17.79578857 19.82550049 -17.79055176 18.90905762 -17.78515625 17.96484375 C-17.78193359 16.97548828 -17.77871094 15.98613281 -17.77539062 14.96679688 C-17.76701172 13.92587891 -17.75863281 12.88496094 -17.75 11.8125 C-17.74548828 10.76771484 -17.74097656 9.72292969 -17.73632812 8.64648438 C-17.72449913 6.0559334 -17.70801689 3.46549441 -17.6875 0.875 C-17.06488281 0.72160156 -16.44226563 0.56820312 -15.80078125 0.41015625 C-14.4835773 0.07659444 -13.17272439 -0.28475795 -11.875 -0.6875 C-7.69988292 -1.52252342 -3.95316086 -1.65481152 0 0 Z " fill="#FFFFFF" transform="translate(429.6875,142.125)"/>
<path d="M0 0 C0.99 0 1.98 0 3 0 C5.14590125 4.62205821 7.28183626 9.24854122 9.40869141 13.87939453 C10.13351126 15.45389135 10.86103205 17.02714774 11.59130859 18.59912109 C12.64093291 20.85974054 13.6807419 23.12465268 14.71875 25.390625 C15.04685669 26.09181458 15.37496338 26.79300415 15.7130127 27.51544189 C17.2911804 30.98582316 18 33.11747441 18 37 C16.35 37 14.7 37 13 37 C12.01 34.03 11.02 31.06 10 28 C4.06 28 -1.88 28 -8 28 C-8.33 29.65 -8.66 31.3 -9 33 C-10.0625 35.3125 -10.0625 35.3125 -11 37 C-12.65 37 -14.3 37 -16 37 C-15.32529011 32.13245008 -13.38707445 27.99488228 -11.375 23.5625 C-10.84519531 22.38228271 -10.84519531 22.38228271 -10.3046875 21.17822266 C-7.06421128 14.01879552 -3.59492026 6.98762625 0 0 Z M1 9 C-0.00460531 11.12282669 -1.00355602 13.24833021 -2 15.375 C-2.556875 16.55835938 -3.11375 17.74171875 -3.6875 18.9609375 C-5.13216041 21.75428575 -5.13216041 21.75428575 -5 24 C-0.71 24 3.58 24 8 24 C6.02 19.05 4.04 14.1 2 9 C1.67 9 1.34 9 1 9 Z " fill="#FFFFFF" transform="translate(286,129)"/>
<path d="M0 0 C1.32 0 2.64 0 4 0 C4 12.21 4 24.42 4 37 C2.02 37 0.04 37 -2 37 C-2.99 37.495 -2.99 37.495 -4 38 C-7.9079648 38.44408691 -9.74548146 38.13704844 -13.25 36.25 C-16.61886342 33.4936572 -17.78292632 31.69367956 -18.3359375 27.37890625 C-18.44143534 19.77251185 -18.44143534 19.77251185 -16.25 15.9375 C-12.63475537 12.82437268 -10.03251472 11.7343378 -5.25 11.875 C-4.45078125 11.89304688 -3.6515625 11.91109375 -2.828125 11.9296875 C-2.22484375 11.95289063 -1.6215625 11.97609375 -1 12 C-1.01160156 11.21753906 -1.02320313 10.43507812 -1.03515625 9.62890625 C-1.04417969 8.61699219 -1.05320312 7.60507813 -1.0625 6.5625 C-1.07410156 5.55316406 -1.08570313 4.54382813 -1.09765625 3.50390625 C-1 1 -1 1 0 0 Z M-11.4375 18.5 C-13.63887867 22.02220587 -13.80264519 24.95367526 -13 29 C-11.62283334 31.71107713 -11.62283334 31.71107713 -9 33 C-4.64943325 32.99732315 -4.64943325 32.99732315 -1 31 C-0.9010706 28.83519203 -0.870289 26.66706215 -0.875 24.5 C-0.87242187 23.3140625 -0.86984375 22.128125 -0.8671875 20.90625 C-0.66789781 18.10740578 -0.66789781 18.10740578 -2 17 C-5.78299385 16.64311379 -8.15412807 16.47946343 -11.4375 18.5 Z " fill="#FFFFFF" transform="translate(374,129)"/>
<path d="M0 0 C3.02508145 1.73602105 5.41790069 3.83580137 7 7 C7 9.31 7 11.62 7 14 C1.06 14 -4.88 14 -11 14 C-9.02 16.97 -9.02 16.97 -7 20 C-3.01008604 20.49873924 0.15980411 19.99560634 4 19 C4.66 19.33 5.32 19.66 6 20 C6 20.99 6 21.98 6 23 C1.48786174 25.70728296 -2.77139552 27.27698609 -8 26 C-11.3192013 23.91273303 -14.23063304 21.53873393 -16 18 C-16.62133059 13.69787555 -16.97036679 9.66604513 -14.73046875 5.8203125 C-10.43511214 0.78293565 -6.82444365 -1.1648401 0 0 Z M-8.875 6.375 C-10.18973666 7.94466014 -10.18973666 7.94466014 -10 10 C-6.04 10 -2.08 10 2 10 C1.01 8.35 0.02 6.7 -1 5 C-4.33472201 4.444213 -6.1100287 4.34735438 -8.875 6.375 Z " fill="#FFFFFF" transform="translate(400,141)"/>
<path d="M0 0 C0.845625 -0.03996094 1.69125 -0.07992187 2.5625 -0.12109375 C5 0.4375 5 0.4375 7.296875 2.3203125 C9.75069516 6.81147875 9.4346895 10.72431444 9.25 15.75 C9.23195313 16.68134766 9.21390625 17.61269531 9.1953125 18.57226562 C9.14834888 20.86174197 9.08269475 23.14908184 9 25.4375 C8.05125 25.416875 7.1025 25.39625 6.125 25.375 C3.09333717 25.21198174 3.09333717 25.21198174 1 26.4375 C-3.33327174 26.92805907 -5.32000344 26.91494439 -8.9375 24.375 C-11 21.4375 -11 21.4375 -11.625 17.875 C-11 14.4375 -11 14.4375 -8.625 12.0625 C-4.71083615 9.63944619 -2.62897495 9.24462604 2 9.4375 C2.66 9.7675 3.32 10.0975 4 10.4375 C3.67 8.7875 3.34 7.1375 3 5.4375 C-0.63 5.7675 -4.26 6.0975 -8 6.4375 C-8.33 5.1175 -8.66 3.7975 -9 2.4375 C-5.9265734 0.66601106 -3.54086599 0.09176025 0 0 Z M-6 16.4375 C-5.67958603 19.04030568 -5.67958603 19.04030568 -5 21.4375 C-0.2102679 21.67178313 -0.2102679 21.67178313 4 19.4375 C4.25030977 16.85369823 4.25030977 16.85369823 4 14.4375 C-1.58664846 13.83328469 -1.58664846 13.83328469 -6 16.4375 Z " fill="#FFFFFF" transform="translate(342,140.5625)"/>
<path d="M0 0 C1.98 0 3.96 0 6 0 C7.98 5.28 9.96 10.56 12 16 C14.64 10.72 17.28 5.44 20 0 C21.32 0 22.64 0 24 0 C23.41116438 4.75524547 21.99811916 8.80499476 20.05859375 13.1484375 C19.77146011 13.80582916 19.48432648 14.46322083 19.18849182 15.14053345 C18.27782992 17.22153764 17.35784482 19.29826275 16.4375 21.375 C15.81513261 22.79269559 15.19338142 24.21066187 14.57226562 25.62890625 C13.05528646 29.0891091 11.52993703 32.54550813 10 36 C8.02 36 6.04 36 4 36 C4.20496094 35.39671875 4.40992188 34.7934375 4.62109375 34.171875 C4.89050781 33.37265625 5.15992188 32.5734375 5.4375 31.75 C5.70433594 30.96109375 5.97117187 30.1721875 6.24609375 29.359375 C6.61927734 28.19148438 6.61927734 28.19148438 7 27 C7.20939209 26.3822168 7.41878418 25.76443359 7.63452148 25.12792969 C8.08997497 22.47613772 7.57409639 21.08918721 6.6015625 18.59375 C6.28703125 17.76746094 5.9725 16.94117188 5.6484375 16.08984375 C5.31070312 15.23519531 4.97296875 14.38054687 4.625 13.5 C3.96964814 11.80274109 3.31594167 10.10484572 2.6640625 8.40625 C2.36967285 7.65666016 2.0752832 6.90707031 1.77197266 6.13476562 C1.03821611 4.10568047 0.48252211 2.10144032 0 0 Z " fill="#FFFFFF" transform="translate(451,142)"/>
<path d="M0 0 C3.4375 2 3.4375 2 6 4 C5.34 5.32 4.68 6.64 4 8 C3.484375 7.67 2.96875 7.34 2.4375 7 C-0.93481939 5.61648435 -3.39333002 5.54096928 -7 6 C-9.20572041 7.98049847 -9.20572041 7.98049847 -10 11 C-9.82238846 16.05693194 -9.82238846 16.05693194 -7 20 C-2.94738713 20.34490322 -1.45245824 20.30163882 2 18 C4.1875 18.375 4.1875 18.375 6 19 C5.69611836 21.93752254 5.19330344 22.84080893 2.875 24.75 C-0.7098228 26.30861861 -3.12117952 26.41558791 -7 26 C-11.10219771 24.18740101 -13.76415359 21.89202893 -16 18 C-16.86663694 13.63718666 -17.01343418 9.76318486 -14.75390625 5.83203125 C-10.42687173 0.5985855 -6.88931002 -0.58383983 0 0 Z " fill="#FFFFFF" transform="translate(322,141)"/>
</svg>
