<?xml version="1.0" encoding="utf-8"?>
<!-- Generator: Adobe Illustrator 25.4.1, SVG Export Plug-In . SVG Version: 6.00 Build 0)  -->
<svg version="1.1" id="Layer_1" xmlns="http://www.w3.org/2000/svg" xmlns:xlink="http://www.w3.org/1999/xlink" x="0px" y="0px"
	 viewBox="0 0 26 26" style="enable-background:new 0 0 26 26;" xml:space="preserve">
<style type="text/css">
	.st0{fill:#EEEBE7;}
	.st1{fill:#C5C2BC;}
</style>
<g>
	<path d="M13.98,0.5c0.46,0.16,0.93,0.28,1.35,0.53c1.56,0.92,2.41,2.28,2.51,4.09c0.03,0.49,0.01,0.98,0.01,1.46
		c0,0.13,0.03,0.23,0.11,0.34c0.69,0.99,0.15,2.33-1.03,2.56c-0.19,0.04-0.27,0.11-0.3,0.3c-0.15,0.83-0.56,1.52-1.2,2.07
		c-0.12,0.11-0.18,0.21-0.17,0.37c0.01,0.23,0.02,0.46,0,0.68c-0.02,0.19,0.07,0.27,0.23,0.33c1.44,0.55,2.88,1.11,4.32,1.67
		c1.44,0.56,2.31,1.81,2.3,3.35c0,0.31-0.13,0.48-0.37,0.47c-0.23,0-0.36-0.16-0.37-0.45c0-0.48-0.08-0.94-0.31-1.36
		c-0.32-0.58-0.78-1.02-1.4-1.27c-0.87-0.35-1.74-0.67-2.61-1.02c-0.15-0.06-0.21-0.01-0.27,0.11c-0.36,0.74-0.74,1.49-1.11,2.23
		c-0.26,0.52-0.63,0.63-1.11,0.32c-0.12-0.07-0.15-0.04-0.22,0.05c-0.19,0.24-0.24,0.47-0.18,0.79c0.19,1,0.35,2,0.51,3
		c0.02,0.14,0.07,0.21,0.23,0.22c0.2,0.01,0.4,0.05,0.6,0.09c0.53,0.1,0.7,0.64,0.34,1.04c-0.13,0.14-0.28,0.27-0.47,0.44
		c0.63,0,1.2,0,1.79,0c-0.06-0.17-0.23-0.26-0.34-0.38c-0.19-0.19-0.31-0.4-0.22-0.68c0.08-0.24,0.24-0.38,0.49-0.42
		c0.31-0.05,0.63-0.11,0.94-0.14c0.16-0.02,0.2-0.07,0.2-0.23c-0.01-0.69,0-1.38,0-2.08c0-0.2,0.06-0.35,0.26-0.42
		c0.24-0.08,0.47,0.1,0.47,0.4c0.01,0.37,0,0.73,0,1.1c0.09,0.01,0.09-0.06,0.12-0.1c0.29-0.42,0.82-0.41,1.07,0.05
		c0.18,0.33,0.33,0.67,0.5,1c0.09,0.18,0.47,0.34,0.65,0.28c0.09-0.03,0.06-0.1,0.06-0.16c0-0.32,0-0.63,0-0.95
		c0-0.16,0.02-0.31,0.17-0.41c0.24-0.16,0.54,0,0.55,0.31c0.02,0.39,0.01,0.78,0.01,1.17c0,0.11,0.03,0.17,0.14,0.22
		c0.44,0.2,0.53,0.66,0.18,1.02c-0.26,0.27-0.53,0.53-0.8,0.78c-0.12,0.11-0.15,0.21-0.12,0.36c0.07,0.33,0.12,0.67,0.18,1.01
		c0.05,0.28,0.03,0.54-0.22,0.72c-0.25,0.18-0.5,0.13-0.75-0.01c-0.28-0.16-0.58-0.29-0.86-0.46c-0.16-0.1-0.3-0.11-0.47-0.01
		c-0.3,0.18-0.62,0.33-0.93,0.49c-0.24,0.13-0.48,0.14-0.71-0.03c-0.22-0.17-0.27-0.41-0.22-0.68c0.06-0.29,0.1-0.58,0.15-0.86
		c0.02-0.11-0.01-0.15-0.12-0.14c-0.83,0-1.66,0-2.49,0c-0.12,0-0.15,0.03-0.13,0.16c0.06,0.28,0.1,0.56,0.15,0.84
		c0.05,0.28,0.01,0.52-0.23,0.7c-0.23,0.17-0.47,0.14-0.71,0.01c-0.32-0.17-0.64-0.33-0.95-0.5c-0.14-0.08-0.24-0.08-0.38,0
		c-0.32,0.18-0.65,0.34-0.97,0.51c-0.24,0.13-0.48,0.14-0.71-0.03c-0.22-0.17-0.27-0.4-0.22-0.66c0.05-0.29,0.09-0.58,0.15-0.86
		c0.02-0.11,0.02-0.17-0.12-0.17c-0.83,0-1.66,0-2.49,0c-0.13,0-0.15,0.04-0.12,0.16c0.06,0.29,0.1,0.58,0.15,0.86
		c0.05,0.27-0.01,0.51-0.23,0.67c-0.22,0.16-0.45,0.15-0.69,0.02c-0.33-0.18-0.66-0.34-0.99-0.53c-0.12-0.07-0.22-0.07-0.34,0
		c-0.32,0.18-0.65,0.34-0.97,0.51c-0.24,0.13-0.48,0.16-0.71-0.01c-0.24-0.17-0.28-0.42-0.23-0.7c0.06-0.36,0.12-0.72,0.19-1.08
		c0.02-0.13-0.01-0.21-0.1-0.3c-0.27-0.26-0.54-0.52-0.81-0.78c-0.37-0.37-0.29-0.83,0.18-1.04c0.14-0.06,0.12-0.15,0.12-0.25
		c0-1.07-0.02-2.13,0.02-3.2c0.06-1.5,0.86-2.52,2.21-3.08c1.45-0.6,2.92-1.14,4.38-1.7c0.18-0.07,0.22-0.16,0.24-0.35
		c0.05-0.53-0.08-0.93-0.52-1.3c-0.54-0.46-0.82-1.12-0.94-1.83C9.27,9.6,9.21,9.53,9.04,9.5C7.77,9.29,7.28,7.82,7.99,6.93
		c0.07-0.09,0.08-0.19,0.08-0.3C8.08,6,8.03,5.35,8.11,4.71c0.24-1.99,1.69-3.64,3.64-4.14c0.08-0.02,0.15-0.05,0.23-0.07
		c0.08,0,0.16,0,0.24,0c0.14,0.11,0.28,0.23,0.24,0.44c-0.04,0.21-0.2,0.28-0.39,0.31c-0.02,0-0.05,0.02-0.07,0.02
		c-0.66,0.15-1.24,0.45-1.74,0.89C9,3.24,8.7,4.65,8.8,6.22c0,0.04,0,0.1,0.05,0.09C9,6.25,9.19,6.32,9.28,6.13
		C9.42,5.81,9.67,5.69,10,5.71c0.46,0.02,0.91,0,1.36-0.06c1.13-0.15,2.17-0.54,3.14-1.14c0.42-0.26,0.71-0.21,1.06,0.16
		c0.28,0.3,0.55,0.6,0.83,0.9c0.15,0.16,0.29,0.32,0.32,0.56c0.02,0.19,0.22,0.12,0.34,0.14c0.11,0.02,0.06-0.11,0.06-0.17
		c0-0.41,0.03-0.83-0.02-1.24c-0.23-1.83-1.4-3.14-3.2-3.6c-0.19-0.05-0.37-0.1-0.42-0.32c-0.05-0.21,0.09-0.33,0.22-0.45
		C13.78,0.5,13.88,0.5,13.98,0.5z M10.55,22.94c0.01-0.02,0.02-0.03,0.04-0.05c-0.15-0.14-0.3-0.27-0.44-0.42
		c-0.35-0.39-0.17-0.92,0.34-1.02c0.2-0.04,0.4-0.08,0.6-0.09c0.17-0.01,0.22-0.09,0.24-0.24c0.16-1,0.32-2.01,0.51-3
		c0.06-0.32-0.01-0.55-0.2-0.78c-0.07-0.09-0.1-0.11-0.21-0.05c-0.51,0.31-0.85,0.2-1.12-0.33c-0.37-0.74-0.74-1.48-1.11-2.23
		c-0.06-0.13-0.12-0.16-0.25-0.1c-0.88,0.35-1.77,0.66-2.63,1.03c-0.97,0.42-1.6,1.18-1.66,2.25c-0.07,1.08-0.02,2.16-0.03,3.24
		c0,0.05-0.02,0.12,0.04,0.15c0.11,0.07,0.58-0.08,0.64-0.21c0.17-0.34,0.34-0.69,0.51-1.03c0.12-0.24,0.31-0.39,0.6-0.38
		c0.3,0.01,0.45,0.2,0.62,0.5c0-0.45,0-0.82,0-1.19c0-0.28,0.17-0.44,0.39-0.42c0.21,0.02,0.34,0.17,0.34,0.43
		c0,0.68,0.01,1.35,0,2.03c0,0.19,0.03,0.28,0.24,0.29c0.27,0.01,0.53,0.08,0.8,0.11c0.28,0.04,0.5,0.15,0.59,0.44
		c0.09,0.29-0.03,0.5-0.23,0.7c-0.12,0.11-0.23,0.23-0.38,0.38C9.42,22.94,9.98,22.94,10.55,22.94z M15.96,7.92
		c0-0.58,0-1.06,0-1.55c0-0.11-0.02-0.2-0.1-0.29c-0.27-0.28-0.54-0.57-0.8-0.86c-0.08-0.09-0.15-0.11-0.26-0.04
		c-1.43,0.87-2.98,1.31-4.66,1.27c-0.16,0-0.19,0.05-0.19,0.2C9.96,7.5,9.94,8.37,9.97,9.23c0.05,1.55,1.34,2.76,2.92,2.8
		c1.59,0.04,2.91-1.12,3.05-2.66C15.99,8.85,15.95,8.34,15.96,7.92z M8.5,22.13c-0.32-0.05-0.63-0.11-0.95-0.14
		C7.22,21.96,7,21.81,6.86,21.5c-0.13-0.3-0.29-0.59-0.46-0.93c-0.16,0.33-0.32,0.61-0.44,0.9C5.82,21.81,5.58,21.96,5.21,22
		c-0.31,0.03-0.62,0.05-0.89,0.14c0.24,0.26,0.47,0.51,0.71,0.75c0.2,0.2,0.28,0.42,0.22,0.71c-0.07,0.34-0.11,0.68-0.18,1.06
		c0.33-0.17,0.61-0.31,0.88-0.47c0.3-0.17,0.57-0.18,0.87,0c0.28,0.16,0.57,0.3,0.9,0.47c-0.06-0.38-0.12-0.71-0.18-1.05
		c-0.06-0.29,0.01-0.52,0.23-0.73C8.02,22.65,8.25,22.39,8.5,22.13z M18.27,24.66c0.33-0.17,0.63-0.31,0.91-0.48
		c0.28-0.16,0.54-0.16,0.83,0c0.28,0.17,0.58,0.31,0.91,0.48c-0.06-0.38-0.1-0.71-0.17-1.03c-0.07-0.31,0.03-0.55,0.25-0.77
		c0.24-0.23,0.46-0.47,0.71-0.73c-0.32-0.05-0.63-0.11-0.94-0.14c-0.35-0.03-0.59-0.19-0.73-0.52c-0.13-0.29-0.28-0.57-0.44-0.9
		c-0.17,0.33-0.32,0.61-0.44,0.9c-0.14,0.33-0.37,0.49-0.73,0.52c-0.31,0.03-0.62,0.09-0.93,0.14c0.24,0.25,0.45,0.5,0.68,0.72
		c0.24,0.23,0.33,0.48,0.26,0.81C18.37,23.97,18.33,24.29,18.27,24.66z M15.1,22.13c-0.32-0.05-0.64-0.1-0.96-0.14
		c-0.32-0.03-0.54-0.18-0.68-0.48c-0.13-0.3-0.29-0.59-0.46-0.93c-0.17,0.33-0.32,0.62-0.45,0.91c-0.14,0.32-0.37,0.47-0.71,0.51
		c-0.32,0.03-0.63,0.09-0.92,0.14c0.25,0.27,0.49,0.53,0.73,0.78c0.19,0.2,0.26,0.42,0.21,0.69c-0.07,0.34-0.12,0.68-0.18,1.06
		c0.29-0.15,0.56-0.27,0.79-0.42c0.36-0.23,0.7-0.23,1.07,0c0.24,0.15,0.5,0.27,0.79,0.42c-0.07-0.39-0.11-0.72-0.18-1.04
		c-0.07-0.3,0.02-0.54,0.24-0.75C14.63,22.64,14.85,22.39,15.1,22.13z M14.52,12.95c0-0.12-0.01-0.2,0-0.28
		c0.02-0.2-0.05-0.21-0.21-0.14c-0.35,0.15-0.73,0.22-1.11,0.24c-0.53,0.02-1.04-0.04-1.53-0.22c-0.05-0.02-0.17-0.1-0.17,0.02
		c0.01,0.3-0.11,0.62,0.14,0.91c0.41,0.48,0.81,0.98,1.2,1.48c0.13,0.17,0.2,0.2,0.35,0.01c0.36-0.47,0.73-0.93,1.12-1.38
		C14.45,13.37,14.58,13.18,14.52,12.95z M16.15,14.35c0.02-0.1-0.07-0.09-0.12-0.11c-0.29-0.12-0.58-0.22-0.86-0.34
		c-0.13-0.06-0.2-0.02-0.29,0.08c-0.41,0.52-0.82,1.03-1.25,1.54c-0.1,0.12-0.07,0.18,0.05,0.26c0.38,0.26,0.76,0.53,1.13,0.81
		c0.13,0.1,0.19,0.09,0.26-0.06c0.33-0.69,0.68-1.37,1.02-2.05C16.12,14.43,16.13,14.39,16.15,14.35z M11.05,16.66
		c0.02-0.01,0.04-0.02,0.06-0.04c0.42-0.3,0.85-0.6,1.27-0.9c0.08-0.05,0.06-0.1,0.01-0.15c-0.44-0.54-0.88-1.09-1.32-1.63
		c-0.05-0.07-0.1-0.09-0.19-0.06c-0.32,0.13-0.63,0.25-0.95,0.37c-0.09,0.03-0.11,0.07-0.06,0.16c0.36,0.72,0.72,1.44,1.08,2.16
		C10.97,16.61,10.98,16.66,11.05,16.66z M12.2,20.39c0.23-0.29,0.31-0.7,0.79-0.71c0.49-0.01,0.57,0.42,0.78,0.72
		c-0.08-0.61-0.18-1.2-0.28-1.79c-0.1-0.63-0.1-0.62-0.72-0.6c-0.13,0-0.19,0.05-0.21,0.18c-0.04,0.27-0.09,0.55-0.14,0.82
		C12.35,19.47,12.28,19.93,12.2,20.39z M9.22,7.88c0-0.25,0-0.5,0-0.76c0-0.09-0.02-0.14-0.13-0.11C8.73,7.09,8.4,7.5,8.4,7.88
		c0,0.41,0.29,0.79,0.67,0.88C9.22,8.8,9.22,8.74,9.22,8.63C9.22,8.38,9.22,8.13,9.22,7.88z M13.05,17.27
		c0.29,0.07,0.56-0.01,0.72-0.38c0.04-0.09,0.06-0.13-0.04-0.19c-0.21-0.14-0.41-0.29-0.62-0.44c-0.07-0.05-0.14-0.07-0.22-0.01
		c-0.21,0.15-0.42,0.3-0.63,0.45c-0.04,0.03-0.1,0.05-0.07,0.13c0.09,0.26,0.31,0.43,0.59,0.43C12.85,17.27,12.91,17.27,13.05,17.27
		z M17.52,7.91c0.02-0.4-0.26-0.81-0.64-0.91c-0.1-0.03-0.19-0.05-0.18,0.12c0.01,0.51,0.01,1.02,0,1.53c0,0.14,0.05,0.14,0.16,0.11
		C17.23,8.66,17.5,8.32,17.52,7.91z"/>
</g>
</svg>
