<?xml version="1.0" encoding="utf-8"?>
<!-- Generator: Adobe Illustrator 25.4.1, SVG Export Plug-In . SVG Version: 6.00 Build 0)  -->
<svg version="1.1" id="Layer_1" xmlns="http://www.w3.org/2000/svg" xmlns:xlink="http://www.w3.org/1999/xlink" x="0px" y="0px"
	 viewBox="0 0 26 26" style="enable-background:new 0 0 26 26;" xml:space="preserve">
<style type="text/css">
	.st0{fill:#EEEBE7;}
	.st1{fill:#C5C2BC;}
</style>
<g>
	<path d="M4.9,2.99C4.42,2.51,3.97,2.06,3.52,1.61C3.46,1.55,3.41,1.52,3.33,1.6C2.88,2.05,2.42,2.5,1.97,2.95
		C2.03,3.03,2.08,3,2.13,3c0.31,0.02,0.45,0.17,0.45,0.48c0,1.21,0,2.41,0,3.62c0,0.31-0.16,0.48-0.43,0.48
		c-0.25-0.01-0.4-0.18-0.4-0.47c0-1.01-0.01-2.01,0-3.02c0-0.2-0.05-0.28-0.26-0.26c-0.19,0.02-0.38,0.01-0.57,0
		c-0.18,0-0.31-0.09-0.39-0.25C0.46,3.41,0.5,3.26,0.63,3.13c0.83-0.84,1.67-1.67,2.51-2.5c0.18-0.18,0.4-0.17,0.58,0.01
		c0.83,0.82,1.66,1.65,2.49,2.48c0.13,0.13,0.17,0.28,0.1,0.45C6.23,3.75,6.09,3.84,5.9,3.84c-0.22,0-0.43,0.01-0.65,0
		C5.13,3.83,5.08,3.87,5.08,4c0.01,0.4,0,0.8,0,1.24C5.24,5.11,5.37,5.02,5.5,4.92c0.55-0.43,1.14-0.56,1.8-0.24
		C7.55,4.8,7.83,4.86,8.12,4.86c0.22,0,0.31-0.07,0.34-0.31c0.08-0.85,0.4-1.61,0.92-2.28c1.14-1.47,3.05-2.1,4.84-1.61
		c1.78,0.49,3.09,2,3.31,3.85c0.03,0.28,0.15,0.36,0.4,0.35c0.26-0.01,0.5-0.06,0.73-0.17c0.69-0.35,1.31-0.2,1.88,0.26
		c0.11,0.09,0.21,0.17,0.36,0.29c0-0.46,0-0.87,0-1.28c0-0.11-0.05-0.13-0.15-0.13c-0.21,0-0.42,0-0.62,0
		c-0.2,0-0.36-0.06-0.44-0.25c-0.08-0.19-0.03-0.35,0.12-0.49c0.81-0.81,1.62-1.62,2.43-2.43c0.22-0.22,0.43-0.22,0.66,0
		c0.81,0.81,1.62,1.62,2.43,2.43c0.14,0.14,0.2,0.3,0.12,0.49c-0.08,0.18-0.23,0.25-0.42,0.25c-0.03,0-0.07,0-0.1,0
		c-0.22,0.02-0.52-0.1-0.65,0.05c-0.11,0.12-0.04,0.41-0.04,0.63c0,0.85,0,1.7,0,2.55c0,0.34-0.14,0.52-0.41,0.52
		c-0.27,0-0.42-0.18-0.42-0.51c0-1.15,0-2.29,0-3.44c0-0.51,0.09-0.61,0.64-0.65c-0.13-0.13-0.23-0.24-0.34-0.34
		c-0.34-0.34-0.68-0.68-1.01-1.01C22.64,1.57,22.59,1.5,22.5,1.6c-0.45,0.46-0.9,0.91-1.35,1.35C21.18,3.02,21.23,3,21.26,3
		c0.34,0.02,0.48,0.16,0.49,0.51c0,0.79,0,1.58,0,2.37c0,0.16,0.03,0.3,0.13,0.43c0.37,0.49,0.46,1.02,0.19,1.59
		c-0.25,0.54-0.23,1.07-0.03,1.62c0.13,0.36,0.28,0.71,0.48,1.04c0.22,0.36,0.51,0.64,0.91,0.79c0.81,0.29,1.14,0.9,1.2,1.71
		c0.05,0.64,0.06,1.28-0.05,1.92c-0.11,0.63-0.45,1.06-1.05,1.32c-0.98,0.42-1.77,1.88-1.63,2.93c0.03,0.21,0.11,0.4,0.19,0.59
		c0.23,0.53,0.16,1.04-0.17,1.5c-0.45,0.63-0.99,1.16-1.63,1.59c-0.46,0.31-0.94,0.35-1.46,0.14c-1.01-0.4-2.45-0.06-3.2,0.74
		c-0.13,0.14-0.25,0.3-0.31,0.48c-0.26,0.83-0.87,1.17-1.69,1.22c-0.55,0.03-1.09,0.04-1.63-0.06c-0.58-0.1-0.98-0.42-1.22-0.98
		c-0.44-1.01-1.93-1.79-3.01-1.6c-0.22,0.04-0.43,0.14-0.64,0.22c-0.45,0.18-0.89,0.15-1.3-0.1c-0.73-0.45-1.34-1.05-1.81-1.77
		c-0.26-0.4-0.33-0.85-0.13-1.29c0.54-1.21,0.01-2.18-0.66-3.13c-0.16-0.22-0.4-0.36-0.66-0.45c-0.79-0.28-1.11-0.88-1.18-1.67
		c-0.06-0.65-0.06-1.3,0.05-1.95c0.11-0.63,0.44-1.06,1.04-1.32c0.98-0.43,1.77-1.87,1.64-2.93c-0.03-0.2-0.09-0.39-0.18-0.57
		c-0.26-0.57-0.17-1.1,0.2-1.59C4.22,6.18,4.26,6.05,4.25,5.9c-0.01-0.75,0-1.49,0-2.24C4.25,3.13,4.33,3.04,4.9,2.99z M17.53,5.66
		c0.13,0.1,0.19,0.16,0.25,0.21c0.55,0.44,0.77,1.16,0.54,1.82c-0.07,0.19-0.01,0.27,0.11,0.39c2,1.96,2.82,4.34,2.36,7.1
		c-0.72,4.27-4.7,7.1-8.99,6.47c-3.79-0.56-6.69-3.87-6.71-7.7c-0.02-2.32,0.83-4.3,2.51-5.9c0.09-0.09,0.15-0.15,0.1-0.3
		C7.43,6.99,7.65,6.3,8.29,5.81c0.04-0.03,0.12-0.04,0.09-0.14C7.86,5.75,7.37,5.63,6.89,5.41C6.62,5.29,6.38,5.32,6.14,5.49
		C5.64,5.84,5.22,6.26,4.84,6.73C4.62,7.01,4.56,7.3,4.72,7.64c0.3,0.63,0.3,1.3,0.09,1.95c-0.36,1.16-0.91,2.18-2.15,2.63
		c-0.25,0.09-0.34,0.31-0.39,0.55c-0.14,0.66-0.12,1.33-0.03,1.99c0.05,0.39,0.25,0.64,0.63,0.78c0.63,0.23,1.08,0.68,1.4,1.26
		c0.6,1.08,0.97,2.19,0.39,3.41c-0.11,0.22-0.02,0.42,0.11,0.61c0.38,0.54,0.85,0.99,1.38,1.36c0.24,0.17,0.49,0.19,0.76,0.06
		c0.25-0.12,0.51-0.21,0.79-0.25c1.5-0.19,3.22,0.77,3.85,2.15c0.11,0.24,0.27,0.39,0.54,0.43c0.6,0.11,1.19,0.1,1.79,0.01
		c0.29-0.05,0.48-0.2,0.59-0.48c0.13-0.33,0.3-0.64,0.55-0.91c0.99-1.05,2.77-1.46,4.11-0.94c0.26,0.1,0.49,0.08,0.71-0.08
		c0.54-0.37,1-0.83,1.39-1.36c0.17-0.23,0.2-0.47,0.08-0.73c-0.12-0.26-0.21-0.53-0.24-0.82c-0.15-1.48,0.81-3.17,2.16-3.78
		c0.29-0.13,0.46-0.32,0.51-0.63c0.13-0.7,0.13-1.4,0-2.1c-0.06-0.3-0.21-0.5-0.5-0.61c-0.32-0.12-0.61-0.28-0.87-0.51
		c-1.1-0.98-1.55-2.75-1.04-4.13c0.09-0.23,0.08-0.44-0.06-0.64c-0.4-0.58-0.89-1.06-1.48-1.45c-0.18-0.12-0.37-0.15-0.57-0.07
		C18.7,5.6,18.18,5.76,17.53,5.66z M14.29,20.77c0.01,0,0.02,0.01,0.02,0.01c0.03,0,0.07-0.01,0.1-0.01
		c2.21-0.49,3.84-1.74,4.9-3.74c0.06-0.11,0.04-0.22,0.02-0.33c-0.12-0.73-0.25-1.45-0.34-2.18c-0.07-0.57-0.35-0.97-0.83-1.24
		c-0.46-0.26-0.94-0.48-1.42-0.71c-0.15-0.07-0.2,0-0.27,0.1c-0.48,0.6-0.95,1.19-1.43,1.79c-0.21,0.26-0.41,0.28-0.67,0.09
		c-0.05-0.04-0.1-0.13-0.17-0.05c-0.15,0.16-0.36,0.27-0.31,0.57c0.23,1.4,0.43,2.81,0.67,4.21c0.09,0.53,0.2,1.04-0.26,1.47
		C14.29,20.75,14.29,20.76,14.29,20.77z M11.77,20.81c-0.14-0.18-0.23-0.31-0.32-0.43c-0.1-0.13-0.13-0.28-0.1-0.44
		c0.25-1.62,0.5-3.24,0.75-4.86c0.04-0.24-0.09-0.49-0.3-0.6c-0.06-0.03-0.09-0.01-0.14,0.02c-0.37,0.24-0.48,0.22-0.76-0.12
		c-0.46-0.58-0.92-1.15-1.38-1.73c-0.06-0.07-0.1-0.17-0.23-0.11c-0.58,0.29-1.19,0.52-1.72,0.91c-0.29,0.21-0.47,0.5-0.53,0.86
		c-0.13,0.81-0.26,1.63-0.4,2.44c-0.02,0.12,0.01,0.22,0.06,0.32C7,17.64,7.35,18.14,7.77,18.6C8.84,19.76,10.14,20.49,11.77,20.81z
		 M10.09,6.93c0,0.1,0,0.19,0,0.29c0.03,1.5,1.13,2.7,2.64,2.86c1.42,0.15,2.75-0.79,3.11-2.21c0.11-0.44,0.07-0.88,0.09-1.32
		c0.01-0.18-0.03-0.27-0.23-0.33c-0.48-0.14-0.87-0.43-1.15-0.85c-0.09-0.13-0.16-0.14-0.3-0.09c-0.84,0.29-1.68,0.29-2.52-0.01
		c-0.13-0.05-0.2-0.03-0.27,0.09c-0.22,0.33-0.5,0.63-0.88,0.74C10.11,6.24,9.99,6.51,10.09,6.93z M13.01,1.34
		c-2.18,0-3.91,1.84-3.76,4.01c0.01,0.1,0.02,0.15,0.14,0.16c0.72,0.07,1.27-0.26,1.54-0.93c0.12-0.3,0.33-0.4,0.62-0.26
		c0.97,0.47,1.93,0.47,2.9,0c0.29-0.14,0.5-0.04,0.62,0.26c0.27,0.67,0.81,1,1.54,0.93c0.12-0.01,0.13-0.06,0.14-0.16
		C16.9,3.19,15.18,1.34,13.01,1.34z M6.03,15.12c0.09-0.14,0.1-0.23,0.1-0.33c0.05-1.23,0.7-2.02,1.79-2.51
		c0.93-0.42,1.85-0.88,2.78-1.3c0.19-0.08,0.25-0.17,0.22-0.36c-0.02-0.15,0.05-0.32-0.14-0.44C10.34,9.88,9.98,9.48,9.72,9
		C9.65,8.87,9.58,8.83,9.44,8.84C9.11,8.86,8.79,8.82,8.51,8.66c-0.17-0.1-0.27-0.07-0.4,0.06C6.34,10.48,5.67,12.61,6.03,15.12z
		 M19.92,15.07c0.21-0.9,0.19-1.8,0-2.69c-0.31-1.44-0.99-2.67-2.06-3.68c-0.08-0.07-0.14-0.18-0.28-0.09
		c-0.31,0.19-0.66,0.25-1.02,0.23C16.42,8.83,16.34,8.88,16.28,9c-0.25,0.46-0.59,0.84-1,1.15c-0.16,0.13-0.27,0.54-0.19,0.72
		c0.02,0.05,0.06,0.05,0.1,0.06c0.81,0.38,1.62,0.75,2.43,1.13c0.4,0.19,0.8,0.38,1.17,0.63c0.56,0.38,0.91,0.89,1,1.57
		C19.82,14.53,19.88,14.8,19.92,15.07z M12.2,19.89c-0.02,0.06,0.02,0.13,0.07,0.21c0.18,0.23,0.35,0.47,0.53,0.71
		c0.14,0.18,0.25,0.17,0.39-0.01c0.15-0.2,0.29-0.41,0.46-0.6c0.13-0.15,0.15-0.29,0.12-0.48c-0.21-1.34-0.42-2.69-0.62-4.03
		c-0.01-0.09-0.01-0.19-0.16-0.19c-0.15,0-0.14,0.11-0.15,0.2c-0.06,0.4-0.12,0.8-0.18,1.21C12.51,17.88,12.36,18.87,12.2,19.89z
		 M11.78,10.72c-0.08,0.51-0.08,0.97,0.4,1.29c0.14,0.09,0.25,0.24,0.37,0.36c0.31,0.31,0.59,0.3,0.9,0
		c0.23-0.23,0.45-0.45,0.68-0.68c0.05-0.05,0.12-0.1,0.12-0.19c0-0.26,0-0.51,0-0.79C13.41,10.99,12.59,10.98,11.78,10.72z
		 M10.19,12.15c0.26,0.33,0.51,0.64,0.76,0.95c0.14,0.17,0.27,0.46,0.42,0.46c0.19,0.01,0.32-0.28,0.49-0.43
		c0.14-0.11,0.1-0.19-0.01-0.29c-0.2-0.18-0.38-0.38-0.57-0.57C10.81,11.82,10.81,11.82,10.19,12.15z M15.82,12.14
		c-0.19-0.09-0.35-0.16-0.52-0.24c-0.09-0.05-0.15-0.04-0.23,0.03c-0.32,0.33-0.65,0.65-0.97,0.98c-0.07,0.07-0.07,0.12,0,0.19
		c0.15,0.14,0.3,0.29,0.44,0.44c0.06,0.06,0.1,0.07,0.16-0.01C15.07,13.07,15.44,12.62,15.82,12.14z M8.42,7.17
		c0,0.42,0.35,0.81,0.75,0.83c0.09,0.01,0.17,0.01,0.14-0.13C9.22,7.42,9.25,6.95,9.26,6.5c0-0.16-0.06-0.17-0.19-0.14
		C8.7,6.45,8.42,6.79,8.42,7.17z M16.7,7.81c-0.01,0.19,0.01,0.21,0.19,0.18c0.37-0.06,0.67-0.4,0.69-0.78
		c0.02-0.39-0.24-0.75-0.63-0.85c-0.16-0.04-0.21-0.01-0.21,0.16C16.75,6.97,16.78,7.41,16.7,7.81z M13,13.43
		c-0.32-0.07-0.42,0.21-0.6,0.37c-0.07,0.06,0,0.11,0.04,0.15c0.19,0.17,0.35,0.49,0.57,0.49c0.22,0,0.37-0.32,0.57-0.49
		c0.05-0.04,0.1-0.1,0.03-0.15C13.42,13.63,13.31,13.35,13,13.43z"/>
	<path d="M9.67,16.34c-0.26,0-0.52,0-0.78,0c-0.3-0.01-0.46-0.16-0.47-0.41c0-0.26,0.16-0.42,0.45-0.42c0.53,0,1.06-0.01,1.59,0
		c0.29,0,0.46,0.17,0.45,0.42c0,0.25-0.17,0.4-0.47,0.41C10.19,16.34,9.93,16.34,9.67,16.34z"/>
</g>
</svg>
