<?xml version="1.0" encoding="utf-8"?>
<!-- Generator: Adobe Illustrator 25.4.1, SVG Export Plug-In . SVG Version: 6.00 Build 0)  -->
<svg version="1.1" id="Layer_1" xmlns="http://www.w3.org/2000/svg" xmlns:xlink="http://www.w3.org/1999/xlink" x="0px" y="0px"
	 viewBox="0 0 26 26" style="enable-background:new 0 0 26 26;" xml:space="preserve">
<style type="text/css">
	.st0{fill:#EEEBE7;}
	.st1{fill:#C5C2BC;}
</style>
<g>
	<path d="M25.5,6.07c-0.11,0.36-0.35,0.61-0.62,0.85c-2.19,1.93-4.37,3.87-6.56,5.81c-0.06,0.05-0.12,0.11-0.18,0.17
		c0.05,0.09,0.14,0.08,0.21,0.11c0.71,0.22,1.41,0.44,2.12,0.65c0.23,0.07,0.43,0.16,0.49,0.42c0.06,0.27-0.08,0.45-0.27,0.61
		c-0.29,0.25-0.57,0.51-0.87,0.75c-0.11,0.09-0.14,0.17-0.09,0.31c0.12,0.34,0.2,0.68,0.31,1.03c0.07,0.22,0.08,0.43-0.1,0.61
		c-0.18,0.18-0.4,0.18-0.63,0.11c-0.79-0.25-1.58-0.49-2.37-0.73c-0.07-0.02-0.14-0.09-0.2-0.02c-0.05,0.06,0.01,0.14,0.03,0.2
		c0.24,0.78,0.48,1.57,0.72,2.35c0.07,0.23,0.1,0.45-0.09,0.64c-0.19,0.2-0.42,0.18-0.66,0.1c-0.33-0.1-0.66-0.19-0.98-0.3
		c-0.15-0.05-0.24-0.03-0.33,0.09c-0.25,0.3-0.51,0.59-0.77,0.89c-0.16,0.18-0.34,0.31-0.6,0.25c-0.24-0.06-0.34-0.25-0.41-0.47
		c-0.24-0.78-0.48-1.55-0.72-2.33c-0.11-0.01-0.14,0.08-0.19,0.14c-1.15,1.29-2.29,2.58-3.43,3.87c-0.07,0.08-0.14,0.16-0.22,0.23
		c-0.15,0.13-0.32,0.13-0.47,0c-0.16-0.14-0.17-0.31-0.06-0.48c0.04-0.06,0.09-0.11,0.14-0.17c1.27-1.43,2.54-2.86,3.8-4.29
		c0.2-0.22,0.17-0.28-0.12-0.34c-0.15-0.03-0.31-0.01-0.46,0.02c-0.7,0.13-1.33-0.18-1.64-0.82c-0.14-0.29-0.34-0.48-0.62-0.62
		c-0.62-0.3-0.93-0.94-0.81-1.62c0.04-0.19,0.06-0.38-0.01-0.58c-0.05-0.15-0.11-0.19-0.25-0.06c-0.71,0.64-1.42,1.27-2.13,1.9
		c-1.67,1.48-3.33,2.96-5.01,4.43c-0.22,0.2-0.27,0.41-0.21,0.67c0.16,0.74,0.57,1.36,1.04,1.93c0.72,0.88,1.54,1.63,2.57,2.13
		c0.07,0.03,0.13,0.06,0.2,0.09c0.78,0.3,0.88,0.27,1.42-0.34c0.3-0.34,0.59-0.67,0.89-1.01c0.2-0.22,0.42-0.26,0.59-0.1
		c0.17,0.15,0.16,0.36-0.04,0.58c-0.41,0.47-0.83,0.94-1.25,1.41c-0.41,0.45-0.92,0.44-1.44,0.3c-0.85-0.23-1.56-0.71-2.23-1.27
		c-0.91-0.77-1.68-1.65-2.2-2.74c-0.18-0.38-0.31-0.77-0.32-1.19c-0.01-0.38,0.13-0.69,0.42-0.95c2.46-2.17,4.91-4.35,7.36-6.52
		c0.16-0.14,0.28-0.29,0.31-0.52c0.04-0.31,0.2-0.58,0.44-0.79c0.22-0.19,0.33-0.43,0.37-0.72C9.51,9.97,10,9.5,10.75,9.4
		c0.25-0.03,0.45-0.12,0.62-0.3c0.28-0.31,0.62-0.5,1.04-0.53c0.13-0.01,0.18-0.1,0.25-0.18c1.04-1.17,2.08-2.35,3.12-3.52
		c0.05-0.06,0.11-0.12,0.17-0.17c0.15-0.11,0.31-0.11,0.45,0.01c0.15,0.13,0.17,0.29,0.07,0.46c-0.05,0.08-0.12,0.16-0.18,0.23
		c-0.94,1.06-1.88,2.12-2.82,3.18c-0.18,0.2-0.17,0.25,0.1,0.32c0.16,0.04,0.32,0.02,0.48-0.01c0.69-0.13,1.33,0.18,1.64,0.82
		c0.13,0.28,0.32,0.47,0.6,0.61c0.65,0.31,0.96,0.94,0.83,1.65c-0.01,0.07-0.02,0.14-0.03,0.22c-0.01,0.18-0.01,0.39,0.13,0.47
		c0.12,0.06,0.23-0.14,0.34-0.23c1.95-1.72,3.9-3.45,5.85-5.18c0.13-0.11,0.25-0.23,0.38-0.34c-2.21-0.92-3.75-2.48-4.69-4.67
		c-0.05,0-0.08,0.08-0.12,0.13c-0.44,0.5-0.89,1-1.33,1.5c-0.21,0.23-0.41,0.27-0.59,0.1C16.9,3.8,16.91,3.59,17.1,3.37
		c0.73-0.83,1.47-1.65,2.2-2.49c0.17-0.2,0.4-0.29,0.63-0.38c0.18,0,0.36,0,0.54,0c0.32,0.09,0.65,0.16,0.94,0.32
		c1.94,1.07,3.44,2.52,4.09,4.7C25.5,5.71,25.5,5.89,25.5,6.07z M16.42,11.69c0-0.36-0.16-0.61-0.48-0.76
		c-0.4-0.18-0.69-0.47-0.88-0.87c-0.19-0.4-0.48-0.55-0.91-0.46c-0.42,0.08-0.8,0.03-1.18-0.17c-0.43-0.23-0.73-0.19-1.05,0.16
		c-0.31,0.32-0.67,0.49-1.11,0.54c-0.39,0.04-0.64,0.31-0.69,0.7c-0.05,0.42-0.21,0.77-0.52,1.07c-0.37,0.36-0.41,0.64-0.17,1.09
		c0.19,0.36,0.25,0.73,0.17,1.13c-0.09,0.46,0.05,0.75,0.48,0.96c0.38,0.18,0.66,0.46,0.84,0.84c0.21,0.44,0.5,0.57,0.98,0.48
		c0.38-0.07,0.74-0.03,1.08,0.16c0.46,0.25,0.75,0.22,1.11-0.15c0.3-0.3,0.64-0.48,1.07-0.53c0.41-0.04,0.67-0.28,0.71-0.68
		c0.05-0.45,0.24-0.81,0.56-1.13c0.33-0.32,0.37-0.62,0.15-1.03c-0.2-0.37-0.27-0.76-0.18-1.18C16.41,11.8,16.42,11.74,16.42,11.69z
		 M20.18,1.23c-0.24,0-0.37,0.12-0.37,0.38c0,0.13,0.03,0.26,0.05,0.39c0.02,0.11,0.07,0.16,0.19,0.17
		c0.21,0.01,0.41,0.08,0.61,0.16c1,0.43,1.76,1.15,2.42,1.99c0.34,0.44,0.65,0.91,0.73,1.47c0.05,0.31,0.19,0.37,0.45,0.4
		c0.39,0.04,0.57-0.13,0.51-0.53c-0.04-0.27-0.12-0.52-0.24-0.76c-0.69-1.37-1.74-2.42-3.04-3.22C21.09,1.45,20.67,1.26,20.18,1.23z
		 M19.24,16.69c-0.1-0.34-0.19-0.61-0.27-0.89c-0.02-0.07-0.06-0.11-0.13-0.13c-0.69-0.21-1.38-0.42-2.07-0.64
		c-0.11-0.04-0.15,0-0.16,0.1c-0.03,0.18-0.04,0.37-0.13,0.54c-0.06,0.12-0.03,0.17,0.1,0.21c0.25,0.07,0.5,0.15,0.74,0.23
		C17.95,16.3,18.57,16.49,19.24,16.69z M16.69,19.24c-0.29-0.94-0.56-1.83-0.83-2.72c-0.03-0.09-0.09-0.08-0.15-0.05
		c-0.17,0.09-0.36,0.11-0.54,0.14c-0.12,0.02-0.17,0.04-0.13,0.18c0.21,0.67,0.42,1.35,0.62,2.02c0.03,0.08,0.06,0.14,0.15,0.17
		C16.09,19.06,16.36,19.14,16.69,19.24z M14.28,20.02c0.24-0.27,0.45-0.52,0.66-0.76c0.05-0.05,0.06-0.11,0.04-0.18
		c-0.19-0.6-0.38-1.21-0.56-1.81c-0.03-0.1-0.06-0.12-0.15-0.06c-0.2,0.13-0.42,0.21-0.66,0.23c-0.14,0.01-0.11,0.07-0.08,0.16
		c0.08,0.24,0.15,0.48,0.22,0.72C13.92,18.87,14.1,19.42,14.28,20.02z M20.02,14.28c-0.88-0.27-1.71-0.53-2.56-0.79
		c-0.04,0.27-0.08,0.53-0.23,0.75c-0.08,0.12-0.06,0.15,0.07,0.19c0.59,0.17,1.18,0.36,1.76,0.54c0.08,0.03,0.14,0.02,0.2-0.04
		C19.5,14.73,19.74,14.52,20.02,14.28z M20.35,3.01c0.66,1.1,1.54,1.98,2.64,2.64C22.42,4.45,21.54,3.58,20.35,3.01z"/>
	<path d="M15.79,13.01c0,1.54-1.25,2.78-2.8,2.78c-1.54-0.01-2.78-1.26-2.77-2.81c0.01-1.53,1.25-2.77,2.79-2.76
		C14.55,10.21,15.79,11.46,15.79,13.01z M15.05,12.99c0-1.13-0.92-2.05-2.05-2.05c-1.14,0-2.07,0.93-2.06,2.07
		c0.01,1.13,0.94,2.04,2.06,2.04C14.13,15.04,15.05,14.12,15.05,12.99z"/>
</g>
</svg>
