<?xml version="1.0" encoding="utf-8"?>
<!-- Generator: Adobe Illustrator 25.4.1, SVG Export Plug-In . SVG Version: 6.00 Build 0)  -->
<svg version="1.1" id="Layer_1" xmlns="http://www.w3.org/2000/svg" xmlns:xlink="http://www.w3.org/1999/xlink" x="0px" y="0px"
	 viewBox="0 0 20 20" style="enable-background:new 0 0 20 20;" xml:space="preserve" fill="#FF7F00">
<g>
	<path d="M9.62,0.31c0.38,0.09,0.75,0.2,1.07,0.44c0.57,0.43,0.9,1,0.93,1.72c0.01,0.13,0.05,0.18,0.18,0.16c0.02,0,0.05,0,0.08,0
		c0.25,0.03,0.43,0,0.57-0.27c0.2-0.37,0.69-0.49,1.1-0.34c0.38,0.13,0.65,0.53,0.64,0.92c-0.01,0.44-0.31,0.81-0.74,0.92
		c-0.41,0.1-0.86-0.07-1.05-0.45c-0.09-0.18-0.2-0.21-0.38-0.21c-0.38,0.01-0.38,0-0.38,0.39c0,0.44,0,0.88,0,1.32
		c0,0.13,0.03,0.17,0.17,0.17c0.69-0.01,1.39,0,2.08,0c0.11,0,0.21-0.03,0.29-0.11c0.3-0.3,0.6-0.6,0.9-0.89
		c0.08-0.07,0.06-0.12,0.02-0.21c-0.17-0.36-0.13-0.72,0.12-1.03c0.26-0.31,0.6-0.42,0.98-0.32c0.39,0.1,0.63,0.36,0.71,0.76
		c0.13,0.65-0.48,1.25-1.13,1.11c-0.14-0.03-0.22,0-0.31,0.09c-0.29,0.3-0.59,0.59-0.88,0.88c-0.19,0.19-0.42,0.29-0.69,0.29
		c-0.69-0.01-1.39,0-2.08,0c-0.13,0-0.18,0.03-0.17,0.17c0.01,0.27,0.01,0.54,0,0.81c-0.01,0.16,0.04,0.2,0.2,0.2
		c0.92-0.01,1.84,0,2.76-0.01c0.3,0,0.55,0.09,0.76,0.31c0.15,0.16,0.31,0.3,0.45,0.46c0.14,0.15,0.15,0.32,0.03,0.44
		c-0.12,0.12-0.27,0.11-0.42-0.03c-0.16-0.15-0.32-0.31-0.47-0.47c-0.09-0.09-0.19-0.14-0.32-0.14c-0.94,0-1.88,0-2.82,0
		c-0.13,0-0.17,0.03-0.17,0.17c0.01,0.44,0.01,0.87,0,1.31c0,0.14,0.05,0.18,0.17,0.17c0.04-0.01,0.09,0,0.13,0
		c0.24,0.02,0.41,0,0.56-0.27c0.2-0.38,0.69-0.49,1.1-0.35c0.39,0.14,0.66,0.53,0.64,0.94c-0.02,0.44-0.33,0.81-0.76,0.91
		c-0.41,0.09-0.85-0.09-1.04-0.47c-0.08-0.16-0.17-0.2-0.33-0.19c-0.47,0.01-0.47,0-0.47,0.48c0,0.48,0,0.96,0,1.44
		c0,0.12,0.03,0.16,0.16,0.16c0.88-0.01,1.77,0,2.65,0c0.11,0,0.16-0.04,0.21-0.14c0.21-0.43,0.67-0.64,1.12-0.51
		c0.46,0.13,0.73,0.53,0.7,1.02c-0.03,0.45-0.4,0.81-0.86,0.86c-0.39,0.05-0.78-0.16-0.96-0.54c-0.05-0.11-0.12-0.14-0.23-0.14
		c-0.87,0-1.74,0.01-2.61,0c-0.14,0-0.18,0.03-0.18,0.18c0.01,0.52,0.01,1.03,0,1.55c0,0.15,0.05,0.18,0.18,0.18
		c0.71-0.01,1.43,0,2.14,0c0.11,0,0.16-0.03,0.21-0.13c0.22-0.46,0.72-0.65,1.19-0.49c0.45,0.16,0.71,0.63,0.62,1.1
		c-0.09,0.46-0.53,0.79-1.02,0.75c-0.37-0.03-0.64-0.22-0.8-0.55c-0.05-0.09-0.1-0.13-0.2-0.13c-0.72,0-1.44,0.01-2.16,0
		c-0.13,0-0.18,0.03-0.17,0.17c0.01,0.4,0.01,0.79,0,1.19c0,0.12,0.03,0.16,0.16,0.16c0.42-0.01,0.83,0,1.25,0
		c0.27,0,0.5,0.09,0.69,0.29c0.17,0.17,0.34,0.34,0.51,0.51c0.08,0.08,0.15,0.12,0.28,0.08c0.52-0.14,1.06,0.18,1.18,0.7
		c0.13,0.52-0.18,1.03-0.71,1.16c-0.37,0.09-0.7-0.01-0.95-0.31c-0.25-0.29-0.31-0.63-0.16-0.99c0.05-0.11,0.04-0.18-0.05-0.26
		c-0.16-0.15-0.32-0.31-0.47-0.47c-0.1-0.1-0.21-0.15-0.35-0.15c-0.4,0.01-0.81,0.01-1.21,0c-0.14,0-0.17,0.04-0.17,0.17
		c0.01,0.43,0.03,0.86-0.15,1.27c-0.36,0.87-1.02,1.38-1.95,1.46c-0.94,0.07-1.68-0.32-2.17-1.14c-0.07-0.12-0.14-0.16-0.28-0.16
		c-1.26-0.01-2.26-0.93-2.39-2.18c-0.01-0.11-0.04-0.14-0.15-0.13c-0.13,0.01-0.26,0.01-0.4,0C4,16.05,3.9,15.96,3.89,15.8
		c-0.01-0.16,0.09-0.27,0.26-0.29c0.11-0.01,0.23-0.01,0.34-0.01c0.34-0.02,0.64-0.14,0.91-0.33c0.05-0.03,0.09-0.07,0.14-0.09
		c0.15-0.08,0.3-0.06,0.39,0.06c0.09,0.13,0.06,0.29-0.07,0.4c-0.14,0.11-0.29,0.22-0.46,0.29c-0.11,0.04-0.15,0.11-0.14,0.23
		c0.06,0.75,0.42,1.29,1.1,1.59c0.66,0.29,1.29,0.2,1.87-0.23c0.06-0.04,0.11-0.09,0.16-0.13c0.15-0.1,0.31-0.09,0.4,0.04
		c0.1,0.12,0.08,0.27-0.04,0.39c-0.23,0.21-0.48,0.38-0.78,0.49c-0.09,0.03-0.12,0.06-0.06,0.16c0.38,0.53,0.91,0.8,1.56,0.75
		c0.65-0.05,1.11-0.39,1.44-1c-0.14,0-0.25,0-0.36,0c-0.2-0.01-0.31-0.11-0.32-0.28c0-0.16,0.11-0.28,0.31-0.29
		c0.13-0.01,0.25-0.01,0.38,0c0.1,0,0.13-0.03,0.13-0.13c0-0.61,0-1.22,0-1.84c0-0.1-0.04-0.13-0.14-0.13c-0.23,0-0.47,0-0.7,0
		c-0.52,0.01-0.85,0.32-0.92,0.84c-0.03,0.21-0.14,0.33-0.3,0.32c-0.17-0.01-0.27-0.15-0.26-0.37c0.04-0.77,0.67-1.34,1.49-1.36
		c0.23-0.01,0.45,0,0.68,0c0.1,0,0.15-0.01,0.15-0.13c0-1.21,0-2.42,0-3.63c0-0.15-0.09-0.14-0.18-0.14c-1.39,0-2.78,0-4.16,0
		c-0.06,0-0.11,0-0.17,0c-0.24,0-0.37-0.11-0.37-0.28c0-0.18,0.14-0.28,0.38-0.28c1.43,0,2.85-0.01,4.28,0
		c0.2,0,0.23-0.06,0.23-0.24c-0.01-1.45-0.01-2.9,0-4.35c0-0.14-0.03-0.19-0.18-0.19c-0.69,0.01-1.38,0.01-2.06,0
		c-0.85-0.01-1.5-0.61-1.55-1.4C7.26,4.01,7.34,3.88,7.52,3.87c0.18-0.02,0.29,0.1,0.32,0.34c0.05,0.5,0.41,0.86,0.91,0.87
		c0.73,0.02,1.46,0,2.2,0.01c0.11,0,0.12-0.04,0.12-0.13c0-0.54,0-1.09,0-1.63c0-0.11-0.05-0.14-0.15-0.13c-0.11,0.01-0.23,0-0.34,0
		c-0.21,0-0.33-0.11-0.34-0.28c0-0.17,0.12-0.28,0.33-0.29c0.11,0,0.23-0.01,0.34,0c0.13,0.01,0.15-0.04,0.15-0.16
		c-0.07-1.26-1.54-2-2.62-1.32C8.25,1.26,8.09,1.42,7.96,1.59C7.87,1.7,7.85,1.76,8.02,1.83c0.66,0.26,1.11,0.75,1.36,1.42
		c0.09,0.24,0.13,0.49,0.13,0.74c0,0.19-0.1,0.32-0.26,0.33c-0.16,0.01-0.29-0.11-0.3-0.3c-0.02-0.28-0.08-0.55-0.2-0.8
		C8.39,2.49,7.5,2.06,6.72,2.25C5.87,2.44,5.27,3.17,5.26,4c0,0.08,0.01,0.16,0.01,0.25c0.01,0.3-0.13,0.41-0.43,0.34
		C4.47,4.5,4.1,4.51,3.73,4.63C2.86,4.92,2.32,5.92,2.56,6.81C2.6,6.92,2.63,6.94,2.74,6.9c0.29-0.1,0.6-0.16,0.91-0.16
		c0.26,0,0.39,0.08,0.4,0.26c0.01,0.18-0.12,0.29-0.38,0.3C3.06,7.34,2.51,7.55,2.03,7.94c-1.38,1.1-1.26,3.36,0.23,4.31
		c0.08,0.05,0.12,0.05,0.18-0.03c0.18-0.24,0.41-0.44,0.67-0.6c0.19-0.11,0.36-0.1,0.45,0.05c0.09,0.15,0.05,0.31-0.14,0.43
		c-0.49,0.31-0.8,0.74-0.89,1.31c-0.07,0.46,0.03,0.89,0.29,1.28c0.05,0.07,0.1,0.14,0.15,0.22c0.1,0.14,0.08,0.28-0.04,0.39
		c-0.11,0.1-0.29,0.08-0.4-0.05c-0.29-0.32-0.46-0.7-0.54-1.13c-0.07-0.37-0.06-0.74,0.06-1.1c0.05-0.16,0.02-0.22-0.11-0.32
		c-1.1-0.79-1.57-1.86-1.39-3.2c0.13-0.93,0.61-1.66,1.39-2.18c0.12-0.08,0.15-0.15,0.11-0.3C1.56,5.42,2.87,3.83,4.52,3.97
		c0.12,0.01,0.17,0,0.19-0.15c0.1-1.22,1.13-2.17,2.37-2.18c0.15,0,0.23-0.05,0.3-0.18c0.35-0.61,0.88-0.97,1.57-1.11
		c0.05-0.01,0.1-0.03,0.14-0.04C9.27,0.31,9.44,0.31,9.62,0.31z M15.95,3.84c0.22,0,0.4-0.18,0.4-0.39c0-0.21-0.2-0.4-0.41-0.39
		c-0.21,0.01-0.38,0.18-0.39,0.39C15.56,3.65,15.74,3.83,15.95,3.84z M13.26,9.71c0.22,0,0.4-0.18,0.4-0.39
		c0-0.2-0.18-0.38-0.39-0.39c-0.22-0.01-0.4,0.17-0.4,0.39C12.87,9.53,13.04,9.71,13.26,9.71z M14.75,18.41
		c0.22,0.01,0.4-0.16,0.41-0.38c0-0.22-0.17-0.4-0.39-0.4c-0.21,0-0.39,0.17-0.4,0.37C14.36,18.22,14.53,18.4,14.75,18.41z
		 M15.91,11.95c0-0.22-0.18-0.4-0.4-0.39c-0.21,0-0.39,0.18-0.39,0.38c-0.01,0.21,0.18,0.4,0.39,0.41
		C15.72,12.35,15.91,12.17,15.91,11.95z M12.83,2.92c0,0.22,0.18,0.39,0.4,0.39c0.21,0,0.39-0.18,0.39-0.38
		c0-0.21-0.18-0.4-0.39-0.4C13.01,2.52,12.83,2.7,12.83,2.92z M15.42,14.42c0-0.21-0.19-0.4-0.4-0.39c-0.21,0-0.39,0.19-0.39,0.4
		c0.01,0.21,0.18,0.38,0.39,0.38C15.24,14.81,15.42,14.63,15.42,14.42z"/>
	<path d="M18.9,10.17c-0.01,0.36-0.2,0.66-0.58,0.82c-0.37,0.16-0.73,0.1-1.04-0.18c-0.3-0.28-0.38-0.63-0.25-1.02
		c0.04-0.11,0.02-0.17-0.06-0.25c-0.14-0.13-0.28-0.27-0.42-0.41C16.43,9,16.42,8.84,16.53,8.72c0.12-0.12,0.29-0.12,0.43,0.02
		c0.14,0.13,0.27,0.26,0.4,0.4c0.08,0.08,0.14,0.11,0.26,0.07C18.26,8.99,18.9,9.46,18.9,10.17z M18.33,10.12
		c0-0.22-0.17-0.39-0.39-0.39c-0.22,0-0.4,0.18-0.4,0.39c0,0.21,0.18,0.38,0.38,0.39C18.15,10.51,18.33,10.34,18.33,10.12z"/>
	<path d="M4.36,8.76c-0.13,0.01-0.25,0-0.34-0.12C3.9,8.48,3.98,8.27,4.18,8.22c0.13-0.03,0.28-0.04,0.41-0.08
		c0.53-0.16,0.88-0.68,0.82-1.21c-0.06-0.57-0.5-1-1.07-1.05c-0.04,0-0.09,0-0.13-0.01C4.04,5.83,3.95,5.71,3.97,5.56
		c0.01-0.15,0.13-0.25,0.3-0.25c0.48,0.01,0.9,0.18,1.23,0.54C6.43,6.85,5.95,8.4,4.62,8.72C4.53,8.75,4.44,8.75,4.36,8.76z"/>
	<path d="M6.2,12.53c0.42,0,0.85,0,1.27,0c0.13,0,0.24,0.05,0.29,0.17c0.04,0.1,0.03,0.2-0.04,0.28c-0.09,0.1-0.21,0.11-0.33,0.11
		c-0.68,0-1.36,0-2.04,0c-0.11,0-0.21,0-0.32,0c-0.43,0.02-0.77,0.34-0.82,0.77c-0.01,0.05-0.01,0.1-0.03,0.15
		c-0.04,0.16-0.14,0.24-0.3,0.22c-0.16-0.02-0.25-0.12-0.24-0.28c0.01-0.53,0.25-0.94,0.7-1.22c0.25-0.16,0.52-0.21,0.81-0.21
		C5.49,12.53,5.85,12.53,6.2,12.53z"/>
	<path d="M19.5,13.52c0,0.53-0.43,0.96-0.97,0.95c-0.53,0-0.97-0.44-0.96-0.96c0-0.53,0.45-0.96,0.97-0.96
		C19.07,12.56,19.5,12.99,19.5,13.52z M18.53,13.91c0.22,0,0.4-0.17,0.4-0.39c0-0.21-0.18-0.4-0.4-0.39c-0.21,0-0.39,0.18-0.39,0.38
		C18.13,13.72,18.32,13.91,18.53,13.91z"/>
	<path d="M17.58,7.21c-0.53,0-0.96-0.44-0.96-0.97c0-0.53,0.44-0.96,0.97-0.96c0.53,0,0.96,0.44,0.96,0.97
		C18.55,6.79,18.12,7.22,17.58,7.21z M17.59,6.64c0.22,0,0.4-0.18,0.39-0.4c-0.01-0.22-0.19-0.39-0.41-0.38
		c-0.21,0.01-0.38,0.18-0.38,0.39C17.19,6.47,17.38,6.64,17.59,6.64z"/>
	<path d="M17.3,15.52c0.53,0,0.96,0.43,0.96,0.96c0,0.53-0.44,0.96-0.97,0.96c-0.53,0-0.97-0.44-0.96-0.97
		C16.34,15.95,16.77,15.52,17.3,15.52z M17.31,16.09c-0.22,0-0.4,0.17-0.4,0.39c0,0.21,0.18,0.39,0.4,0.39
		c0.21,0,0.38-0.17,0.39-0.38C17.7,16.28,17.53,16.1,17.31,16.09z"/>
	<path d="M7.76,15.2c-0.03,0.79-0.62,1.39-1.38,1.42c-0.17,0.01-0.3-0.1-0.32-0.25c-0.02-0.16,0.09-0.28,0.26-0.3
		c0.25-0.03,0.48-0.1,0.65-0.3c0.41-0.47,0.19-1.2-0.41-1.36c-0.08-0.02-0.16-0.03-0.24-0.04c-0.17-0.03-0.28-0.15-0.26-0.31
		c0.02-0.15,0.14-0.25,0.3-0.25c0.66-0.01,1.28,0.54,1.37,1.21C7.74,15.08,7.75,15.15,7.76,15.2z"/>
	<path d="M10.49,8.35c0,0.65-0.52,1.21-1.16,1.24C9.11,9.6,8.99,9.52,8.97,9.35C8.95,9.17,9.05,9.06,9.28,9.03
		c0.4-0.06,0.65-0.32,0.64-0.68c0-0.32-0.24-0.6-0.55-0.65C9.31,7.68,9.26,7.68,9.2,7.66C9.03,7.62,8.95,7.51,8.97,7.35
		C8.99,7.2,9.1,7.11,9.28,7.12C9.94,7.12,10.49,7.68,10.49,8.35z"/>
	<path d="M6.16,9.33c-0.04,0-0.08,0-0.11,0C5.88,9.32,5.78,9.22,5.78,9.07C5.77,8.92,5.84,8.81,6,8.78
		c0.22-0.04,0.44-0.04,0.64-0.14c0.5-0.24,0.8-0.62,0.87-1.17c0.01-0.06,0.01-0.13,0.02-0.19c0.02-0.17,0.14-0.27,0.29-0.27
		c0.15,0,0.28,0.13,0.28,0.3c0,0.32-0.07,0.63-0.23,0.91C7.5,8.89,6.93,9.27,6.16,9.33z"/>
	<path d="M4.35,10.99c-0.38,0.02-0.76,0-1.1-0.21c-0.47-0.29-0.71-0.71-0.75-1.26C2.5,9.35,2.62,9.22,2.77,9.21
		c0.15-0.01,0.27,0.1,0.3,0.27c0.1,0.66,0.42,0.94,1.09,0.94c0.2,0,0.4,0,0.6,0c0.22,0,0.35,0.12,0.34,0.3
		c-0.01,0.17-0.13,0.27-0.34,0.27C4.63,10.99,4.49,10.99,4.35,10.99z"/>
	<path d="M7.17,2.73c0.23-0.01,0.34,0.06,0.37,0.23c0.03,0.18-0.08,0.3-0.29,0.33c-0.46,0.06-0.6,0.18-0.7,0.62
		C6.51,4.08,6.38,4.19,6.23,4.16C6.07,4.14,5.97,4,5.99,3.81C6.06,3.21,6.56,2.75,7.17,2.73z"/>
	<path d="M9.23,12.53c0.19,0,0.38,0,0.57,0c0.17,0,0.27,0.09,0.29,0.26c0.02,0.16-0.09,0.29-0.27,0.3c-0.39,0.01-0.78,0.01-1.17,0
		c-0.18,0-0.29-0.13-0.28-0.29c0-0.16,0.11-0.26,0.3-0.27C8.85,12.53,9.04,12.53,9.23,12.53z"/>
</g>
</svg>
