<?xml version="1.0" encoding="utf-8"?>
<!-- Generator: Adobe Illustrator 25.4.1, SVG Export Plug-In . SVG Version: 6.00 Build 0)  -->
<svg version="1.1" id="Layer_1" xmlns="http://www.w3.org/2000/svg" xmlns:xlink="http://www.w3.org/1999/xlink" x="0px" y="0px"
	 viewBox="0 0 20 20" style="enable-background:new 0 0 20 20;" xml:space="preserve" fill="#FF7F00">
<g>
	<path d="M7.55,15.95C6.91,16.59,6.3,17.2,5.7,17.8C5.61,17.89,5.52,17.95,5.4,18c-1.25,0.48-2.5,0.96-3.75,1.44
		c-0.6,0.23-1.19-0.19-1.15-0.8c0.01-0.12,0.05-0.22,0.09-0.33c0.47-1.23,0.95-2.46,1.42-3.69c0.05-0.12,0.11-0.22,0.21-0.31
		c0.82-0.82,1.64-1.64,2.47-2.46c0.09-0.09,0.12-0.17,0.07-0.3c-0.29-0.74-0.32-1.52-0.21-2.3c0.02-0.13-0.01-0.15-0.13-0.15
		c-0.7,0-1.4,0.01-2.11,0C1.49,9.07,0.79,8.52,0.57,7.74c-0.22-0.79,0.1-1.61,0.79-2.05c0.06-0.04,0.12-0.08,0.18-0.1
		C1.77,5.54,1.8,5.42,1.76,5.2C1.56,3.76,2.4,2.39,3.78,1.9C5.13,1.43,6.64,1.96,7.39,3.2c0.08,0.12,0.14,0.15,0.29,0.12
		c0.97-0.21,1.95,0.2,2.51,1.04c0.08,0.11,0.16,0.16,0.29,0.17c0.36,0.02,0.72,0.08,1.07,0.2c0.15,0.05,0.23,0.01,0.33-0.09
		c1.12-1.13,2.25-2.26,3.38-3.39c0.92-0.91,2.32-0.99,3.31-0.19c1.15,0.93,1.25,2.62,0.19,3.69c-1.12,1.13-2.24,2.25-3.37,3.37
		c-0.12,0.12-0.15,0.22-0.1,0.38c0.11,0.34,0.17,0.69,0.19,1.05c0.01,0.12,0.04,0.16,0.17,0.16c0.16,0,0.36-0.08,0.45,0.04
		c0.07,0.1,0.03,0.29,0.02,0.45c-0.01,0.29,0.06,0.53,0.34,0.67c0.24,0.12,0.47,0.08,0.67-0.1c0.13-0.12,0.25-0.24,0.37-0.36
		c0.06-0.06,0.1-0.08,0.17-0.01c0.38,0.38,0.75,0.76,1.14,1.14c0.06,0.06,0.07,0.1,0,0.17c-0.13,0.12-0.25,0.24-0.37,0.37
		c-0.18,0.19-0.23,0.41-0.12,0.65c0.11,0.24,0.3,0.36,0.56,0.36c0.16,0,0.32,0,0.48,0c0.09,0,0.14,0.02,0.13,0.13
		c0,0.53,0,1.06,0,1.59c0,0.1-0.03,0.13-0.13,0.13c-0.17-0.01-0.33,0-0.5,0c-0.25,0.01-0.44,0.13-0.54,0.36
		c-0.1,0.23-0.07,0.45,0.1,0.64c0.12,0.13,0.25,0.26,0.38,0.38c0.07,0.06,0.07,0.1,0,0.17c-0.38,0.38-0.76,0.75-1.14,1.14
		c-0.07,0.07-0.11,0.06-0.17,0c-0.11-0.12-0.23-0.24-0.35-0.35c-0.19-0.19-0.42-0.24-0.67-0.13c-0.24,0.11-0.36,0.3-0.36,0.56
		c0,0.17,0,0.33,0,0.5c0,0.08-0.02,0.11-0.11,0.11c-0.54,0-1.08,0-1.63,0c-0.09,0-0.11-0.04-0.1-0.12c0-0.17,0-0.34,0-0.52
		c-0.01-0.25-0.13-0.44-0.36-0.54c-0.23-0.1-0.45-0.06-0.64,0.11c-0.13,0.12-0.26,0.25-0.38,0.38c-0.06,0.07-0.11,0.07-0.17,0
		c-0.08-0.09-0.16-0.18-0.27-0.29c-0.04,0.48-0.24,0.78-0.65,0.94c-0.07,0.02-0.07,0.08-0.09,0.13C11.37,19.09,10.8,19.5,10,19.5
		c-0.8,0-1.38-0.41-1.71-1.13c-0.04-0.08-0.09-0.13-0.17-0.16c-0.55-0.24-0.73-0.84-0.41-1.36c0.03-0.04,0.09-0.08,0.04-0.15
		C7.58,16.49,7.53,16.26,7.55,15.95z M6.46,8.47c0.52,0,1.03,0,1.55,0c0.87,0,1.75,0.01,2.62,0c0.47,0,0.85-0.38,0.89-0.84
		c0.04-0.46-0.27-0.88-0.74-0.98c-0.44-0.1-0.9,0.17-1.05,0.6C9.71,7.35,9.75,7.5,9.65,7.54C9.56,7.58,9.43,7.55,9.32,7.55
		c-0.03,0-0.06,0-0.1,0C9.09,7.58,9.07,7.51,9.09,7.39C9.16,6.9,9.39,6.52,9.82,6.26C9.91,6.2,9.95,6.14,9.97,6.03
		c0.18-0.96-0.46-1.92-1.42-2.11c-0.99-0.2-1.96,0.41-2.18,1.37C6.34,5.42,6.38,5.47,6.49,5.52c0.4,0.17,0.64,0.47,0.73,0.9
		c0.04,0.22,0.04,0.22-0.18,0.22c-0.08,0-0.15-0.01-0.23,0C6.68,6.65,6.63,6.62,6.6,6.49C6.54,6.22,6.32,6.04,6.06,6.02
		C5.8,6,5.52,6.14,5.47,6.39c-0.06,0.27-0.21,0.26-0.4,0.25c-0.03,0-0.06,0-0.1,0C4.79,6.66,4.78,6.57,4.81,6.43
		c0.1-0.45,0.36-0.77,0.79-0.94c0.1-0.04,0.14-0.08,0.15-0.19c0.12-0.67,0.46-1.21,1.02-1.6C6.9,3.61,6.91,3.56,6.82,3.43
		C6.18,2.48,4.98,2.1,3.92,2.5C2.84,2.92,2.2,4.02,2.37,5.17c0.03,0.19,0.1,0.25,0.28,0.28c0.75,0.11,1.35,0.7,1.5,1.43
		c0.07,0.38,0.07,0.38-0.3,0.38c-0.04,0-0.08,0-0.11,0C3.61,7.26,3.57,7.23,3.55,7.1C3.48,6.57,3.12,6.17,2.64,6.06
		C2.12,5.94,1.68,6.09,1.36,6.51C1.07,6.9,1.02,7.34,1.24,7.78c0.22,0.45,0.6,0.69,1.1,0.69C3.71,8.48,5.09,8.47,6.46,8.47z
		 M10.36,12.15c-0.52,0-1.03,0-1.55,0c-0.21,0-0.34,0.13-0.34,0.31c0,0.17,0.13,0.29,0.33,0.3c0.18,0,0.36,0,0.54,0
		c0.58,0,0.97,0.39,0.97,0.98c0,0.43,0.01,0.87,0,1.3c0,0.15,0.05,0.18,0.18,0.18c0.36-0.01,0.73-0.01,1.09,0
		c0.11,0,0.16-0.03,0.2-0.12c0.18-0.4,0.42-0.75,0.71-1.09c0.41-0.48,0.89-0.9,1.32-1.36c0.65-0.68,1.07-1.47,1.09-2.42
		c0.05-1.86-0.72-3.31-2.26-4.34c-0.58-0.4-1.24-0.62-1.93-0.73c-0.14-0.02-0.17,0.01-0.13,0.14c0.05,0.19,0.06,0.39,0.03,0.59
		C10.59,6,10.62,6.02,10.73,6.03c0.85,0.09,1.45,0.77,1.41,1.61c-0.04,0.81-0.71,1.44-1.56,1.45c-0.45,0-0.91,0-1.36,0
		c-0.11,0-0.14,0.03-0.14,0.14c0.01,0.23,0,0.46,0,0.69c0,0.3,0.1,0.4,0.4,0.4c0.75,0,1.51,0,2.26,0c0.59,0,1.01,0.38,1.01,0.91
		c0,0.54-0.42,0.92-1,0.92C11.29,12.15,10.82,12.15,10.36,12.15z M10.27,11.54c0.51,0,1.02,0,1.53,0c0.22,0,0.36-0.14,0.34-0.32
		c-0.01-0.18-0.14-0.29-0.36-0.29c-0.78,0-1.56,0-2.34,0c-0.59,0-0.97-0.39-0.98-0.97c0-0.25,0-0.5,0-0.75
		c0-0.09-0.02-0.12-0.12-0.12c-1.01,0-2.03,0-3.04,0c-0.08,0-0.12,0.02-0.14,0.11c-0.2,1.17-0.01,2.23,0.77,3.16
		c0.35,0.42,0.76,0.79,1.15,1.18c0.46,0.47,0.89,0.97,1.15,1.58c0.03,0.07,0.06,0.1,0.14,0.1c0.4-0.01,0.79-0.01,1.19,0
		c0.1,0,0.13-0.03,0.13-0.13c0-0.46,0-0.92,0-1.38c0-0.21-0.12-0.32-0.34-0.33c-0.18,0-0.36,0-0.54,0c-0.55,0-0.97-0.4-0.96-0.93
		c0-0.51,0.41-0.91,0.96-0.91C9.3,11.53,9.78,11.54,10.27,11.54z M13.06,14.28c-0.35,0.37-0.62,0.77-0.8,1.23
		c-0.03,0.07,0.02,0.11,0.05,0.16c0.1,0.16,0.17,0.34,0.12,0.53c-0.04,0.17,0.02,0.28,0.14,0.37c0.04,0.04,0.09,0.08,0.12,0.12
		c0.08,0.11,0.14,0.09,0.24,0.01c0.67-0.52,1.66-0.2,1.91,0.61c0.04,0.12-0.01,0.29,0.1,0.34c0.11,0.05,0.26,0.01,0.4,0.01
		c0.01,0,0.01,0,0.02,0c0.11,0.02,0.14-0.03,0.16-0.14c0.11-0.87,1.04-1.35,1.8-0.93c0.1,0.06,0.18,0.21,0.3,0.17
		c0.1-0.04,0.17-0.17,0.26-0.24c0.13-0.1,0.12-0.17,0.02-0.3c-0.5-0.67-0.16-1.66,0.64-1.88c0.11-0.03,0.27,0.01,0.33-0.09
		c0.05-0.1,0.01-0.24,0.01-0.36c0-0.02,0-0.04,0-0.06c0.02-0.11-0.02-0.14-0.14-0.16c-0.87-0.11-1.35-1.04-0.93-1.8
		c0.06-0.1,0.21-0.18,0.17-0.3c-0.03-0.1-0.16-0.18-0.24-0.26c-0.01-0.01-0.03-0.03-0.04-0.04c-0.07-0.09-0.12-0.09-0.21-0.01
		c-0.72,0.56-1.7,0.22-1.94-0.67c-0.01-0.04-0.01-0.08-0.06-0.1c-0.04,0.47-0.17,0.91-0.36,1.34c1.38,0.02,2.17,1.05,2.22,2.04
		c0.05,1.08-0.71,2.05-1.74,2.22C14.4,16.3,13.49,15.66,13.06,14.28z M17.04,1.11c-0.1,0.01-0.18,0.01-0.26,0.02
		c-0.56,0.07-0.96,0.4-1.34,0.79c-0.09,0.1-0.07,0.15,0.01,0.23c0.22,0.21,0.43,0.43,0.65,0.65c0.58,0.58,1.17,1.16,1.74,1.75
		c0.09,0.09,0.15,0.11,0.24,0c0.09-0.11,0.21-0.21,0.31-0.32c0.52-0.6,0.65-1.27,0.33-1.99C18.41,1.51,17.81,1.16,17.04,1.11z
		 M4.8,17.57c-0.79-0.79-1.58-1.58-2.36-2.36c-0.24,0.62-0.48,1.26-0.73,1.9c-0.03,0.07,0,0.11,0.05,0.15c0.33,0.33,0.67,0.67,1,1
		c0.05,0.05,0.09,0.07,0.17,0.04C3.55,18.05,4.18,17.81,4.8,17.57z M5.12,12.28c-0.02,0.01-0.04,0.02-0.06,0.03
		c-0.74,0.73-1.47,1.47-2.21,2.2c-0.08,0.08-0.05,0.12,0.01,0.18c0.3,0.3,0.61,0.6,0.91,0.91c0.08,0.08,0.12,0.07,0.2,0
		c0.68-0.69,1.37-1.37,2.06-2.06c0.07-0.07,0.08-0.11,0-0.18C5.69,13.03,5.38,12.68,5.12,12.28z M5.4,17.22
		c0.04-0.03,0.07-0.06,0.1-0.09c0.64-0.64,1.29-1.29,1.94-1.93c0.09-0.09,0.08-0.15,0.02-0.24c-0.23-0.36-0.52-0.68-0.81-0.99
		c-0.07-0.07-0.11-0.07-0.18,0c-0.69,0.69-1.38,1.38-2.07,2.07c-0.07,0.07-0.08,0.11,0,0.18c0.31,0.3,0.61,0.61,0.92,0.92
		C5.34,17.17,5.37,17.19,5.4,17.22z M16.74,14.08c0-0.97-0.74-1.68-1.62-1.62c-0.17,0.01-0.36,0.01-0.49,0.17
		c-0.25,0.31-0.52,0.6-0.8,0.87c-0.07,0.06-0.11,0.13-0.12,0.23c-0.09,0.59,0.1,1.09,0.56,1.46c0.49,0.39,1.05,0.45,1.62,0.17
		C16.44,15.09,16.71,14.61,16.74,14.08z M15.07,4.49c-0.02-0.03-0.04-0.05-0.05-0.07c-0.32-0.32-0.64-0.64-0.96-0.96
		c-0.07-0.07-0.1-0.04-0.16,0.01c-0.49,0.49-0.97,0.98-1.46,1.46c-0.07,0.07-0.07,0.1,0.02,0.15c0.41,0.2,0.78,0.45,1.12,0.75
		c0.06,0.05,0.1,0.05,0.16,0c0.42-0.43,0.85-0.85,1.27-1.27C15.03,4.54,15.05,4.51,15.07,4.49z M16.6,6.02
		c-0.02-0.03-0.04-0.05-0.05-0.07c-0.32-0.32-0.64-0.64-0.96-0.96c-0.08-0.08-0.12-0.03-0.17,0.03c-0.41,0.41-0.82,0.82-1.23,1.23
		c-0.07,0.06-0.08,0.11-0.01,0.18c0.29,0.33,0.54,0.7,0.73,1.09c0.05,0.1,0.08,0.13,0.17,0.03c0.48-0.49,0.96-0.97,1.45-1.45
		C16.55,6.08,16.57,6.05,16.6,6.02z M17.52,5.1c-0.05-0.05-0.08-0.09-0.12-0.13c-0.71-0.71-1.42-1.43-2.14-2.14
		c-0.12-0.12-0.22-0.32-0.36-0.31c-0.14,0-0.23,0.22-0.36,0.32c-0.12,0.09-0.09,0.16,0,0.25c0.71,0.7,1.42,1.41,2.13,2.12
		c0.12,0.12,0.25,0.33,0.37,0.33c0.16,0,0.27-0.23,0.4-0.35C17.47,5.17,17.49,5.13,17.52,5.1z M10.02,15.83c-0.49,0-0.98,0-1.47,0
		c-0.24,0-0.38,0.11-0.38,0.31c0,0.19,0.14,0.31,0.38,0.31c0.97,0,1.94,0,2.91,0c0.24,0,0.38-0.12,0.38-0.31
		c0-0.19-0.14-0.31-0.38-0.31C10.98,15.83,10.5,15.83,10.02,15.83z M9.99,17.66c0.49,0,0.98,0,1.47,0c0.23,0,0.37-0.11,0.37-0.3
		c0-0.19-0.14-0.31-0.37-0.31c-0.98,0-1.95,0-2.93,0c-0.23,0-0.37,0.11-0.37,0.3c0,0.19,0.14,0.31,0.37,0.31
		C9.02,17.67,9.51,17.66,9.99,17.66z M8.93,18.29c0.27,0.41,0.63,0.61,1.09,0.6c0.44-0.01,0.79-0.21,1.05-0.6
		C10.35,18.29,9.66,18.29,8.93,18.29z M1.42,17.84c-0.1,0.25-0.2,0.51-0.29,0.77c-0.06,0.17,0.09,0.32,0.25,0.27
		c0.27-0.09,0.53-0.2,0.78-0.3C1.91,18.33,1.67,18.09,1.42,17.84z"/>
	<path d="M15.2,14.91c-0.51,0-0.92-0.42-0.91-0.93c0.01-0.5,0.42-0.91,0.92-0.9c0.51,0,0.92,0.42,0.91,0.93
		C16.12,14.5,15.7,14.91,15.2,14.91z M15.51,13.99c0-0.17-0.13-0.31-0.3-0.31c-0.17,0-0.31,0.13-0.31,0.3c0,0.17,0.13,0.31,0.3,0.31
		C15.37,14.3,15.51,14.16,15.51,13.99z"/>
</g>
</svg>
