<?xml version="1.0" encoding="utf-8"?>
<!-- Generator: Adobe Illustrator 25.4.1, SVG Export Plug-In . SVG Version: 6.00 Build 0)  -->
<svg version="1.1" id="Layer_1" xmlns="http://www.w3.org/2000/svg" xmlns:xlink="http://www.w3.org/1999/xlink" x="0px" y="0px"
	 viewBox="0 0 20 20" style="enable-background:new 0 0 20 20;" xml:space="preserve" fill="#FF7F00">
<g>
	<path d="M10.01,0.5c2.71,0,5.43,0,8.14,0c0.67,0,1.17,0.39,1.31,1c0.02,0.09,0.03,0.18,0.03,0.27c0,5.19,0,10.37,0,15.56
		c0,1.15-0.81,2.02-1.95,2.15c-1.17,0.13-2.28-0.83-2.32-2c-0.01-0.41-0.01-0.83,0-1.24c0-0.14-0.04-0.17-0.18-0.17
		c-0.86,0.01-1.71,0.01-2.57,0c-0.14,0-0.18,0.04-0.18,0.18c0.01,0.44,0.01,0.88,0,1.32c0,0.14,0.05,0.19,0.18,0.17
		c0.05-0.01,0.11,0,0.16,0c0.88-0.05,1.37,0.69,1.39,1.41c0.01,0.2-0.1,0.32-0.3,0.34c-0.06,0.01-0.12,0-0.18,0
		c-2.36,0-4.73,0-7.09,0c-0.42,0-0.52-0.12-0.45-0.55c0.13-0.79,0.62-1.21,1.42-1.21c0.06,0,0.12,0,0.18,0
		c0.09,0,0.11-0.03,0.11-0.12c0-0.48,0-0.96,0-1.44c0-0.09-0.04-0.11-0.12-0.11c-0.05,0-0.11,0-0.16,0c-1.87,0-3.74,0-5.61,0
		c-0.65,0-1.15-0.4-1.28-1.01c-0.02-0.1-0.02-0.21-0.02-0.31c0-4.31,0-8.61,0-12.92c0-0.8,0.53-1.33,1.34-1.33
		C4.57,0.5,7.29,0.5,10.01,0.5z M18.89,13.45c0-0.08,0.01-0.11,0.01-0.14c0-3.83,0-7.67,0-11.5c0-0.45-0.27-0.71-0.73-0.71
		c-5.44,0-10.88,0-16.32,0c-0.48,0-0.74,0.26-0.74,0.75c0,3.78,0,7.56,0,11.34c0,0.18,0.06,0.21,0.22,0.21c1.26-0.01,2.52,0,3.77,0
		c3.54,0,7.07,0,10.61,0c0.1,0,0.19,0.01,0.28-0.07c0.27-0.24,0.59-0.39,0.95-0.46c0.12-0.02,0.14-0.08,0.14-0.18
		c0-0.39,0-0.79,0-1.18c0-1,0-2,0-3c0-0.43-0.24-0.67-0.67-0.68c-0.24,0-0.49,0-0.73,0c-0.1,0-0.14,0.03-0.14,0.14
		c0,0.15-0.01,0.3-0.01,0.45c-0.01,0.17-0.1,0.28-0.28,0.3c-0.23,0.03-0.45,0.08-0.68,0.11c-0.07,0.01-0.12,0.04-0.14,0.11
		c-0.09,0.22-0.27,0.43-0.27,0.65c0,0.22,0.23,0.4,0.35,0.6c0,0.01,0.01,0.01,0.01,0.02c0.16,0.24,0.15,0.34-0.07,0.55
		c-0.34,0.33-0.69,0.65-1.03,0.98c-0.48,0.46-0.46,0.49-1,0.06c-0.23-0.18-0.42-0.28-0.69-0.09c-0.08,0.06-0.19,0.08-0.3,0.11
		c-0.1,0.03-0.14,0.08-0.16,0.17c-0.04,0.21-0.08,0.43-0.12,0.64c-0.04,0.18-0.14,0.28-0.32,0.28c-0.64-0.01-1.28-0.02-1.92-0.04
		c-0.16,0-0.26-0.09-0.29-0.25c-0.03-0.16-0.07-0.32-0.07-0.49c-0.01-0.23-0.09-0.39-0.34-0.45c-0.12-0.03-0.23-0.09-0.34-0.15
		c-0.09-0.05-0.16-0.05-0.25,0.01c-0.18,0.13-0.36,0.24-0.54,0.36c-0.15,0.1-0.3,0.1-0.43-0.04c-0.44-0.46-0.87-0.91-1.31-1.37
		c-0.12-0.13-0.13-0.27-0.03-0.41c0.11-0.15,0.21-0.31,0.33-0.44c0.14-0.14,0.14-0.27,0.05-0.44C5.63,9.07,5.58,8.95,5.55,8.82
		c-0.03-0.13-0.09-0.19-0.22-0.2c-0.2-0.03-0.4-0.08-0.6-0.11C4.54,8.47,4.44,8.36,4.45,8.18C4.46,7.54,4.48,6.9,4.5,6.26
		C4.5,6.1,4.59,6,4.76,5.97c0.15-0.02,0.3-0.06,0.45-0.07c0.24-0.01,0.42-0.09,0.48-0.36c0.02-0.12,0.1-0.23,0.16-0.34
		c0.05-0.08,0.05-0.15-0.01-0.23C5.7,4.79,5.58,4.6,5.45,4.42C5.36,4.27,5.37,4.13,5.5,4.01C5.96,3.57,6.41,3.13,6.87,2.7
		C7.01,2.57,7.15,2.56,7.3,2.67c0.11,0.08,0.23,0.15,0.33,0.25C7.82,3.1,8.01,3.16,8.25,3c0.09-0.06,0.19-0.08,0.29-0.11
		C8.66,2.86,8.72,2.8,8.74,2.68c0.03-0.21,0.08-0.41,0.12-0.62c0.03-0.17,0.13-0.27,0.31-0.27c0.65,0.01,1.29,0.02,1.94,0.04
		c0.16,0,0.26,0.09,0.29,0.25c0.03,0.17,0.07,0.34,0.08,0.51C11.48,2.8,11.55,2.94,11.79,3c0.13,0.03,0.25,0.1,0.36,0.16
		c0.1,0.06,0.16,0.04,0.25-0.02c0.17-0.12,0.34-0.23,0.51-0.34c0.21-0.13,0.32-0.12,0.49,0.05c0.42,0.44,0.84,0.87,1.26,1.31
		c0.15,0.16,0.16,0.29,0.03,0.47c-0.12,0.17-0.25,0.34-0.38,0.51c-0.05,0.06-0.08,0.11-0.04,0.19c0.09,0.22,0.12,0.49,0.27,0.65
		c0.15,0.15,0.45,0.11,0.67,0.17c0.02,0,0.04,0.01,0.06,0.01c0.23,0.05,0.31,0.14,0.3,0.38c0,0.17-0.01,0.34-0.02,0.51
		c-0.01,0.12,0.03,0.16,0.15,0.16c0.24-0.01,0.47-0.01,0.71,0c0.76,0.02,1.24,0.5,1.25,1.26c0,0.3,0,0.59,0,0.89
		c0,1.09,0,2.18,0,3.27c0,0.07-0.05,0.18,0.09,0.2C18.18,12.92,18.55,13.12,18.89,13.45z M6.52,5.08C6.53,5.15,6.5,5.21,6.46,5.27
		C6.3,5.54,6.17,5.82,6.09,6.12C6.03,6.3,5.92,6.39,5.73,6.41C5.56,6.43,5.38,6.47,5.21,6.49C5.1,6.5,5.06,6.54,5.06,6.65
		c0,0.39-0.01,0.78-0.03,1.16C5.02,7.92,5.06,7.97,5.17,7.99C5.37,8.02,5.56,8.07,5.75,8.1c0.14,0.03,0.22,0.1,0.26,0.24
		c0.09,0.32,0.2,0.64,0.36,0.94c0.07,0.14,0.05,0.26-0.04,0.39c-0.12,0.15-0.22,0.31-0.34,0.46c-0.06,0.07-0.07,0.12,0,0.2
		c0.28,0.29,0.56,0.58,0.83,0.87c0.07,0.08,0.12,0.07,0.2,0.02c0.15-0.11,0.32-0.21,0.47-0.32c0.14-0.1,0.27-0.11,0.42-0.02
		c0.27,0.16,0.56,0.29,0.86,0.38c0.17,0.05,0.25,0.16,0.27,0.32c0.02,0.18,0.06,0.36,0.08,0.55c0.01,0.09,0.04,0.14,0.14,0.14
		c0.39,0,0.79,0.01,1.18,0.03c0.12,0.01,0.16-0.04,0.18-0.15c0.03-0.19,0.08-0.37,0.11-0.56c0.03-0.15,0.11-0.24,0.26-0.28
		c0.31-0.08,0.61-0.2,0.9-0.35c0.14-0.08,0.27-0.06,0.4,0.04c0.15,0.12,0.31,0.22,0.46,0.34c0.08,0.06,0.13,0.06,0.2-0.01
		c0.29-0.28,0.58-0.56,0.87-0.83c0.07-0.07,0.08-0.12,0.02-0.2c-0.11-0.16-0.22-0.33-0.33-0.49c-0.08-0.13-0.09-0.26-0.01-0.39
		c0.17-0.28,0.3-0.57,0.39-0.88c0.05-0.16,0.15-0.24,0.31-0.26c0.19-0.03,0.38-0.06,0.57-0.08c0.09-0.01,0.14-0.05,0.14-0.15
		c0-0.4,0.01-0.8,0.02-1.2c0-0.1-0.04-0.14-0.13-0.15c-0.18-0.03-0.36-0.08-0.54-0.11c-0.17-0.03-0.27-0.12-0.31-0.28
		c-0.08-0.31-0.19-0.6-0.34-0.88c-0.08-0.15-0.06-0.29,0.04-0.42c0.12-0.15,0.22-0.31,0.34-0.46c0.05-0.07,0.07-0.11,0-0.18
		c-0.28-0.29-0.56-0.58-0.83-0.87c-0.08-0.08-0.13-0.08-0.22-0.02c-0.15,0.11-0.32,0.21-0.47,0.32c-0.13,0.09-0.26,0.09-0.39,0.02
		c-0.28-0.16-0.57-0.29-0.88-0.39c-0.17-0.05-0.25-0.16-0.27-0.33c-0.02-0.18-0.06-0.36-0.08-0.55c-0.01-0.1-0.05-0.14-0.15-0.14
		c-0.4,0-0.8-0.01-1.2-0.02c-0.1,0-0.13,0.04-0.15,0.14C9.33,2.71,9.29,2.89,9.25,3.08c-0.03,0.16-0.12,0.25-0.28,0.3
		C8.67,3.46,8.37,3.56,8.1,3.72C7.95,3.8,7.81,3.79,7.68,3.68c-0.14-0.11-0.29-0.2-0.43-0.32C7.15,3.29,7.09,3.28,7,3.37
		C6.82,3.56,6.63,3.73,6.45,3.91C6.32,4.03,6.13,4.14,6.11,4.27c-0.03,0.15,0.17,0.3,0.25,0.45C6.42,4.83,6.53,4.93,6.52,5.08z
		 M8.27,13.97c-1.74,0-3.48,0-5.22,0c-0.59,0-1.19,0-1.78,0c-0.13,0-0.19,0.03-0.18,0.17c0.01,0.2,0,0.41,0,0.61
		c0,0.47,0.26,0.73,0.74,0.73c4.39,0,8.79,0,13.18,0c0.17,0,0.21-0.05,0.2-0.21c-0.02-0.36-0.01-0.72,0.13-1.07
		c0.09-0.24,0.09-0.24-0.17-0.24C12.87,13.97,10.57,13.97,8.27,13.97z M17.35,16.08c-0.46,0-0.92,0-1.38,0
		c-0.12,0-0.17,0.02-0.17,0.16c0.01,0.39,0,0.79,0.01,1.18c0.02,0.83,0.72,1.5,1.55,1.5c0.83,0,1.52-0.67,1.54-1.49
		c0.01-0.39,0-0.79,0.01-1.18c0-0.13-0.03-0.17-0.16-0.17C18.28,16.08,17.81,16.08,17.35,16.08z M9.98,17.74c0.52,0,1.04,0,1.56,0
		c0.12,0,0.17-0.03,0.17-0.16c-0.01-0.45-0.01-0.91,0-1.36c0-0.13-0.05-0.15-0.16-0.15c-1.03,0-2.07,0-3.1,0
		c-0.14,0-0.16,0.05-0.16,0.17c0.01,0.44,0.01,0.88,0,1.32c0,0.15,0.05,0.18,0.19,0.18C8.98,17.74,9.48,17.74,9.98,17.74z
		 M9.98,18.91c0.4,0,0.8,0,1.2,0c0.68,0,1.37,0,2.05,0c0.14,0,0.16-0.04,0.1-0.16c-0.13-0.27-0.33-0.43-0.65-0.43
		c-1.8,0-3.6,0-5.39,0c-0.29,0-0.49,0.13-0.62,0.38c-0.1,0.19-0.09,0.21,0.12,0.21C7.86,18.91,8.92,18.91,9.98,18.91z M17.06,14.45
		c0-0.29-0.01-0.58,0-0.87c0-0.15-0.04-0.16-0.17-0.12c-0.44,0.15-0.75,0.42-0.95,0.83c-0.17,0.35-0.13,0.73-0.14,1.1
		c0,0.09,0.07,0.08,0.12,0.08c0.33,0,0.66,0,0.99,0c0.11,0,0.15-0.04,0.15-0.15C17.06,15.04,17.06,14.75,17.06,14.45z M17.65,14.45
		c0,0.3,0,0.59,0,0.89c0,0.08,0,0.15,0.12,0.15c0.34-0.01,0.68,0,1.03,0c0.09,0,0.11-0.04,0.11-0.12c-0.01-0.2,0.01-0.41-0.01-0.61
		c-0.06-0.6-0.51-1.13-1.09-1.3c-0.14-0.04-0.16,0-0.16,0.12C17.65,13.87,17.65,14.16,17.65,14.45z"/>
	<path d="M3.89,3.53c-0.49,0-0.97,0-1.46,0c-0.22,0-0.35-0.1-0.35-0.28c0-0.19,0.13-0.3,0.36-0.3c0.97,0,1.93,0,2.9,0
		c0.23,0,0.36,0.11,0.36,0.3c0,0.19-0.13,0.29-0.37,0.29C4.85,3.54,4.37,3.53,3.89,3.53z"/>
	<path d="M2.85,4.35c0.15,0,0.3-0.01,0.45,0C3.49,4.36,3.6,4.47,3.6,4.64c0,0.16-0.1,0.29-0.28,0.29C3,4.94,2.68,4.94,2.35,4.93
		c-0.18-0.01-0.28-0.14-0.27-0.3c0.01-0.16,0.12-0.27,0.3-0.27C2.54,4.35,2.7,4.35,2.85,4.35z"/>
	<path d="M4.52,4.35c0.31,0,0.45,0.09,0.45,0.29c0,0.2-0.15,0.29-0.45,0.29c-0.32,0-0.46-0.09-0.45-0.3
		C4.07,4.43,4.2,4.35,4.52,4.35z"/>
	<path d="M7.13,7.34C7.11,5.8,8.39,4.5,9.94,4.48c1.61-0.02,2.92,1.24,2.94,2.83c0.02,1.56-1.26,2.88-2.82,2.89
		C8.44,10.21,7.15,8.96,7.13,7.34z M11.25,9.21c0.84-0.49,1.23-1.62,0.92-2.58c-0.33-1.03-1.32-1.67-2.44-1.56
		c-1,0.09-1.87,0.96-1.98,1.95c-0.1,0.9,0.38,1.94,1.01,2.15c0-0.52,0-1.03,0-1.54c0-0.14,0.03-0.27,0.11-0.39
		C9.14,6.77,9.42,6.3,9.71,5.82c0.18-0.3,0.42-0.3,0.6,0.01c0.27,0.45,0.53,0.91,0.8,1.36c0.11,0.18,0.15,0.36,0.15,0.56
		C11.24,8.23,11.25,8.7,11.25,9.21z M10.65,8.66C10.66,8.66,10.66,8.66,10.65,8.66c0-0.23,0-0.46,0.01-0.69
		c0-0.13-0.04-0.17-0.17-0.17c-0.33,0.01-0.66,0.01-0.99,0c-0.13,0-0.17,0.03-0.17,0.17c0.01,0.47,0,0.93,0,1.4
		c0,0.1,0.02,0.15,0.13,0.18c0.35,0.08,0.7,0.08,1.06,0c0.1-0.02,0.14-0.07,0.14-0.17C10.65,9.14,10.65,8.9,10.65,8.66z M10.01,6.49
		C9.87,6.71,9.75,6.92,9.63,7.12c-0.04,0.07-0.02,0.1,0.06,0.1c0.21,0,0.42,0,0.63,0c0.1,0,0.1-0.05,0.06-0.12
		C10.25,6.91,10.14,6.71,10.01,6.49z"/>
	<path d="M9.99,15.01c-0.1,0-0.2,0.01-0.3,0c-0.15-0.02-0.24-0.1-0.25-0.25c-0.02-0.16,0.06-0.28,0.21-0.31
		c0.23-0.04,0.46-0.04,0.69,0c0.16,0.03,0.23,0.15,0.22,0.3c-0.01,0.16-0.11,0.25-0.27,0.26C10.19,15.02,10.09,15.02,9.99,15.01
		C9.99,15.02,9.99,15.01,9.99,15.01z"/>
</g>
</svg>
