<?xml version="1.0" encoding="utf-8"?>
<!-- Generator: Adobe Illustrator 25.4.1, SVG Export Plug-In . SVG Version: 6.00 Build 0)  -->
<svg version="1.1" id="Layer_1" xmlns="http://www.w3.org/2000/svg" xmlns:xlink="http://www.w3.org/1999/xlink" x="0px" y="0px"
	 viewBox="0 0 20 20" style="enable-background:new 0 0 20 20;" xml:space="preserve" fill="#FF7F00">
<g>
	<path d="M14.92,16.53c0.14,0.26,0.27,0.48,0.39,0.7c0.12,0.22,0.25,0.43,0.37,0.66c0.18,0.36-0.04,0.7-0.45,0.68
		c-0.21-0.01-0.41-0.05-0.61-0.09c-0.12-0.02-0.19,0.01-0.23,0.13c-0.07,0.2-0.15,0.4-0.23,0.6c-0.07,0.17-0.19,0.28-0.38,0.29
		c-0.2,0.01-0.34-0.07-0.44-0.24c-0.24-0.43-0.48-0.86-0.74-1.33c-0.11,0.2-0.21,0.37-0.31,0.55c-0.14,0.24-0.28,0.49-0.41,0.73
		c-0.1,0.18-0.24,0.3-0.46,0.29c-0.22-0.01-0.34-0.15-0.41-0.35c-0.07-0.18-0.15-0.35-0.21-0.54c-0.04-0.14-0.12-0.16-0.25-0.14
		c-0.19,0.03-0.38,0.06-0.57,0.09c-0.2,0.03-0.37-0.03-0.48-0.2c-0.11-0.17-0.08-0.34,0.01-0.5c0.21-0.37,0.41-0.73,0.62-1.1
		c0.03-0.06,0.09-0.12,0.09-0.2c-0.07-0.05-0.15-0.02-0.23-0.02c-1.74,0-3.47,0-5.21,0c-0.75,0-1.13-0.38-1.13-1.13
		c0-1.23,0-2.47,0-3.7c0-0.18-0.05-0.24-0.22-0.27c-1.57-0.29-2.67-1.64-2.66-3.24C0.8,6.65,2.04,5.24,3.57,5.04
		c0.33-0.04,0.66-0.06,0.99,0C4.7,5.07,4.75,5.03,4.79,4.88C5.27,2.65,6.61,1.2,8.82,0.65c2.39-0.59,4.87,0.62,5.95,2.84
		c0.08,0.17,0.16,0.23,0.36,0.24c1.62,0.05,2.91,0.68,3.67,2.16c1.06,2.07,0,4.62-2.22,5.35c-0.2,0.07-0.25,0.16-0.25,0.36
		c0.01,1.26-0.02,2.51,0.01,3.77c0.02,0.72-0.47,1.23-1.18,1.16C15.11,16.52,15.04,16.53,14.92,16.53z M8.92,7.39
		c1.39,0,2.78,0,4.17,0c0.33,0,0.6,0.09,0.86,0.29c0.57,0.44,1.14,0.89,1.74,1.3c0.49,0.33,0.73,0.74,0.67,1.34
		c-0.03,0.27,0,0.28,0.26,0.16c1.4-0.61,2.15-2.1,1.81-3.58c-0.34-1.49-1.75-2.55-3.28-2.47c-0.58,0.03-0.72-0.05-0.98-0.59
		c-1.23-2.57-4.49-3.43-6.81-1.77C6.31,2.81,5.68,3.82,5.47,5.09c-0.09,0.51-0.4,0.76-0.9,0.67C3.9,5.64,3.26,5.74,2.69,6.13
		c-0.9,0.61-1.32,1.45-1.16,2.54c0.14,0.96,0.91,1.79,1.87,2.03c0.18,0.05,0.26,0.03,0.25-0.19C3.64,9.84,3.65,9.17,3.65,8.49
		c0-0.7,0.4-1.1,1.1-1.1C6.14,7.39,7.53,7.39,8.92,7.39z M8.73,8.1c-1.33,0-2.66,0-3.99,0c-0.29,0-0.38,0.09-0.38,0.36
		c0,2.33,0,4.67,0,7c0,0.26,0.09,0.35,0.34,0.35c1.82,0,3.65,0,5.47,0c0.14,0,0.17-0.03,0.15-0.17c-0.16-1.35,0.84-2.51,2.2-2.57
		c1.3-0.06,2.38,1.03,2.35,2.37c-0.01,0.37-0.01,0.37,0.37,0.37c0.31,0,0.39-0.08,0.39-0.4c0-1.68,0-3.35,0-5.03
		c0-0.18-0.04-0.24-0.23-0.24c-0.58,0.01-1.15,0.01-1.73,0c-0.47-0.01-0.74-0.27-0.74-0.75c0-0.36-0.01-0.72,0-1.09
		c0.01-0.17-0.04-0.22-0.22-0.22C11.39,8.11,10.06,8.1,8.73,8.1z M12.58,16.94c0.87,0,1.58-0.69,1.59-1.56
		c0.01-0.87-0.69-1.58-1.56-1.59c-0.86-0.01-1.58,0.7-1.59,1.57C11.01,16.23,11.71,16.93,12.58,16.94z M11.46,18.43
		c0.02-0.01,0.04-0.02,0.06-0.03c0.14-0.24,0.27-0.49,0.41-0.73c0.04-0.08,0.03-0.11-0.06-0.14c-0.35-0.12-0.65-0.31-0.91-0.57
		c-0.06-0.06-0.09-0.05-0.13,0.02c-0.14,0.26-0.28,0.51-0.47,0.84C11.01,17.58,11.36,17.79,11.46,18.43z M13.69,18.43
		c0.06-0.14,0.1-0.25,0.15-0.35c0.15-0.33,0.24-0.39,0.6-0.34c0.11,0.01,0.22,0.02,0.37,0.03c-0.16-0.29-0.3-0.54-0.44-0.79
		c-0.05-0.08-0.09-0.08-0.15-0.02c-0.26,0.26-0.56,0.45-0.91,0.57c-0.08,0.03-0.09,0.06-0.05,0.13
		C13.4,17.91,13.53,18.16,13.69,18.43z M13.65,8.35c0,0.36,0,0.66,0,0.95c0,0.07-0.01,0.14,0.09,0.14c0.43,0,0.86,0,1.29,0
		c0-0.02,0.01-0.03,0.01-0.05C14.59,9.05,14.14,8.72,13.65,8.35z"/>
	<path d="M8.96,10.71c1.03,0,2.05,0,3.08,0c0.26,0,0.41,0.11,0.44,0.31c0.02,0.19-0.11,0.36-0.31,0.39
		c-0.07,0.01-0.15,0.01-0.22,0.01c-2.01,0-4.02,0-6.03,0c-0.07,0-0.15,0.01-0.22-0.01c-0.19-0.04-0.31-0.15-0.31-0.35
		c0-0.2,0.12-0.31,0.31-0.35c0.06-0.01,0.13-0.01,0.2-0.01C6.92,10.71,7.94,10.71,8.96,10.71z"/>
	<path d="M8.93,12.13c1.01,0,2.02,0,3.04,0c0.07,0,0.13-0.01,0.2,0.01c0.19,0.04,0.31,0.15,0.31,0.35c0,0.2-0.12,0.31-0.31,0.35
		c-0.06,0.01-0.13,0.01-0.2,0.01c-2.02,0-4.05,0-6.07,0c-0.07,0-0.13,0.01-0.2-0.01c-0.19-0.04-0.31-0.15-0.31-0.35
		c0-0.2,0.12-0.31,0.31-0.35c0.06-0.01,0.13-0.01,0.2-0.01C6.91,12.13,7.92,12.13,8.93,12.13z"/>
	<path d="M7.18,9.3c0.44,0,0.89,0,1.33,0c0.26,0,0.42,0.14,0.42,0.35C8.93,9.86,8.77,10,8.51,10c-0.9,0-1.8,0-2.7,0
		c-0.26,0-0.42-0.14-0.42-0.35c0-0.22,0.16-0.35,0.42-0.35C6.27,9.29,6.73,9.3,7.18,9.3z"/>
	<path d="M13.65,15.36c0.01,0.58-0.47,1.06-1.04,1.07c-0.59,0-1.07-0.47-1.07-1.06c0-0.58,0.46-1.06,1.04-1.06
		C13.17,14.3,13.64,14.76,13.65,15.36z M12.6,15.72c0.19,0,0.35-0.17,0.34-0.36c0-0.2-0.16-0.35-0.36-0.34
		c-0.19,0-0.35,0.16-0.34,0.36C12.24,15.56,12.41,15.72,12.6,15.72z"/>
</g>
</svg>
