<?xml version="1.0" encoding="utf-8"?>
<!-- Generator: Adobe Illustrator 25.4.1, SVG Export Plug-In . SVG Version: 6.00 Build 0)  -->
<svg version="1.1" id="Layer_1" xmlns="http://www.w3.org/2000/svg" xmlns:xlink="http://www.w3.org/1999/xlink" x="0px" y="0px"
	 viewBox="0 0 20 20" style="enable-background:new 0 0 20 20;" xml:space="preserve" fill="#FF7F00">
<g>
	<path d="M19.5,14.79c-0.16,0.43-0.44,0.68-0.91,0.67c-0.06,0-0.08,0.03-0.1,0.09c-0.02,0.07-0.04,0.13-0.07,0.19
		c-0.13,0.24-0.18,0.43,0.04,0.68c0.23,0.26,0.16,0.69-0.08,0.96c-0.17,0.19-0.36,0.38-0.55,0.55c-0.33,0.3-0.8,0.3-1.13-0.01
		c-0.1-0.09-0.18-0.11-0.28-0.04c0,0-0.01,0.01-0.02,0.01c-0.31,0.09-0.53,0.21-0.57,0.61c-0.03,0.33-0.39,0.56-0.74,0.57
		c-0.25,0.01-0.51,0.01-0.76,0c-0.43-0.02-0.76-0.35-0.79-0.8c-0.01-0.14-0.05-0.22-0.19-0.24c-0.01,0-0.02-0.01-0.03-0.01
		c-0.27-0.15-0.49-0.22-0.78,0.03c-0.25,0.22-0.67,0.13-0.92-0.1c-0.19-0.17-0.38-0.36-0.55-0.55c-0.3-0.33-0.3-0.8,0.01-1.13
		c0.09-0.1,0.11-0.17,0.04-0.28c-0.05-0.08-0.1-0.18-0.12-0.27c-0.04-0.2-0.15-0.25-0.35-0.25c-0.95,0.01-1.89,0.01-2.84,0
		c-0.25,0-0.41-0.13-0.43-0.34c-0.02-0.24,0.14-0.4,0.4-0.4c0.64,0,1.27-0.01,1.91,0c0.2,0,0.24-0.06,0.23-0.24
		c-0.01-0.16-0.01-0.32,0-0.48c0.01-0.53,0.32-0.86,0.84-0.89c0.1-0.01,0.17-0.03,0.18-0.13c0.01-0.03,0.02-0.06,0.03-0.09
		c0.13-0.26,0.21-0.48-0.03-0.76c-0.23-0.26-0.14-0.68,0.1-0.94c0.18-0.19,0.36-0.38,0.55-0.55c0.32-0.3,0.79-0.29,1.13,0.02
		c0.09,0.09,0.17,0.11,0.27,0.04c0.02-0.02,0.05-0.03,0.08-0.04c0.27-0.09,0.46-0.19,0.49-0.54c0.03-0.34,0.32-0.55,0.67-0.59
		c0.28-0.04,0.57-0.03,0.85-0.01c0.43,0.03,0.74,0.33,0.77,0.76c0.01,0.16,0.06,0.25,0.22,0.28c0.03,0,0.06,0.02,0.09,0.03
		c0.23,0.14,0.45,0.2,0.67-0.05c0.1-0.11,0.27-0.13,0.42-0.12c0.1,0.01,0.13-0.03,0.13-0.13c0-1.17,0-2.34,0-3.51
		c0-0.1-0.03-0.15-0.14-0.14c-0.04,0-0.09,0-0.13,0c-5.21,0-10.41,0-15.62,0c-0.26,0-0.26,0-0.26,0.27c0,2.15,0,4.29,0,6.44
		c0,0.33,0.06,0.64,0.25,0.91c0.2,0.29,0.48,0.45,0.84,0.45c0.69,0,1.39,0,2.08,0c0.26,0,0.42,0.17,0.4,0.4
		c-0.02,0.17-0.14,0.33-0.32,0.33c-0.82,0.01-1.65,0.07-2.46-0.02c-0.78-0.08-1.37-0.77-1.5-1.6c-0.02-0.15-0.03-0.29-0.03-0.44
		c0-3.45,0-6.9,0-10.35c0-0.68,0.22-1.26,0.75-1.71c0.29-0.25,0.64-0.37,1.02-0.37c4.7,0,9.4,0,14.1,0c0.82,0,1.52,0.62,1.72,1.5
		c0.05,0.22,0.06,0.45,0.06,0.68c0,2.53,0,5.06,0,7.59c0,0.15,0.04,0.26,0.15,0.37c0.38,0.38,0.39,0.84,0.04,1.24
		c-0.06,0.07-0.09,0.12-0.03,0.2c0.02,0.03,0.04,0.06,0.05,0.1c0.09,0.28,0.18,0.5,0.56,0.52c0.32,0.02,0.47,0.32,0.6,0.6
		C19.5,14.09,19.5,14.44,19.5,14.79z M9.32,5.89c1.97,0,3.93,0,5.9,0c0.67,0,1.34,0,2,0c0.14,0,0.18-0.04,0.17-0.18
		c-0.01-0.25,0-0.51,0-0.76c0-0.71,0.01-1.41-0.01-2.11c-0.02-0.72-0.5-1.15-1.2-1.15c-1.68,0-3.36,0-5.05,0c-2.92,0-5.84,0-8.76,0
		c-0.32,0-0.58,0.1-0.79,0.34C1.35,2.31,1.25,2.64,1.25,3c0,0.88,0,1.77-0.01,2.65c0,0.18,0.04,0.24,0.23,0.24
		C4.09,5.88,6.7,5.89,9.32,5.89z M12.18,11.17c-0.03,0.01-0.05,0.01-0.06,0.02c-0.08,0.07-0.15,0.14-0.23,0.22
		c-0.32,0.32-0.32,0.32-0.01,0.65c0.19,0.2,0.21,0.33,0.07,0.56c-0.16,0.27-0.28,0.55-0.36,0.85c-0.08,0.3-0.19,0.38-0.5,0.38
		c-0.41,0-0.41,0-0.41,0.42c0,0.5-0.06,0.43,0.43,0.44c0.29,0,0.4,0.08,0.47,0.36c0.07,0.29,0.19,0.56,0.34,0.82
		c0.17,0.3,0.16,0.41-0.08,0.65c-0.32,0.32-0.31,0.24,0,0.56c0.32,0.32,0.32,0.32,0.65,0c0.19-0.18,0.32-0.2,0.55-0.07
		c0.26,0.15,0.54,0.28,0.83,0.36c0.35,0.09,0.42,0.18,0.42,0.55c0,0.42-0.04,0.38,0.38,0.38c0.47,0,0.47,0,0.48-0.46
		c0-0.26,0.08-0.37,0.34-0.44c0.3-0.08,0.59-0.19,0.85-0.35c0.3-0.17,0.4-0.16,0.65,0.09c0.32,0.32,0.23,0.31,0.56-0.01
		c0.32-0.32,0.32-0.32,0-0.65c-0.18-0.19-0.2-0.32-0.07-0.55c0.15-0.26,0.28-0.54,0.35-0.83c0.09-0.35,0.17-0.41,0.53-0.41
		c0.43,0,0.39,0.03,0.39-0.39c0-0.45,0-0.45-0.45-0.47c-0.26-0.01-0.37-0.1-0.44-0.36c-0.08-0.31-0.2-0.6-0.36-0.87
		c-0.15-0.26-0.14-0.38,0.08-0.61c0.29-0.29,0.29-0.29,0-0.58c-0.31-0.31-0.31-0.31-0.62-0.01c-0.21,0.2-0.34,0.22-0.59,0.07
		c-0.27-0.16-0.56-0.28-0.87-0.36c-0.28-0.07-0.36-0.18-0.36-0.48c-0.01-0.41-0.01-0.41-0.41-0.41c-0.44,0-0.44,0-0.45,0.44
		c0,0.28-0.08,0.39-0.36,0.46c-0.28,0.07-0.54,0.18-0.79,0.32c-0.36,0.21-0.44,0.2-0.74-0.1c-0.04-0.04-0.09-0.09-0.13-0.13
		C12.24,11.21,12.2,11.19,12.18,11.17z"/>
	<path d="M9.7,10.67c-0.01,0.13-0.05,0.25-0.14,0.35c-0.34,0.38-0.68,0.77-1.02,1.15c-0.16,0.18-0.39,0.19-0.54,0.06
		c-0.17-0.14-0.17-0.37-0.01-0.56c0.25-0.28,0.5-0.57,0.75-0.84c0.1-0.11,0.12-0.18,0.01-0.3c-0.26-0.27-0.5-0.55-0.74-0.83
		C7.83,9.5,7.82,9.27,7.99,9.12C8.15,8.97,8.38,9,8.56,9.19c0.33,0.37,0.66,0.74,0.99,1.11C9.64,10.4,9.69,10.52,9.7,10.67z"/>
	<path d="M2.62,10.69c0-0.16,0.06-0.28,0.15-0.38c0.33-0.37,0.66-0.75,1-1.12C3.94,9,4.16,8.97,4.32,9.12
		c0.16,0.15,0.17,0.37,0,0.56C4.1,9.94,3.86,10.2,3.63,10.46c-0.19,0.21-0.19,0.21,0.01,0.43c0.24,0.27,0.48,0.53,0.71,0.8
		c0.12,0.14,0.13,0.29,0.03,0.45c-0.09,0.15-0.23,0.19-0.4,0.16c-0.08-0.02-0.15-0.06-0.2-0.12c-0.35-0.39-0.69-0.78-1.04-1.16
		C2.66,10.92,2.62,10.8,2.62,10.69z"/>
	<path d="M6.9,9.17C6.82,9.49,6.74,9.85,6.66,10.2c-0.16,0.67-0.32,1.35-0.48,2.02c-0.03,0.13-0.07,0.25-0.2,0.32
		c-0.14,0.08-0.27,0.08-0.4-0.01c-0.13-0.09-0.19-0.23-0.15-0.39c0.13-0.56,0.26-1.12,0.4-1.68C5.93,10,6.04,9.54,6.15,9.08
		c0.08-0.32,0.4-0.44,0.62-0.24C6.86,8.92,6.9,9.02,6.9,9.17z"/>
	<path d="M6.12,14.71c0.21,0,0.37,0.17,0.37,0.38c-0.01,0.2-0.17,0.36-0.37,0.36c-0.2,0-0.38-0.17-0.38-0.38
		C5.74,14.87,5.91,14.7,6.12,14.71z"/>
	<path d="M13.29,5.06c-0.56,0-1.13,0.01-1.69,0c-0.53-0.01-0.98-0.35-1.15-0.84c-0.17-0.49-0.03-1.02,0.37-1.36
		c0.23-0.2,0.51-0.3,0.82-0.3c1.1,0,2.2-0.01,3.3,0c0.73,0.01,1.27,0.56,1.27,1.27c-0.01,0.7-0.56,1.23-1.28,1.24
		c-0.01,0-0.02,0-0.04,0C14.35,5.06,13.82,5.06,13.29,5.06C13.29,5.06,13.29,5.06,13.29,5.06z M13.3,3.3c-0.55,0-1.1-0.01-1.65,0
		c-0.31,0-0.53,0.22-0.53,0.5c0,0.28,0.22,0.5,0.53,0.51c1.09,0.01,2.18,0,3.26,0c0.22,0,0.4-0.1,0.49-0.3
		c0.16-0.34-0.09-0.7-0.49-0.71C14.38,3.29,13.84,3.3,13.3,3.3z"/>
	<path d="M8.48,3.8c0,0.7-0.56,1.26-1.26,1.26c-0.68,0-1.25-0.56-1.25-1.25C5.96,3.12,6.54,2.54,7.23,2.55
		C7.92,2.55,8.48,3.11,8.48,3.8z M7.73,3.81c0-0.28-0.23-0.51-0.51-0.51c-0.27,0-0.5,0.22-0.5,0.49C6.72,4.07,6.94,4.3,7.22,4.31
		C7.49,4.32,7.73,4.09,7.73,3.81z"/>
	<path d="M5.22,3.8c0,0.7-0.56,1.26-1.26,1.26c-0.69,0-1.24-0.56-1.25-1.25c0-0.7,0.56-1.27,1.26-1.26C4.67,2.55,5.22,3.11,5.22,3.8
		z M4.48,3.8c0-0.28-0.24-0.5-0.52-0.49C3.68,3.31,3.47,3.53,3.47,3.8c0,0.28,0.23,0.51,0.51,0.51C4.26,4.31,4.48,4.08,4.48,3.8z"/>
	<path d="M12.44,14.28c0-1.26,1.02-2.29,2.29-2.28c1.26,0,2.29,1.03,2.29,2.29c0,1.25-1.03,2.28-2.28,2.28
		C13.47,16.56,12.44,15.54,12.44,14.28z M13.19,14.27c0,0.85,0.68,1.53,1.53,1.54c0.84,0,1.53-0.68,1.54-1.53
		c0.01-0.85-0.69-1.54-1.54-1.54C13.87,12.74,13.19,13.43,13.19,14.27z"/>
</g>
</svg>
