<?xml version="1.0" encoding="utf-8"?>
<!-- Generator: Adobe Illustrator 25.4.1, SVG Export Plug-In . SVG Version: 6.00 Build 0)  -->
<svg version="1.1" id="Layer_1" xmlns="http://www.w3.org/2000/svg" xmlns:xlink="http://www.w3.org/1999/xlink" x="0px" y="0px"
	 viewBox="0 0 26 26" style="enable-background:new 0 0 26 26;" xml:space="preserve">
<style type="text/css">
	.st0{fill:#EEEBE7;}
	.st1{fill:#C5C2BC;}
</style>
<g>
	<path d="M0.5,18.52c0.13-0.2,0.31-0.25,0.54-0.25c7.98,0,15.95,0,23.93,0c0.04,0,0.08,0,0.12,0c0.25,0.01,0.41,0.17,0.41,0.39
		c0,0.21-0.16,0.37-0.4,0.38c-0.44,0.01-0.88,0-1.32,0.01c-0.2,0-0.46-0.09-0.59,0.04c-0.12,0.12-0.03,0.37-0.04,0.57
		c0,1.07,0,2.13,0,3.2c0,0.12,0,0.23-0.07,0.33c-0.11,0.14-0.25,0.21-0.43,0.15c-0.19-0.06-0.28-0.21-0.28-0.41
		c0-0.69,0-1.38,0-2.08c0-0.54,0-1.07,0-1.61c0-0.14-0.03-0.22-0.19-0.2c-0.06,0.01-0.11,0-0.17,0c-6.01,0-12.03,0-18.04,0
		c-0.35,0-0.35,0-0.35,0.37c0,1.15,0,2.3,0,3.44c0,0.12,0,0.23-0.07,0.33c-0.11,0.14-0.25,0.21-0.43,0.15
		c-0.19-0.06-0.28-0.21-0.28-0.41c0-0.68,0-1.35,0-2.03c0-0.53-0.01-1.06,0.01-1.59c0.01-0.24-0.08-0.28-0.29-0.27
		c-0.5,0.01-0.99-0.01-1.49,0.01C0.84,19.05,0.65,19,0.5,18.81C0.5,18.71,0.5,18.61,0.5,18.52z"/>
	<path d="M17.11,11.32c0-0.27,0-0.53,0-0.81c-0.7,0.22-1.37,0.43-2.04,0.64c-0.5,0.16-1.01,0.32-1.51,0.47
		c-0.09,0.03-0.16,0.05-0.16,0.17c0,1.54,0,3.07,0,4.62c0.15,0.01,0.26-0.06,0.38-0.11c1.1-0.41,2.19-0.82,3.29-1.22
		c0.24-0.09,0.5,0.01,0.74-0.07c0.05-0.02,0.06,0.02,0.08,0.07c0.08,0.28-0.04,0.54-0.33,0.65c-0.69,0.26-1.38,0.52-2.08,0.78
		c-0.74,0.28-1.48,0.55-2.21,0.83c-0.18,0.07-0.34,0.07-0.52,0.01c-1.42-0.54-2.84-1.07-4.27-1.59c-0.19-0.07-0.34-0.16-0.36-0.38
		c-0.04-0.33-0.02-0.31,0.3-0.32c0.53-0.03,0.97,0.22,1.44,0.39c0.84,0.3,1.68,0.62,2.51,0.94c0.18,0.07,0.24,0.07,0.24-0.16
		c-0.01-1.44-0.01-2.88,0-4.32c0-0.15-0.04-0.23-0.19-0.28c-1.11-0.34-2.22-0.69-3.32-1.04c-0.16-0.05-0.22-0.02-0.2,0.15
		c0,0.01,0,0.02,0,0.02c-0.02,0.19,0.08,0.51-0.04,0.54c-0.2,0.06-0.44-0.11-0.67-0.17c-0.1-0.03-0.07-0.11-0.07-0.18
		c0-0.29,0-0.59,0-0.88C8.12,9.68,8.35,9.52,8.7,9.63c1.33,0.41,2.67,0.83,4,1.25c0.21,0.07,0.4,0.07,0.61,0
		c1.3-0.42,2.6-0.82,3.9-1.23c0.46-0.14,0.66,0,0.67,0.48c0,0.12,0,0.24,0,0.37c0,0.6,0,0.6-0.57,0.77
		C17.25,11.29,17.19,11.3,17.11,11.32z"/>
	<path d="M6.79,8.98c-0.33,0.02-0.59,0-0.85,0.05c-0.86,0.18-1.53,0.94-1.54,1.81c-0.02,1.5,0,3.01-0.01,4.52
		c0,0.17,0.07,0.18,0.2,0.18c0.84,0,1.68,0,2.51,0c0.15,0,0.25,0.02,0.3,0.19c0.06,0.23,0.23,0.4,0.44,0.59c-0.13,0-0.21,0-0.29,0
		c-1.9,0-3.81,0-5.71,0c-0.06,0-0.11,0-0.17,0c-0.25-0.01-0.41-0.17-0.41-0.39c0-0.22,0.16-0.38,0.42-0.39c0.5-0.01,0.99,0,1.49,0
		c0.44,0,0.44,0,0.44-0.45c0-1.4-0.01-2.8,0-4.2c0.01-1.17,0.78-2.2,1.89-2.55C5.66,8.3,5.76,8.31,5.87,8.41
		C6.12,8.65,6.42,8.81,6.79,8.98z"/>
	<path d="M18.15,16.31c0.24-0.2,0.4-0.41,0.47-0.67c0.04-0.15,0.15-0.1,0.24-0.1c0.84,0,1.68-0.01,2.51,0
		c0.18,0,0.23-0.05,0.23-0.23c-0.01-1.43,0-2.86,0-4.29c0-1.2-0.83-2.02-2.03-2.02c-0.1,0-0.19,0-0.3-0.02
		c0.35-0.18,0.67-0.38,0.96-0.64c0.08-0.07,0.17-0.01,0.25,0.02c1.12,0.35,1.88,1.38,1.89,2.57c0.01,1.46,0.01,2.91,0,4.37
		c0,0.2,0.04,0.26,0.25,0.26c0.54-0.02,1.07-0.01,1.61,0c0.31,0,0.49,0.15,0.49,0.39c0,0.24-0.18,0.39-0.49,0.39
		c-1.97,0-3.94,0-5.91,0C18.28,16.32,18.23,16.31,18.15,16.31z"/>
	<path d="M7.92,3.82c1.29,0,2.34,1.05,2.34,2.34c0,1.29-1.05,2.35-2.34,2.35c-1.3,0-2.35-1.06-2.35-2.37
		C5.58,4.87,6.64,3.82,7.92,3.82z M6.36,6.15c-0.01,0.86,0.7,1.57,1.56,1.57c0.85,0,1.56-0.69,1.57-1.54
		C9.49,5.32,8.8,4.61,7.94,4.6C7.07,4.59,6.37,5.29,6.36,6.15z"/>
	<path d="M20.42,6.16c0,1.29-1.06,2.35-2.34,2.34c-1.3,0-2.35-1.06-2.34-2.37c0.01-1.27,1.07-2.32,2.34-2.32
		C19.37,3.82,20.42,4.87,20.42,6.16z M19.64,6.17c0-0.86-0.7-1.57-1.56-1.57c-0.86,0-1.56,0.7-1.56,1.57c0,0.85,0.7,1.55,1.55,1.56
		C18.93,7.73,19.64,7.03,19.64,6.17z"/>
	<path d="M11.78,5.67c0.03-0.15,0.06-0.35,0.09-0.55c0.03-0.14,0.01-0.25-0.11-0.35c-0.15-0.13-0.28-0.27-0.41-0.42
		c-0.21-0.25-0.11-0.56,0.2-0.64c0.18-0.05,0.37-0.07,0.55-0.09c0.14-0.01,0.24-0.07,0.29-0.21c0.07-0.17,0.16-0.34,0.24-0.51
		c0.07-0.15,0.19-0.25,0.36-0.25c0.17,0,0.31,0.08,0.36,0.24c0.16,0.53,0.47,0.81,1.05,0.82c0.36,0.01,0.46,0.39,0.21,0.67
		c-0.04,0.05-0.08,0.1-0.14,0.14c-0.36,0.25-0.42,0.58-0.29,0.97c0.03,0.09,0.04,0.19,0.04,0.29c-0.01,0.28-0.27,0.46-0.53,0.35
		c-0.18-0.08-0.35-0.17-0.51-0.28c-0.12-0.08-0.23-0.09-0.36,0c-0.15,0.1-0.31,0.18-0.47,0.26C12.04,6.26,11.76,6.07,11.78,5.67z
		 M12.68,5.02c0.22-0.13,0.42-0.11,0.65-0.01c-0.09-0.28,0.02-0.47,0.21-0.64c-0.12-0.04-0.22-0.07-0.31-0.11
		c-0.11-0.05-0.14-0.17-0.24-0.28c-0.07,0.28-0.29,0.33-0.51,0.4C12.67,4.54,12.75,4.75,12.68,5.02z"/>
	<path d="M19.84,11.39c0,0.71,0,0.71-0.67,0.93c-0.59,0.19-1.19,0.38-1.79,0.57c-0.28,0.09-0.36,0.34-0.17,0.51
		c0.11,0.1,0.23,0.09,0.37,0.05c0.44-0.14,0.88-0.28,1.33-0.41c0.22-0.07,0.41,0.02,0.49,0.2c0.1,0.21,0,0.45-0.24,0.53
		c-0.49,0.16-0.99,0.33-1.49,0.46c-0.56,0.15-1.13-0.19-1.29-0.73c-0.16-0.55,0.11-1.13,0.67-1.32c0.58-0.2,1.17-0.39,1.76-0.56
		c0.2-0.06,0.29-0.14,0.26-0.35c-0.02-0.11-0.01-0.23,0-0.34c0.02-0.22,0.19-0.37,0.39-0.37c0.21,0,0.37,0.16,0.39,0.39
		C19.85,11.09,19.84,11.24,19.84,11.39z"/>
	<path d="M9.68,13.18c0,0.66-0.64,1.21-1.29,1.06c-0.53-0.13-1.04-0.31-1.56-0.48c-0.22-0.07-0.3-0.29-0.23-0.5
		c0.07-0.19,0.26-0.3,0.47-0.23c0.44,0.13,0.88,0.27,1.33,0.41c0.25,0.08,0.42,0.01,0.48-0.18c0.05-0.17-0.05-0.32-0.3-0.39
		c-0.68-0.22-1.36-0.43-2.04-0.65c-0.3-0.1-0.37-0.2-0.37-0.51c0-0.24-0.01-0.49,0-0.73c0.01-0.25,0.17-0.41,0.39-0.41
		c0.22,0,0.37,0.16,0.39,0.41c0.02,0.19-0.09,0.42,0.06,0.55c0.13,0.11,0.34,0.13,0.52,0.19c0.47,0.15,0.95,0.29,1.41,0.46
		C9.4,12.33,9.68,12.72,9.68,13.18z"/>
	<path d="M16.82,8.92c-0.12,0.1-0.23,0.07-0.33,0.07c-0.37,0.01-0.71,0.09-1.01,0.3c-0.43,0.29-0.95,0.34-1.48,0.55
		c0.39-0.81,0.98-1.29,1.77-1.53c0.08-0.02,0.14,0,0.2,0.05C16.22,8.6,16.51,8.76,16.82,8.92z"/>
	<path d="M9.18,8.92c0.32-0.16,0.61-0.33,0.86-0.56c0.06-0.06,0.13-0.06,0.2-0.04c0.79,0.24,1.36,0.72,1.75,1.52
		c-0.52-0.21-1.03-0.25-1.47-0.54C10.22,9.09,9.87,9,9.49,8.99C9.39,8.99,9.28,9.02,9.18,8.92z"/>
</g>
</svg>
