<?xml version="1.0" encoding="utf-8"?>
<!-- Generator: Adobe Illustrator 25.4.1, SVG Export Plug-In . SVG Version: 6.00 Build 0)  -->
<svg version="1.1" id="Layer_1" xmlns="http://www.w3.org/2000/svg" xmlns:xlink="http://www.w3.org/1999/xlink" x="0px" y="0px"
	 viewBox="0 0 26 26" style="enable-background:new 0 0 26 26;" xml:space="preserve">
<style type="text/css">
	.st0{fill:#EEEBE7;}
	.st1{fill:#C5C2BC;}
</style>
<g>
	<path d="M0.5,8.12c0.25-0.85,0.99-1.17,1.7-1.52c0.06-0.03,0.1-0.02,0.15,0.03c0.17,0.18,0.37,0.31,0.61,0.46
		C2.61,7.27,2.3,7.43,1.98,7.59c-0.15,0.08-0.3,0.15-0.43,0.27C1.37,8.04,1.28,8.23,1.28,8.49c0.01,0.8,0,1.61,0,2.41
		c0,0.23-0.03,0.43-0.27,0.52c-0.24,0.09-0.38-0.07-0.51-0.22C0.5,10.17,0.5,9.15,0.5,8.12z"/>
	<path d="M18.45,19.48c0.02-0.25,0.03-0.51-0.04-0.75c-0.04-0.12,0.06-0.15,0.13-0.2c0.56-0.36,1.13-0.71,1.69-1.06
		c0.07-0.04,0.13-0.09,0.22-0.14c-0.31-0.2-0.64-0.29-0.98-0.21c-0.34,0.08-0.58,0.36-0.92,0.52c0.18-0.48,0.07-0.96,0.12-1.43
		c0.02,0,0.04-0.01,0.05,0c0.23,0.21,0.5,0.18,0.79,0.15c0.55-0.05,1.07,0.1,1.52,0.42c0.13,0.09,0.25,0.11,0.4,0.07
		c0.8-0.18,1.53,0.27,1.68,1.01c0.08,0.36-0.02,0.68-0.23,0.96c-0.17,0.22-0.39,0.38-0.63,0.53c-2.06,1.31-4.13,2.6-6.17,3.93
		c-0.72,0.47-1.44,0.57-2.23,0.34c-1.74-0.5-3.48-1-5.22-1.5c-0.23-0.07-0.44-0.07-0.67,0c-0.56,0.18-1.12,0.34-1.68,0.5
		c-0.12,0.04-0.21,0.09-0.28,0.21c-0.21,0.35-0.52,0.53-0.93,0.53c-0.73,0.01-1.46,0.01-2.2,0c-0.57-0.01-1.02-0.46-1.03-1.03
		c-0.01-1.78-0.01-3.56,0-5.35c0-0.58,0.46-1.04,1.04-1.04c0.72-0.01,1.45,0,2.17,0c0.37,0,0.68,0.15,0.9,0.46
		c0.07,0.1,0.13,0.15,0.26,0.11c1.8-0.65,3.57-0.34,5.33,0.19c1.25,0.38,2.48,0.85,3.76,1.11c0.42,0.09,0.85,0.15,1.27,0.22
		c0.16,0.03,0.31,0.09,0.46,0.17c0.69,0.39,0.83,1.12,0.32,1.73c-0.42,0.51-0.98,0.76-1.63,0.84c-1.49,0.18-2.91-0.08-4.27-0.72
		c-0.27-0.13-0.36-0.32-0.27-0.54c0.09-0.22,0.32-0.29,0.6-0.16c0.99,0.44,2.02,0.72,3.11,0.7c0.33-0.01,0.67-0.03,0.99-0.1
		c0.37-0.08,0.68-0.26,0.9-0.58c0.15-0.21,0.1-0.38-0.13-0.5c-0.15-0.08-0.31-0.11-0.47-0.12c-1.24-0.1-2.41-0.52-3.59-0.89
		c-1.06-0.33-2.11-0.69-3.22-0.86c-1.07-0.17-2.1-0.04-3.12,0.31c-0.11,0.04-0.13,0.1-0.13,0.2c0,1.4,0,2.8,0,4.2
		c0,0.16,0.06,0.14,0.17,0.11c0.5-0.15,1-0.29,1.49-0.45c0.31-0.1,0.62-0.1,0.93-0.01c1.67,0.49,3.34,0.96,5.01,1.45
		c0.21,0.06,0.42,0.11,0.64,0.15c0.4,0.07,0.77,0,1.12-0.23c2.16-1.38,4.32-2.75,6.48-4.12c0.34-0.22,0.43-0.41,0.32-0.67
		c-0.11-0.26-0.43-0.39-0.77-0.31c-0.11,0.03-0.21,0.08-0.31,0.14c-0.86,0.54-1.72,1.08-2.58,1.62
		C18.61,19.41,18.55,19.48,18.45,19.48z M2.65,19.64c0,0.86,0,1.72,0,2.59c0,0.26,0.08,0.35,0.35,0.35c0.68,0,1.37,0,2.05,0
		c0.25,0,0.34-0.09,0.34-0.34c0-1.72,0-3.45,0-5.17c0-0.25-0.09-0.34-0.34-0.34c-0.68-0.01-1.37,0-2.05,0
		c-0.26,0-0.35,0.09-0.35,0.35C2.65,17.93,2.65,18.78,2.65,19.64z"/>
	<path d="M11.44,9.01c0.02-0.3-0.04-0.68,0.04-1.06c0.19-0.98,1.09-1.66,2.08-1.57c0.98,0.08,1.77,0.89,1.78,1.87
		c0.01,0.67,0.07,1.34-0.04,2c-0.17,0.99-1.08,1.68-2.08,1.59c-0.98-0.09-1.75-0.91-1.78-1.91C11.43,9.64,11.44,9.37,11.44,9.01z
		 M12.22,9.09c0,0.27-0.01,0.54,0,0.8c0.01,0.65,0.53,1.16,1.17,1.16c0.64,0,1.16-0.51,1.17-1.16c0.01-0.53,0.01-1.06,0-1.59
		c-0.01-0.65-0.53-1.16-1.17-1.16c-0.64,0-1.15,0.51-1.17,1.16C12.21,8.57,12.22,8.83,12.22,9.09z"/>
	<path d="M2.45,4.35C2.47,4.1,2.42,3.78,2.5,3.47c0.18-0.76,0.89-1.27,1.67-1.2c0.76,0.07,1.38,0.71,1.41,1.47
		c0.02,0.45,0.02,0.89,0,1.34C5.54,5.91,4.84,6.57,4,6.56C3.17,6.55,2.48,5.88,2.46,5.05C2.45,4.84,2.45,4.63,2.45,4.35z M4.8,4.4
		c0-0.2,0.01-0.39,0-0.59C4.78,3.38,4.43,3.04,4.01,3.05c-0.43,0-0.77,0.34-0.77,0.78C3.23,4.22,3.23,4.61,3.24,5
		c0.01,0.44,0.35,0.78,0.77,0.78c0.43,0,0.78-0.34,0.79-0.79C4.8,4.79,4.8,4.6,4.8,4.4z"/>
	<path d="M23.54,4.51c-0.01,0.22,0.03,0.53-0.04,0.83c-0.18,0.76-0.88,1.28-1.66,1.21c-0.77-0.07-1.39-0.71-1.42-1.49
		c-0.01-0.44-0.01-0.88,0-1.32c0.03-0.82,0.72-1.48,1.54-1.49c0.84-0.01,1.54,0.65,1.58,1.48C23.55,3.97,23.54,4.2,23.54,4.51z
		 M21.2,4.42c0,0.2-0.01,0.41,0,0.61c0.02,0.42,0.37,0.75,0.78,0.75c0.42,0,0.76-0.33,0.78-0.75c0.01-0.41,0.01-0.81,0-1.22
		c-0.01-0.43-0.35-0.76-0.77-0.76c-0.43,0-0.77,0.33-0.79,0.76C21.2,4.01,21.2,4.22,21.2,4.42z"/>
	<path d="M13.39,16.33c-0.13,0-0.23-0.06-0.32-0.16c-0.3-0.32-0.6-0.64-0.9-0.96c-0.12-0.13-0.17-0.27-0.13-0.45
		c0.15-0.7,0.31-1.4,0.45-2.1c0.03-0.15,0.09-0.19,0.22-0.14c0.02,0.01,0.05,0.01,0.07,0.02c0.16,0.05,0.42-0.02,0.48,0.13
		c0.06,0.13-0.05,0.34-0.09,0.52c-0.09,0.45-0.18,0.89-0.29,1.33c-0.05,0.19,0,0.31,0.13,0.45c0.38,0.39,0.37,0.39,0.74,0
		c0.13-0.14,0.18-0.26,0.13-0.45c-0.14-0.58-0.25-1.16-0.38-1.74c-0.03-0.12-0.02-0.19,0.12-0.18c0.04,0,0.08-0.01,0.12-0.02
		c0.5-0.08,0.5-0.08,0.61,0.41c0.12,0.57,0.24,1.15,0.37,1.72c0.04,0.19,0.01,0.35-0.12,0.49c-0.3,0.32-0.6,0.64-0.9,0.96
		C13.62,16.26,13.52,16.33,13.39,16.33z"/>
	<path d="M5.38,9.29c0.01,0.14-0.06,0.25-0.16,0.34c-0.3,0.29-0.59,0.59-0.88,0.87c-0.23,0.22-0.42,0.22-0.64,0
		c-0.3-0.29-0.6-0.59-0.9-0.89C2.67,9.49,2.63,9.35,2.67,9.18c0.14-0.61,0.29-1.22,0.42-1.83C3.12,7.22,3.16,7.16,3.3,7.23
		c0.06,0.03,0.12,0.04,0.19,0.05c0.4,0.09,0.4,0.09,0.31,0.51C3.7,8.18,3.62,8.57,3.52,8.95C3.47,9.12,3.5,9.23,3.63,9.35
		c0.39,0.37,0.38,0.37,0.76,0.01c0.13-0.12,0.17-0.22,0.12-0.4C4.39,8.49,4.29,8.01,4.18,7.54C4.14,7.4,4.16,7.33,4.32,7.31
		c0.15-0.01,0.3-0.06,0.45-0.1c0.09-0.03,0.14,0,0.16,0.08c0.15,0.66,0.3,1.31,0.45,1.97C5.38,9.27,5.38,9.28,5.38,9.29z"/>
	<path d="M22.05,10.66c-0.19,0-0.29-0.06-0.38-0.15c-0.3-0.3-0.6-0.6-0.9-0.89c-0.13-0.13-0.18-0.28-0.13-0.46
		c0.14-0.6,0.28-1.2,0.42-1.8c0.03-0.15,0.09-0.19,0.23-0.12c0.06,0.03,0.14,0.04,0.21,0.06c0.37,0.07,0.37,0.07,0.28,0.45
		c-0.1,0.42-0.19,0.84-0.3,1.26c-0.04,0.15,0,0.24,0.1,0.34c0.4,0.4,0.4,0.39,0.79,0.02c0.12-0.11,0.15-0.22,0.11-0.38
		c-0.12-0.46-0.21-0.93-0.33-1.4c-0.05-0.18,0-0.26,0.18-0.26c0.05,0,0.1-0.01,0.14-0.02c0.4-0.08,0.4-0.08,0.49,0.33
		c0.12,0.51,0.23,1.01,0.36,1.52c0.05,0.21,0,0.36-0.14,0.51c-0.29,0.28-0.58,0.57-0.87,0.86C22.22,10.59,22.12,10.66,22.05,10.66z"
		/>
	<path d="M15,12.1c0.18-0.17,0.37-0.32,0.51-0.5c0.05-0.07,0.1-0.06,0.17-0.02c0.43,0.22,0.89,0.4,1.3,0.67
		c0.6,0.4,0.93,0.95,0.91,1.7c-0.02,0.97,0,1.93-0.01,2.9c0,0.33-0.24,0.53-0.51,0.44c-0.2-0.07-0.27-0.24-0.27-0.44
		c0-0.94-0.02-1.89,0.01-2.83c0.02-0.6-0.26-0.97-0.75-1.23c-0.39-0.21-0.78-0.39-1.18-0.58C15.13,12.17,15.07,12.14,15,12.1z"/>
	<path d="M5.09,7.1c0.16-0.12,0.32-0.19,0.42-0.31C5.7,6.56,5.87,6.6,6.09,6.73c0.3,0.18,0.63,0.3,0.9,0.54
		c0.36,0.32,0.55,0.71,0.55,1.2c-0.01,0.84,0,1.68,0,2.51c0,0.36-0.3,0.57-0.58,0.4c-0.16-0.09-0.2-0.24-0.2-0.42
		c0-0.8-0.01-1.6,0.01-2.39c0.01-0.43-0.19-0.71-0.54-0.9C5.85,7.49,5.48,7.3,5.09,7.1z"/>
	<path d="M23.05,7.1c0.16-0.12,0.32-0.19,0.42-0.31c0.19-0.22,0.35-0.19,0.58-0.06c0.3,0.18,0.63,0.3,0.9,0.54
		c0.36,0.32,0.55,0.71,0.55,1.2c-0.01,0.84,0,1.68,0,2.51c0,0.29-0.17,0.48-0.42,0.46c-0.23-0.02-0.36-0.18-0.36-0.47
		c0-0.8-0.02-1.6,0.01-2.39c0.01-0.43-0.19-0.71-0.54-0.9C23.82,7.49,23.45,7.3,23.05,7.1z"/>
	<path d="M20.92,7.09c-0.37,0.19-0.71,0.37-1.05,0.54c-0.42,0.21-0.65,0.51-0.63,1.02c0.03,0.79,0.01,1.58,0.01,2.36
		c0,0.26-0.17,0.43-0.4,0.43c-0.22,0-0.37-0.17-0.38-0.42c0-0.06,0-0.11,0-0.17c0-0.76,0.02-1.53,0-2.29
		c-0.02-0.67,0.28-1.15,0.83-1.49c0.27-0.17,0.56-0.3,0.84-0.45c0.09-0.05,0.15-0.03,0.21,0.04C20.5,6.83,20.69,6.95,20.92,7.09z"/>
	<path d="M11.78,12.11c-0.42,0.21-0.82,0.41-1.22,0.6c-0.21,0.1-0.41,0.23-0.58,0.4c-0.2,0.2-0.31,0.43-0.3,0.72
		c0.01,0.48,0,0.96,0.01,1.44c0,0.16-0.04,0.21-0.19,0.17c-0.19-0.06-0.45,0.04-0.55-0.1C8.84,15.2,8.9,14.96,8.9,14.76
		c0-0.26,0.01-0.52,0-0.78c-0.05-0.83,0.35-1.42,1.04-1.82c0.37-0.22,0.77-0.39,1.15-0.58c0.09-0.05,0.15-0.04,0.21,0.04
		C11.42,11.8,11.6,11.93,11.78,12.11z"/>
	<path d="M4.4,18.29C4.4,18.5,4.22,18.67,4,18.67c-0.21-0.01-0.38-0.19-0.38-0.4c0.01-0.21,0.19-0.38,0.4-0.38
		C4.24,17.9,4.41,18.08,4.4,18.29z"/>
</g>
</svg>
