<?xml version="1.0" encoding="utf-8"?>
<!-- Generator: Adobe Illustrator 25.4.1, SVG Export Plug-In . SVG Version: 6.00 Build 0)  -->
<svg version="1.1" id="Layer_1" xmlns="http://www.w3.org/2000/svg" xmlns:xlink="http://www.w3.org/1999/xlink" x="0px" y="0px"
	 viewBox="0 0 26 26" style="enable-background:new 0 0 26 26;" xml:space="preserve">
<style type="text/css">
	.st0{fill:#EEEBE7;}
	.st1{fill:#C5C2BC;}
</style>
<g>
	<path d="M7.35,22.86c-0.36,0.15-0.7,0.26-1.07,0.18c-0.31-0.06-0.59-0.19-0.82-0.41c-0.08-0.08-0.13-0.11-0.24-0.02
		C4.7,23.1,4.1,23.21,3.45,22.91c-0.65-0.3-0.94-0.85-0.94-1.56c0-1.9,0-3.8,0.01-5.69c0-0.18-0.04-0.25-0.24-0.27
		c-1.06-0.14-1.78-0.96-1.78-2.04c0-0.76,0-1.53,0-2.29C0.51,9.1,1.61,7.51,3.43,6.81C3.47,6.8,3.51,6.78,3.58,6.75
		C2.82,6.08,2.44,5.27,2.53,4.27C2.59,3.58,2.88,2.98,3.39,2.5c1.05-0.99,2.62-1.06,3.72-0.16c0.64,0.53,1,1.21,1.04,2.05
		C8.2,5.21,7.9,5.91,7.34,6.52c0.87,0.09,1.84-0.55,2.22-1.43c0.14-0.32,0.2-0.65,0.2-1c0-0.71,0-1.41,0-2.12
		c0-0.83,0.61-1.47,1.4-1.47c0.81,0,1.42,0.63,1.42,1.48c0,0.84,0,1.68,0,2.52c-0.01,2.56-1.71,4.65-4.22,5.18
		C8.21,9.71,8.15,9.76,8.15,9.93c0.01,1.08,0.01,2.17,0,3.25c0,0.18,0.06,0.22,0.23,0.22c1.06-0.01,2.12-0.01,3.17,0
		c0.19,0,0.24-0.05,0.24-0.24c-0.01-1.36-0.01-2.72,0-4.08c0-0.84,0.49-1.33,1.33-1.33c0.83,0,1.66,0,2.49,0
		c0.16,0,0.21,0.04,0.21,0.21c-0.01,0.41,0,0.82-0.01,1.23c0,0.13,0.03,0.18,0.17,0.17c0.14-0.01,0.29,0.01,0.43-0.01
		c0.19-0.02,0.22,0.06,0.22,0.23c-0.01,0.8,0,1.6-0.01,2.39c0,0.17,0.05,0.21,0.21,0.21c0.55-0.02,1.08-0.13,1.59-0.35
		c0.45-0.2,0.9-0.41,1.41-0.56C19,10.62,18.58,9.8,18.65,8.76c0.05-0.75,0.37-1.39,0.93-1.89c1.14-1.02,2.89-0.95,3.93,0.16
		c1.02,1.08,1.14,2.95-0.32,4.18c0.04,0.09,0.13,0.09,0.2,0.12c1.33,0.68,2.05,1.76,2.09,3.25c0.03,1.1,0.01,2.2,0,3.3
		c-0.01,0.74-0.29,1.38-0.83,1.96c0.29,0.04,0.52,0.14,0.68,0.36c0.22,0.3,0.22,1.42,0,1.73c-0.17,0.24-0.41,0.35-0.71,0.35
		c-1.1,0-2.2,0-3.3-0.01c-0.21,0-0.29,0.03-0.28,0.27c0.02,0.91,0,1.81,0.01,2.72c0,0.21-0.06,0.25-0.25,0.24
		c-0.65-0.01-1.29-0.01-1.94,0c-0.19,0-0.24-0.05-0.24-0.24c0.01-1.18,0-2.37,0-3.55c0-0.01,0-0.02-0.01-0.03
		c-0.07,0.03-0.07,0.1-0.09,0.16c-0.3,0.89-0.6,1.78-0.89,2.67c-0.4,1.22-2.06,1.24-2.67,0.5c-0.35-0.42-0.46-0.89-0.29-1.41
		c0.53-1.6,1.06-3.2,1.6-4.79c0.29-0.84,1.03-1.36,1.92-1.37c0.08,0,0.17-0.01,0.25,0c0.13,0.01,0.19-0.03,0.19-0.18
		c0.02-0.63,0.02-0.63-0.62-0.63c-2.66,0-5.32,0-7.98-0.01c-0.22,0-0.28,0.05-0.28,0.27c0.01,2.78,0,5.56,0.01,8.34
		c0,0.2-0.04,0.27-0.26,0.27c-0.64-0.02-1.28-0.02-1.91,0c-0.22,0.01-0.26-0.06-0.26-0.27C7.36,24.45,7.35,23.67,7.35,22.86z
		 M3.32,17.3c0,1.38,0,2.75,0,4.13c0,0.44,0.31,0.79,0.72,0.83c0.4,0.04,0.79-0.24,0.87-0.64c0.02-0.11,0.02-0.22,0.02-0.33
		c0-2.32,0-4.65,0-6.97c0-0.52,0-0.51,0.52-0.52c0.23-0.01,0.29,0.05,0.29,0.28c-0.01,2.44-0.01,4.88,0,7.33
		c0,0.49,0.34,0.85,0.8,0.86c0.46,0,0.81-0.36,0.81-0.84c0-2.76,0-5.52,0-8.28c0-0.13-0.03-0.19-0.16-0.23
		c-0.95-0.32-1.45-1.03-1.45-2.03c0-0.99,0-1.98,0-2.97c0-0.56,0-0.55-0.56-0.56c-0.19,0-0.25,0.04-0.25,0.25
		c0.01,1.12,0.01,2.25,0,3.37c0,0.91-0.55,1.65-1.42,1.93c-0.16,0.05-0.2,0.12-0.2,0.28C3.32,14.55,3.32,15.93,3.32,17.3z
		 M24.68,16.2c0-0.54,0.01-1.07,0-1.61c-0.02-1.58-1.28-2.81-2.86-2.8c-1,0.01-1.94,0.24-2.84,0.68c-0.75,0.37-1.55,0.54-2.38,0.53
		c-0.57-0.01-1.14,0-1.71,0c-0.19,0-0.37,0.04-0.5,0.18c-0.18,0.19-0.23,0.41-0.13,0.65c0.11,0.26,0.32,0.38,0.6,0.38
		c1.09,0,2.18,0,3.27-0.01c0.21,0,0.42-0.04,0.62-0.07c0.73-0.12,1.35-0.5,1.99-0.82c0.55-0.27,0.55-0.27,0.82,0.28
		c0.07,0.14,0.06,0.21-0.09,0.27c-0.09,0.03-0.16,0.09-0.25,0.12c-0.13,0.05-0.17,0.13-0.17,0.27c0,1.8,0.01,3.61,0,5.41
		c0,0.18,0.06,0.2,0.22,0.2c0.46-0.01,0.92,0,1.38,0c1.15-0.01,2.02-0.89,2.03-2.03C24.69,17.28,24.68,16.74,24.68,16.2z M6.55,9.29
		c0,0.56-0.01,1.12,0,1.69c0.01,0.46,0.22,0.8,0.6,1.04c0.16,0.1,0.21,0.07,0.21-0.12c-0.01-0.86,0.01-1.73-0.01-2.59
		C7.34,9.05,7.41,8.98,7.66,8.96c2.33-0.17,4.11-2.07,4.13-4.41c0.01-0.85,0-1.7,0-2.54c0-0.43-0.25-0.71-0.61-0.7
		c-0.36,0.01-0.59,0.28-0.59,0.7c0,0.71,0,1.43,0,2.14c-0.01,1.48-1.03,2.76-2.47,3.11c-0.43,0.11-0.87,0.1-1.3,0.09
		C6.6,7.34,6.53,7.39,6.54,7.6C6.56,8.17,6.55,8.73,6.55,9.29z M20.25,14.47c-0.1,0.04-0.16,0.06-0.22,0.09
		c-0.67,0.3-1.37,0.45-2.1,0.45c-1.63,0-3.26,0-4.88,0c-0.51,0-0.89-0.22-1.12-0.67c-0.06-0.11-0.12-0.14-0.23-0.14
		c-1.12,0-2.23,0.01-3.35,0c-0.16,0-0.2,0.05-0.19,0.2c0.01,0.38,0.02,0.76,0,1.13c-0.01,0.23,0.05,0.29,0.28,0.29
		c3.84-0.01,7.69-0.01,11.53-0.01c0.04,0,0.08,0,0.13,0c0.12,0.01,0.16-0.03,0.16-0.16C20.24,15.28,20.25,14.89,20.25,14.47z
		 M5.33,6.55c1.11,0,2.02-0.9,2.02-2.01c0-1.1-0.89-2.01-1.99-2.02c-1.11-0.01-2.03,0.89-2.04,2C3.32,5.63,4.22,6.54,5.33,6.55z
		 M23.47,8.99c0.01-1.11-0.89-2.03-2-2.04c-1.1-0.01-2.01,0.88-2.03,1.98c-0.01,1.12,0.88,2.04,1.99,2.05
		C22.54,10.99,23.46,10.09,23.47,8.99z M4.13,7.47C2.77,7.7,1.53,9,1.36,10.4c-0.12,1.04-0.06,2.08-0.04,3.12
		c0.01,0.52,0.43,0.93,0.94,1.05c0.2,0.05,0.26,0.02,0.26-0.2c-0.01-1.34,0-2.69,0-4.03c0-0.58,0-0.57,0.57-0.58
		c0.21,0,0.24,0.07,0.24,0.26c-0.01,0.63,0,1.26-0.01,1.89c0,0.19,0.05,0.2,0.19,0.11c0.39-0.24,0.61-0.59,0.61-1.06
		c0.01-0.82,0-1.65,0-2.47C4.13,8.16,4.13,7.81,4.13,7.47z M18.64,19.08c0-0.23,0-0.47,0-0.7c0-0.07,0.01-0.12-0.09-0.15
		c-0.6-0.13-1.26,0.2-1.48,0.78c-0.08,0.2-0.14,0.41-0.21,0.62c-0.46,1.37-0.92,2.75-1.38,4.12c-0.15,0.44,0.03,0.83,0.43,0.91
		c0.47,0.09,0.84,0.01,1.02-0.55c0.39-1.21,0.8-2.42,1.2-3.62c0.05-0.15,0.1-0.33,0.24-0.4c0.3-0.15,0.27-0.4,0.27-0.65
		C18.63,19.32,18.64,19.2,18.64,19.08z M13.51,14.18c-0.01-0.04-0.01-0.07-0.02-0.1c-0.31-1.01,0.33-1.88,1.38-1.89
		c0.26,0,0.52-0.01,0.78,0c0.14,0.01,0.17-0.04,0.17-0.17c-0.01-0.55-0.01-1.11,0-1.66c0-0.17-0.07-0.19-0.21-0.19
		c-0.52,0.01-1.04,0-1.56,0c-0.39,0-0.79,0.04-1.18-0.02c-0.28-0.04-0.29,0.04-0.29,0.27c0.01,0.98,0.02,1.96,0,2.94
		c-0.02,0.87,0.15,0.86,0.88,0.84C13.47,14.2,13.48,14.2,13.51,14.18z M8.96,20.65c0-1.17,0-2.33,0-3.5c0-0.53,0-0.52-0.54-0.54
		c-0.22-0.01-0.28,0.05-0.27,0.27c0.01,2.41,0.01,4.82,0.01,7.22c0,0.57,0,0.56,0.57,0.57c0.19,0,0.24-0.05,0.24-0.24
		C8.96,23.18,8.96,21.92,8.96,20.65z M19.44,20.64c0,1.17,0,2.33,0,3.5c0,0.55,0,0.54,0.55,0.55c0.21,0.01,0.27-0.04,0.26-0.26
		c-0.01-2.42-0.01-4.83-0.01-7.25c0-0.56,0-0.55-0.56-0.56c-0.19,0-0.25,0.04-0.25,0.25C19.45,18.12,19.44,19.38,19.44,20.64z
		 M22.88,20.65c-0.42,0-0.84,0-1.26,0c-0.57,0-0.57,0-0.57,0.57c0,0.18,0.04,0.24,0.23,0.24c0.94-0.01,1.88,0,2.82,0
		c0.59,0,0.58,0,0.59-0.58c0-0.17-0.04-0.23-0.22-0.23C23.94,20.66,23.41,20.65,22.88,20.65z M13.94,9.37c0.16,0,0.32,0,0.48,0
		c0.61,0,0.61,0,0.6-0.62c0-0.14-0.03-0.19-0.18-0.19c-0.6,0.01-1.21,0-1.81,0.01c-0.26,0-0.43,0.17-0.43,0.39
		c-0.01,0.24,0.17,0.4,0.44,0.41C13.34,9.37,13.64,9.37,13.94,9.37z"/>
	<path d="M18.63,0.5c1.04,0,2.08,0,3.12,0c0.82,0,1.31,0.5,1.31,1.32c0,0.74,0,1.48,0,2.22c0,0.8-0.51,1.3-1.31,1.3
		c-0.96,0-1.91,0-2.87,0c-0.18,0-0.26,0.02-0.26,0.24c0.01,0.43-0.21,0.74-0.6,0.9c-0.39,0.16-0.74,0.07-1.05-0.21
		c-0.27-0.26-0.54-0.53-0.8-0.8C16.09,5.37,16,5.33,15.87,5.33c-0.25,0-0.5,0.03-0.75-0.04c-0.53-0.14-0.9-0.59-0.91-1.13
		c-0.01-0.83-0.01-1.66,0-2.49c0.01-0.66,0.54-1.17,1.2-1.17C16.49,0.5,17.56,0.5,18.63,0.5z M18.63,1.31c-1.05,0-2.1,0-3.15,0
		c-0.31,0-0.47,0.14-0.47,0.43c-0.01,0.79-0.01,1.58,0,2.37c0,0.27,0.16,0.42,0.43,0.43c0.24,0.01,0.49,0.01,0.73,0
		c0.15-0.01,0.27,0.04,0.37,0.15c0.31,0.33,0.64,0.64,0.96,0.96c0.06,0.06,0.12,0.12,0.22,0.07c0.09-0.04,0.11-0.11,0.11-0.21
		c0-0.24,0.01-0.49,0-0.73c-0.01-0.19,0.04-0.25,0.24-0.25c1.22,0.01,2.45,0.01,3.67,0c0.38,0,0.52-0.14,0.52-0.51
		c0-0.72,0-1.44,0-2.16c0-0.41-0.13-0.55-0.54-0.55C20.69,1.31,19.66,1.31,18.63,1.31z"/>
	<path d="M17.02,3.32c-0.39,0-0.39,0-0.39-0.47c0-0.34,0-0.34,0.5-0.34c0.31,0,0.31,0,0.31,0.51C17.43,3.32,17.43,3.32,17.02,3.32z"
		/>
	<path d="M18.63,3.32c-0.4,0-0.4,0-0.4-0.49c0-0.32,0-0.32,0.49-0.32c0.31,0,0.31,0,0.31,0.5C19.04,3.32,19.04,3.32,18.63,3.32z"/>
	<path d="M20.26,2.52c0.39,0,0.39,0,0.39,0.4c0,0.41,0,0.41-0.41,0.41c-0.4,0-0.4,0-0.4-0.39C19.85,2.52,19.85,2.52,20.26,2.52z"/>
</g>
</svg>
