<?xml version="1.0" encoding="utf-8"?>
<!-- Generator: Adobe Illustrator 25.4.1, SVG Export Plug-In . SVG Version: 6.00 Build 0)  -->
<svg version="1.1" id="Layer_1" xmlns="http://www.w3.org/2000/svg" xmlns:xlink="http://www.w3.org/1999/xlink" x="0px" y="0px"
	 viewBox="0 0 26 26" style="enable-background:new 0 0 26 26;" xml:space="preserve">
<style type="text/css">
	.st0{fill:#EEEBE7;}
	.st1{fill:#C5C2BC;}
</style>
<g>
	<path d="M0.5,21.89c0.2-0.26,0.48-0.22,0.75-0.21c0.22,0.01,0.27-0.06,0.27-0.27c-0.01-4.26-0.01-8.53,0-12.79
		c0-0.91,0.52-1.61,1.34-1.8c0.34-0.08,0.7-0.05,1.05-0.05c0.13,0,0.21,0,0.15-0.18c-0.23-0.76,0.06-1.43,0.77-1.8
		c1.83-0.97,3.66-1.94,5.49-2.91c0.49-0.26,0.98-0.52,1.46-0.78c0.8-0.42,1.6-0.43,2.4-0.02c0.31,0.16,0.62,0.32,0.93,0.49
		c0.23,0.13,0.3,0.33,0.2,0.53c-0.1,0.18-0.31,0.24-0.53,0.12c-0.32-0.16-0.63-0.34-0.95-0.5c-0.55-0.28-1.11-0.29-1.66,0
		C9.83,2.96,7.49,4.2,5.15,5.44C4.87,5.59,4.71,5.81,4.71,6.12c0,0.31,0.15,0.54,0.43,0.69c2.35,1.24,4.69,2.49,7.04,3.73
		c0.54,0.29,1.09,0.28,1.64,0c0.53-0.27,1.05-0.56,1.58-0.83c0.16-0.08,0.14-0.14,0.04-0.26c-0.86-0.97-1.72-1.95-2.58-2.93
		c-0.26-0.29-0.28-0.51-0.09-0.67c0.19-0.15,0.39-0.09,0.64,0.19c0.9,1.02,1.79,2.04,2.68,3.07c0.11,0.13,0.19,0.14,0.34,0.06
		c1.45-0.77,2.9-1.54,4.35-2.31c0.31-0.16,0.51-0.38,0.51-0.74c0-0.35-0.21-0.56-0.51-0.72c-1.52-0.8-3.03-1.6-4.55-2.41
		c-0.04-0.02-0.07-0.04-0.11-0.06c-0.2-0.12-0.27-0.33-0.17-0.52c0.1-0.17,0.3-0.24,0.51-0.13c0.46,0.23,0.91,0.47,1.36,0.71
		c1.04,0.55,2.08,1.1,3.12,1.66c0.98,0.52,1.21,1,0.96,2.11c0.23,0,0.46,0,0.68,0c1.17,0,1.89,0.72,1.89,1.89
		c0,4.24,0,8.48-0.01,12.72c0,0.24,0.05,0.32,0.3,0.31c0.7-0.02,0.72,0.01,0.72,0.73c0,0.41,0.01,0.83-0.14,1.23
		c-0.33,0.91-1.15,1.53-2.12,1.58c-0.09,0-0.18,0.01-0.27,0.01c-6.65,0-13.29,0-19.94,0c-1.01,0-1.77-0.41-2.27-1.29
		c-0.14-0.24-0.19-0.52-0.26-0.78C0.5,22.73,0.5,22.31,0.5,21.89z M6.6,8.45C6.59,8.43,6.59,8.41,6.58,8.41
		c-0.56-0.3-1.09-0.68-1.69-0.86C4.41,7.4,3.86,7.5,3.34,7.5c-0.67,0-1.09,0.42-1.09,1.08c0,4.29,0,8.58,0,12.87
		c0,0.18,0.05,0.23,0.23,0.23c7.01,0,14.03,0,21.04,0c0.18,0,0.23-0.05,0.23-0.23c-0.01-4.29,0-8.58,0-12.87
		c0-0.66-0.42-1.07-1.09-1.08c-0.46,0-0.91,0-1.37,0c-0.06,0-0.14-0.01-0.19,0.02c-0.57,0.3-1.14,0.6-1.72,0.9
		c0,0.02,0.01,0.04,0.01,0.06c0.08,0,0.17,0,0.25,0c0.86,0,1.73,0,2.59,0c0.43,0,0.53,0.1,0.53,0.53c0,3.72,0,7.44,0,11.16
		c0,0.43-0.1,0.53-0.53,0.53c-5.03,0-10.06,0-15.09,0c-0.08,0-0.16,0-0.24-0.02c-0.19-0.04-0.3-0.18-0.29-0.37
		c0.01-0.19,0.12-0.32,0.32-0.34c0.1-0.01,0.2-0.01,0.29-0.01c4.83,0,9.65,0,14.48,0c0.37,0,0.32,0.04,0.32-0.33
		c0-3.16,0-6.31,0-9.47c0-0.26,0-0.52,0-0.78c0-0.12-0.03-0.18-0.16-0.18c-0.98,0-1.97,0-2.95,0c-0.13,0-0.17,0.05-0.17,0.17
		c0.01,0.34,0,0.68,0,1.03c0.01,1.56-0.68,2.69-2.11,3.35c-0.06,0.03-0.14,0.03-0.14,0.12c0.02,0.27-0.06,0.55,0.1,0.81
		c0.23,0.37,0.45,0.75,0.66,1.14c0.35,0.67-0.04,1.46-0.77,1.61c-0.13,0.03-0.28,0.02-0.41,0.02c-0.99,0-1.5-0.88-1.01-1.75
		c0.2-0.35,0.39-0.69,0.6-1.03c0.07-0.12,0.09-0.23,0.1-0.37c0.01-0.2-0.04-0.22-0.23-0.17c-1.94,0.53-3.86,0.45-5.76-0.19
		c-1.31-0.44-2.19-1.28-2.49-2.65c-0.14-0.61-0.06-1.23-0.07-1.85c0-0.16-0.03-0.23-0.21-0.23c-0.95,0.01-1.9,0.01-2.86,0
		C4,9.2,3.96,9.26,3.96,9.43c0,3.44,0,6.88,0,10.33c0,0.18,0.06,0.22,0.22,0.22c0.45-0.01,0.9-0.01,1.34,0
		c0.23,0.01,0.36,0.15,0.36,0.35c0,0.2-0.12,0.34-0.34,0.37c-0.05,0.01-0.1,0-0.15,0c-0.55,0-1.11,0-1.66,0
		c-0.4,0-0.5-0.11-0.5-0.51c0-3.74,0-7.47,0-11.21c0-0.4,0.11-0.51,0.51-0.51c0.87,0,1.74,0,2.61,0C6.43,8.47,6.52,8.5,6.6,8.45z
		 M12.99,24.49c3.3,0,6.61,0,9.91,0c0.2,0,0.41,0.01,0.61-0.04c0.81-0.2,1.26-0.85,1.27-1.79c0-0.18-0.03-0.25-0.23-0.25
		c-2.77,0.01-5.53,0.01-8.3,0c-0.17,0-0.23,0.06-0.28,0.22c-0.22,0.69-0.82,1.16-1.55,1.18c-0.94,0.02-1.89,0.02-2.83,0
		c-0.71-0.02-1.31-0.48-1.53-1.16c-0.06-0.2-0.16-0.24-0.34-0.23c-2.73,0.01-5.47,0-8.2,0c-0.06,0-0.11,0-0.17,0
		c-0.07,0-0.1,0.03-0.1,0.1C1.2,23.07,1.29,23.58,1.7,24c0.37,0.37,0.82,0.5,1.33,0.5C6.35,24.49,9.67,24.49,12.99,24.49z
		 M7.97,9.14c0,0.53-0.02,1.02,0,1.51c0.04,1.11,0.55,1.95,1.57,2.39c1.98,0.86,4.01,0.93,6.08,0.32c0.15-0.04,0.16-0.12,0.16-0.25
		c0-0.76,0-1.53,0-2.29c0-0.14,0-0.29,0-0.43c-0.12-0.01-0.19,0.05-0.26,0.09c-0.45,0.23-0.89,0.47-1.34,0.71
		c-0.78,0.4-1.56,0.41-2.34,0.01c-0.43-0.22-0.86-0.46-1.29-0.68C9.7,10.06,8.86,9.61,7.97,9.14z M18.04,9.14
		c-0.34,0.18-0.62,0.37-0.92,0.48c-0.5,0.17-0.64,0.48-0.61,1c0.05,0.78,0.01,1.57,0.01,2.36c0.03,0,0.05,0.01,0.06,0
		c0.04-0.02,0.09-0.04,0.13-0.07c0.69-0.42,1.12-1.02,1.27-1.82C18.09,10.46,18,9.83,18.04,9.14z M13.03,22.41
		c-0.69,0-1.38,0-2.07,0c-0.06,0-0.14-0.03-0.18,0.04c-0.03,0.06,0.03,0.12,0.07,0.17c0.18,0.26,0.42,0.45,0.74,0.45
		c0.94,0.01,1.88,0.01,2.83,0c0.31,0,0.55-0.18,0.73-0.43c0.04-0.06,0.11-0.13,0.08-0.19c-0.03-0.08-0.13-0.04-0.2-0.04
		C14.36,22.41,13.69,22.41,13.03,22.41z M16.15,15.32c-0.15,0.27-0.29,0.5-0.43,0.74c-0.21,0.37-0.05,0.64,0.37,0.65
		c0.07,0,0.15,0,0.22,0c0.29-0.02,0.45-0.29,0.32-0.54C16.49,15.89,16.32,15.62,16.15,15.32z"/>
	<path d="M9.09,18.26c1.16,0,2.31,0,3.47,0c0.09,0,0.18,0,0.27,0.02c0.17,0.04,0.27,0.15,0.27,0.33c0.01,0.17-0.07,0.3-0.24,0.36
		c-0.09,0.03-0.19,0.03-0.29,0.03c-2.34,0-4.67,0-7.01,0c-0.1,0-0.2,0-0.29-0.03c-0.16-0.06-0.25-0.19-0.23-0.36
		c0.01-0.17,0.11-0.29,0.28-0.32c0.09-0.02,0.18-0.01,0.27-0.01C6.77,18.26,7.93,18.26,9.09,18.26z"/>
	<path d="M7.85,17.45c-0.78,0-1.56,0-2.34,0c-0.29,0-0.46-0.13-0.46-0.35c-0.01-0.23,0.17-0.38,0.47-0.38c1.57,0,3.14,0,4.7,0
		c0.29,0,0.45,0.13,0.46,0.36c0.01,0.24-0.16,0.37-0.46,0.38C9.43,17.45,8.64,17.45,7.85,17.45z"/>
</g>
</svg>
