<?xml version="1.0" encoding="utf-8"?>
<!-- Generator: Adobe Illustrator 25.4.1, SVG Export Plug-In . SVG Version: 6.00 Build 0)  -->
<svg version="1.1" id="Layer_1" xmlns="http://www.w3.org/2000/svg" xmlns:xlink="http://www.w3.org/1999/xlink" x="0px" y="0px"
	 viewBox="0 0 60 60" style="enable-background:new 0 0 60 60;" xml:space="preserve">
<style type="text/css">
	.st0{fill:#EEEBE7;}
	.st1{fill:#C5C2BC;}
</style>
<g>
	<path class="st0" d="M33.56,0.69c3.57,0.44,6.33,1.43,7.96,2.12c4.74,1.99,8.67,5.05,11.81,9.09c1.62,2.08,2.93,4.31,3.92,6.67
		c0.63,1.5,1.51,3.94,1.97,7.07c0.1,0.67,0.53,3.8,0.08,7.93c-0.05,0.46-0.1,1.07-0.26,1.87c-0.79,4.06-2.32,7.81-4.67,11.22
		c-0.49,0.72-0.94,1.48-1.63,2.04c-0.06-0.16-0.14-0.32-0.19-0.48c-1.13-4.09-3.22-7.59-6.27-10.55c-2.53-2.45-5.43-4.25-8.76-5.37
		c-0.22-0.07-0.48-0.09-0.69-0.32c2.99-2.19,4.84-5.03,5.27-8.72c0.43-3.69-0.65-6.94-3.11-9.65c-4.45-4.9-12.16-5.41-17.28-0.75
		c-2.43,2.22-3.79,5.05-3.93,8.32c-0.19,4.53,1.69,8.13,5.43,10.85c-1.2,0.4-2.28,0.79-3.32,1.28c-2.86,1.35-5.29,3.25-7.4,5.58
		c-1.61,1.78-2.89,3.77-3.88,5.96c-0.56,1.25-0.94,2.55-1.38,3.84c-0.7-0.56-1.15-1.32-1.63-2.04c-2.15-3.2-3.68-6.62-4.47-10.29
		c-0.09-0.43-0.42-2.06-0.57-4.24c-0.04-0.61-0.14-2.24-0.01-4.37c0.05-0.75,0.09-1.37,0.15-1.71c0.39-2.62,1.07-5.16,2.11-7.61
		c2.09-4.92,5.31-8.96,9.57-12.14c1.85-1.38,3.81-2.52,5.87-3.42c1.49-0.65,4.05-1.61,7.37-2.1C27.07,0.56,29.95,0.24,33.56,0.69z"
		/>
	<path class="st1" d="M52.74,48.69c-0.12,0.38-0.41,0.64-0.66,0.92c-2.53,2.82-5.46,5.11-8.85,6.8c-2.75,1.38-5.64,2.3-8.68,2.77
		c-1.82,0.28-3.66,0.41-5.5,0.34c-3.82-0.14-7.48-0.96-10.98-2.5c-3.27-1.44-6.18-3.42-8.72-5.91c-0.76-0.74-1.6-1.44-2.1-2.42
		c0.44-1.29,0.82-2.59,1.38-3.84c0.98-2.19,2.27-4.18,3.88-5.96c2.11-2.33,4.55-4.24,7.4-5.58c1.04-0.49,2.12-0.89,3.32-1.28
		c-3.74-2.72-5.62-6.33-5.43-10.85c0.14-3.28,1.49-6.11,3.93-8.32C26.84,8.18,34.56,8.69,39,13.59c2.46,2.72,3.54,5.96,3.11,9.65
		c-0.43,3.69-2.28,6.53-5.27,8.72c0.2,0.23,0.46,0.25,0.69,0.32c3.33,1.13,6.23,2.92,8.76,5.37c3.05,2.96,5.14,6.46,6.27,10.55
		C52.6,48.37,52.68,48.53,52.74,48.69z"/>
</g>
</svg>
